<?xml version="1.0" encoding="iso-8859-1"?>
<!-- Generator: Adobe Illustrator 19.0.0, SVG Export Plug-In . SVG Version: 6.00 Build 0)  -->
<svg version="1.1" id="Layer_1" xmlns="http://www.w3.org/2000/svg" xmlns:xlink="http://www.w3.org/1999/xlink" x="0px" y="0px"
	 viewBox="0 0 512.568 512.568" style="enable-background:new 0 0 512.568 512.568;" xml:space="preserve">
<g>
	<g>
		<path d="M120.033,383.494h-25.6c-4.713,0-8.533,3.821-8.533,8.533c0,4.713,3.82,8.533,8.533,8.533h25.6
			c4.713,0,8.533-3.821,8.533-8.533C128.566,387.315,124.746,383.494,120.033,383.494z"/>
	</g>
</g>
<g>
	<g>
		<path d="M403.852,308.828c-2.168-4.184-7.318-5.819-11.503-3.651c-4.021,2.083-5.714,6.944-3.857,11.074
			c11.217,23.368,1.367,51.404-22,62.622c-6.447,3.095-13.516,4.675-20.666,4.621H154.167c-4.713,0-8.533,3.821-8.533,8.533
			c0,4.713,3.821,8.533,8.533,8.533h192c35.346,0.003,64.003-28.647,64.006-63.994C410.174,326.964,408.013,317.483,403.852,308.828
			z"/>
	</g>
</g>
<g>
	<g>
		<path d="M371.778,278.024c-0.199-0.094-0.403-0.18-0.609-0.258c-4.75-2.078-9.736-3.568-14.848-4.437
			c-4.713-0.73-9.126,2.498-9.856,7.211c-0.73,4.713,2.498,9.125,7.211,9.856c3.722,0.589,7.36,1.62,10.837,3.072
			c4.265,2.006,9.348,0.175,11.354-4.089C377.873,285.114,376.042,280.03,371.778,278.024z"/>
	</g>
</g>
<g>
	<g>
		<path d="M323.631,284.854c-1.909-4.309-6.95-6.254-11.259-4.345c-0.774,0.343-1.492,0.799-2.131,1.353
			c-17.398,10.874-27.998,29.915-28.075,50.432c0,4.713,3.82,8.533,8.533,8.533s8.533-3.821,8.533-8.533
			c0-14.711,7.578-28.385,20.053-36.181C323.595,294.204,325.54,289.163,323.631,284.854z"/>
	</g>
</g>
<g>
	<g>
		<path d="M376.033,417.628h-25.6c-4.713,0-8.533,3.82-8.533,8.533s3.82,8.533,8.533,8.533h25.6c4.713,0,8.533-3.82,8.533-8.533
			S380.746,417.628,376.033,417.628z"/>
	</g>
</g>
<g>
	<g>
		<path d="M179.767,417.628H162.7c-4.713,0-8.533,3.82-8.533,8.533s3.82,8.533,8.533,8.533h17.067c4.713,0,8.533-3.82,8.533-8.533
			S184.479,417.628,179.767,417.628z"/>
	</g>
</g>
<g>
	<g>
		<path d="M307.767,417.628H213.9c-4.713,0-8.533,3.82-8.533,8.533s3.821,8.533,8.533,8.533h93.867c4.713,0,8.533-3.82,8.533-8.533
			S312.479,417.628,307.767,417.628z"/>
	</g>
</g>
<g>
	<g>
		<path d="M102.967,417.628H43.233c-4.713,0-8.533,3.82-8.533,8.533s3.82,8.533,8.533,8.533h59.733c4.713,0,8.533-3.82,8.533-8.533
			S107.679,417.628,102.967,417.628z"/>
	</g>
</g>
<g>
	<g>
		<path d="M358.454,451.761h-50.688c-4.713,0-8.533,3.82-8.533,8.533s3.82,8.533,8.533,8.533h50.688c4.713,0,8.533-3.82,8.533-8.533
			S363.167,451.761,358.454,451.761z"/>
	</g>
</g>
<g>
	<g>
		<path d="M444.3,451.761h-9.045c-4.713,0-8.533,3.82-8.533,8.533s3.82,8.533,8.533,8.533h9.045c4.713,0,8.533-3.82,8.533-8.533
			S449.013,451.761,444.3,451.761z"/>
	</g>
</g>
<g>
	<g>
		<path d="M94.433,349.361H77.366c-4.713,0-8.533,3.82-8.533,8.533s3.82,8.533,8.533,8.533h17.067c4.713,0,8.533-3.82,8.533-8.533
			S99.146,349.361,94.433,349.361z"/>
	</g>
</g>
<g>
	<g>
		<path d="M179.767,349.361h-51.2c-4.713,0-8.533,3.82-8.533,8.533s3.82,8.533,8.533,8.533h51.2c4.713,0,8.533-3.82,8.533-8.533
			S184.479,349.361,179.767,349.361z"/>
	</g>
</g>
<g>
	<g>
		<path d="M469.9,349.361c-18.851,0-34.133,15.282-34.133,34.133c0,4.713,3.82,8.533,8.533,8.533s8.533-3.821,8.533-8.533
			c0-9.426,7.641-17.067,17.067-17.067c14.138,0,25.6,11.462,25.6,25.6c0,14.138-11.461,25.6-25.6,25.6h-59.733
			c-4.713,0-8.533,3.82-8.533,8.533s3.82,8.533,8.533,8.533H469.9c23.564,0,42.667-19.102,42.667-42.667
			C512.567,368.464,493.464,349.361,469.9,349.361z"/>
	</g>
</g>
<g>
	<g>
		<path d="M154.167,451.761h-8.533c-4.713,0-8.533,3.82-8.533,8.533s3.82,8.533,8.533,8.533h8.533c4.713,0,8.533-3.82,8.533-8.533
			S158.879,451.761,154.167,451.761z"/>
	</g>
</g>
<g>
	<g>
		<path d="M255.088,451.761c-1.071-0.057-2.144-0.057-3.214,0H188.3c-4.713,0-8.533,3.82-8.533,8.533s3.82,8.533,8.533,8.533h63.573
			c7.281-0.586,13.659,4.841,14.245,12.122c0.586,7.281-4.841,13.659-12.122,14.245c-0.707,0.057-1.417,0.057-2.123,0
			c-4.289,0-7.765-3.477-7.765-7.765c0-4.713-3.821-8.533-8.533-8.533s-8.533,3.82-8.533,8.533
			c0,13.714,11.118,24.832,24.832,24.832c16.707,0.888,30.97-11.936,31.858-28.643C284.619,466.912,271.795,452.649,255.088,451.761
			z"/>
	</g>
</g>
<g>
	<g>
		<path d="M415.713,180.913c-26.169-38.756-67.909-64.205-114.347-69.717c-41.859-62.72-126.637-79.63-189.357-37.771
			c-58.019,38.722-77.52,114.951-45.224,176.779c-3.923,4.544-7.436,9.427-10.496,14.592c-37.117,6.621-61.838,42.078-55.217,79.195
			c2.246,12.591,7.984,24.298,16.561,33.787c6.268,7.069,17.08,7.719,24.149,1.451c7.069-6.268,7.719-17.08,1.451-24.149
			C30.689,341.007,31.928,319.43,46,306.886c5.999-5.347,13.692-8.407,21.724-8.64h1.109c7.385,0,14.572,2.395,20.48,6.827
			c3.767,2.832,9.117,2.074,11.949-1.693c2.832-3.767,2.074-9.117-1.693-11.949c-0.005-0.004-0.01-0.008-0.016-0.012
			c-4.324-3.239-9.134-5.774-14.251-7.509c10.738-20.41,31.055-34.019,54.016-36.181c-1.027,5.218-1.767,10.488-2.219,15.787
			c-0.283,4.704,3.302,8.747,8.006,9.03c0.176,0.011,0.351,0.016,0.527,0.015c4.429,0.018,8.135-3.355,8.533-7.765
			c0.607-9.986,2.383-19.867,5.291-29.44c1.024-3.328,2.133-6.485,3.413-9.643l0.853-2.048c0.939-2.304,1.963-4.523,2.987-6.741
			c1.024-2.219,1.877-3.669,2.901-5.547l1.621-3.072c3.216-5.524,6.838-10.801,10.837-15.787
			c44.346-55.053,124.926-63.732,179.978-19.385c8.734,7.036,16.506,15.188,23.115,24.249c-10.547,1.629-20.77,4.912-30.293,9.728
			c-3.995,2.5-5.207,7.765-2.707,11.76c2.261,3.613,6.84,5.004,10.728,3.258c11.826-5.993,24.886-9.149,38.144-9.216
			c0.837,0.265,1.693,0.464,2.56,0.597c46.778,5.734,80.051,48.304,74.317,95.082c-0.185,1.506-0.409,3.008-0.674,4.502
			c-1.65,9.284,4.54,18.148,13.824,19.797c9.284,1.649,18.148-4.54,19.797-13.824c1.174-6.906,1.745-13.901,1.707-20.907
			C512.538,240.923,471.917,191.747,415.713,180.913z M130.956,213.596c-13.148,1.98-25.785,6.501-37.205,13.312
			c-21.491-52.312,3.495-112.14,55.806-133.631c12.293-5.05,25.453-7.659,38.743-7.681c25.517-0.045,50.122,9.487,68.949,26.709
			C200.005,120.913,151.786,159.586,130.956,213.596z"/>
	</g>
</g>
<g>
	<g>
		<path d="M158.177,304.305c-1.361-5.249-2.387-10.578-3.072-15.957c-0.703-4.555-4.897-7.729-9.472-7.168
			c-4.549,0.578-7.827,4.648-7.424,9.216c0.748,6.125,1.888,12.197,3.413,18.176c1.178,4.571,5.839,7.322,10.411,6.144
			C156.605,313.538,159.355,308.877,158.177,304.305z"/>
	</g>
</g>
<g>
	<g>
		<path d="M34.7,170.929H9.1c-4.713,0-8.533,3.82-8.533,8.533s3.82,8.533,8.533,8.533h25.6c4.713,0,8.533-3.82,8.533-8.533
			S39.413,170.929,34.7,170.929z"/>
	</g>
</g>
<g>
	<g>
		<path d="M188.3,0.262c-4.713,0-8.533,3.82-8.533,8.533v25.6c0,4.713,3.82,8.533,8.533,8.533s8.533-3.82,8.533-8.533v-25.6
			C196.833,4.083,193.013,0.262,188.3,0.262z"/>
	</g>
</g>
<g>
	<g>
		<path d="M313.918,49.329c-3.195-2.736-7.906-2.736-11.101,0l-18.005,18.005c-3.347,3.318-3.37,8.721-0.051,12.068
			c1.573,1.586,3.705,2.493,5.939,2.524c2.268,0.013,4.448-0.877,6.059-2.475l18.091-18.091
			C317.915,57.781,317.498,52.395,313.918,49.329z"/>
	</g>
</g>
<g>
	<g>
		<path d="M85.9,73.393L67.639,55.217c-3.346-3.346-8.771-3.346-12.117,0c-3.346,3.346-3.346,8.771,0,12.117l18.091,18.261
			c3.37,3.393,8.852,3.412,12.245,0.043C89.25,82.269,89.27,76.786,85.9,73.393z"/>
	</g>
</g>
<g>
</g>
<g>
</g>
<g>
</g>
<g>
</g>
<g>
</g>
<g>
</g>
<g>
</g>
<g>
</g>
<g>
</g>
<g>
</g>
<g>
</g>
<g>
</g>
<g>
</g>
<g>
</g>
<g>
</g>
</svg>
