<?xml version="1.0" encoding="iso-8859-1"?>
<!-- Generator: Adobe Illustrator 19.0.0, SVG Export Plug-In . SVG Version: 6.00 Build 0)  -->
<svg version="1.1" id="Layer_1" xmlns="http://www.w3.org/2000/svg" xmlns:xlink="http://www.w3.org/1999/xlink" x="0px" y="0px"
	 viewBox="0 0 512.568 512.568" style="enable-background:new 0 0 512.568 512.568;" xml:space="preserve">
<g>
	<g>
		<path d="M120.033,328.411h-25.6c-4.713,0-8.533,3.821-8.533,8.533c0,4.713,3.82,8.533,8.533,8.533h25.6
			c4.713,0,8.533-3.821,8.533-8.533C128.566,332.231,124.746,328.411,120.033,328.411z"/>
	</g>
</g>
<g>
	<g>
		<path d="M403.852,253.744c-2.168-4.184-7.318-5.819-11.503-3.651c-4.021,2.083-5.714,6.944-3.857,11.074
			c11.217,23.368,1.367,51.404-22,62.622c-6.447,3.095-13.516,4.675-20.666,4.621H154.167c-4.713,0-8.533,3.821-8.533,8.533
			c0,4.713,3.821,8.533,8.533,8.533h192c35.346,0.003,64.003-28.647,64.006-63.994C410.174,271.88,408.013,262.399,403.852,253.744z
			"/>
	</g>
</g>
<g>
	<g>
		<path d="M371.778,222.941c-0.199-0.094-0.403-0.18-0.609-0.258c-4.75-2.078-9.736-3.568-14.848-4.437
			c-4.713-0.73-9.126,2.498-9.856,7.211c-0.73,4.713,2.498,9.125,7.211,9.856c3.722,0.589,7.36,1.62,10.837,3.072
			c4.265,2.006,9.348,0.175,11.354-4.089C377.873,230.03,376.042,224.947,371.778,222.941z"/>
	</g>
</g>
<g>
	<g>
		<path d="M323.631,229.771c-1.909-4.309-6.95-6.254-11.259-4.345c-0.774,0.343-1.492,0.799-2.131,1.353
			c-17.398,10.874-27.998,29.915-28.075,50.432c0,4.713,3.82,8.533,8.533,8.533s8.533-3.821,8.533-8.533
			c0-14.711,7.578-28.385,20.053-36.181C323.595,239.12,325.54,234.079,323.631,229.771z"/>
	</g>
</g>
<g>
	<g>
		<path d="M376.033,362.544h-25.6c-4.713,0-8.533,3.82-8.533,8.533s3.82,8.533,8.533,8.533h25.6c4.713,0,8.533-3.82,8.533-8.533
			S380.746,362.544,376.033,362.544z"/>
	</g>
</g>
<g>
	<g>
		<path d="M179.766,362.544H162.7c-4.713,0-8.533,3.82-8.533,8.533s3.82,8.533,8.533,8.533h17.067c4.713,0,8.533-3.82,8.533-8.533
			S184.479,362.544,179.766,362.544z"/>
	</g>
</g>
<g>
	<g>
		<path d="M307.767,362.544H213.9c-4.713,0-8.533,3.82-8.533,8.533s3.821,8.533,8.533,8.533h93.867c4.713,0,8.533-3.82,8.533-8.533
			S312.479,362.544,307.767,362.544z"/>
	</g>
</g>
<g>
	<g>
		<path d="M102.967,362.544H43.233c-4.713,0-8.533,3.82-8.533,8.533s3.82,8.533,8.533,8.533h59.733c4.713,0,8.533-3.82,8.533-8.533
			S107.679,362.544,102.967,362.544z"/>
	</g>
</g>
<g>
	<g>
		<path d="M358.454,396.677h-50.688c-4.713,0-8.533,3.82-8.533,8.533s3.82,8.533,8.533,8.533h50.688c4.713,0,8.533-3.82,8.533-8.533
			S363.167,396.677,358.454,396.677z"/>
	</g>
</g>
<g>
	<g>
		<path d="M444.3,396.677h-9.045c-4.713,0-8.533,3.82-8.533,8.533s3.82,8.533,8.533,8.533h9.045c4.713,0,8.533-3.82,8.533-8.533
			S449.013,396.677,444.3,396.677z"/>
	</g>
</g>
<g>
	<g>
		<path d="M94.433,294.277H77.366c-4.713,0-8.533,3.82-8.533,8.533s3.82,8.533,8.533,8.533h17.067c4.713,0,8.533-3.82,8.533-8.533
			S99.146,294.277,94.433,294.277z"/>
	</g>
</g>
<g>
	<g>
		<path d="M179.766,294.277h-51.2c-4.713,0-8.533,3.82-8.533,8.533s3.82,8.533,8.533,8.533h51.2c4.713,0,8.533-3.82,8.533-8.533
			S184.479,294.277,179.766,294.277z"/>
	</g>
</g>
<g>
	<g>
		<path d="M469.9,294.277c-18.851,0-34.133,15.282-34.133,34.133c0,4.713,3.82,8.533,8.533,8.533s8.533-3.821,8.533-8.533
			c0-9.426,7.641-17.067,17.067-17.067c14.138,0,25.6,11.462,25.6,25.6c0,14.138-11.461,25.6-25.6,25.6h-59.733
			c-4.713,0-8.533,3.82-8.533,8.533s3.82,8.533,8.533,8.533H469.9c23.564,0,42.667-19.102,42.667-42.667
			C512.566,313.38,493.464,294.277,469.9,294.277z"/>
	</g>
</g>
<g>
	<g>
		<path d="M154.167,396.677h-8.533c-4.713,0-8.533,3.82-8.533,8.533s3.82,8.533,8.533,8.533h8.533c4.713,0,8.533-3.82,8.533-8.533
			S158.879,396.677,154.167,396.677z"/>
	</g>
</g>
<g>
	<g>
		<path d="M255.088,396.677c-1.071-0.057-2.144-0.057-3.214,0H188.3c-4.713,0-8.533,3.82-8.533,8.533s3.82,8.533,8.533,8.533h63.573
			c7.281-0.586,13.659,4.841,14.245,12.122c0.586,7.281-4.841,13.659-12.122,14.245c-0.707,0.057-1.417,0.057-2.123,0
			c-4.289,0-7.765-3.477-7.765-7.765c0-4.713-3.821-8.533-8.533-8.533s-8.533,3.82-8.533,8.533
			c0,13.714,11.118,24.832,24.832,24.832c16.707,0.888,30.97-11.936,31.858-28.643C284.619,411.828,271.795,397.565,255.088,396.677
			z"/>
	</g>
</g>
<g>
	<g>
		<path d="M415.713,125.829c-50.626-73.859-151.54-92.693-225.399-42.068c-26.839,18.396-47.521,44.442-59.358,74.75
			c-31.462,4.614-59.025,23.514-74.667,51.2c-37.117,6.621-61.838,42.078-55.217,79.195c2.246,12.591,7.984,24.298,16.561,33.787
			c6.268,7.069,17.08,7.719,24.149,1.451c7.069-6.268,7.719-17.08,1.451-24.149C30.689,285.923,31.928,264.346,46,251.802
			c5.999-5.347,13.692-8.407,21.724-8.64h1.109c7.385,0,14.572,2.395,20.48,6.827c3.774,2.823,9.121,2.053,11.945-1.72
			c2.819-3.767,2.056-9.105-1.705-11.933c-4.324-3.239-9.134-5.774-14.251-7.509c10.738-20.41,31.055-34.019,54.016-36.181
			c-1.027,5.218-1.768,10.488-2.219,15.787c-0.283,4.704,3.302,8.747,8.006,9.03c0.176,0.011,0.351,0.016,0.527,0.015
			c4.429,0.018,8.135-3.355,8.533-7.765c0.607-9.986,2.383-19.867,5.291-29.44c1.024-3.328,2.133-6.571,3.413-9.728l0.768-1.792
			c0.939-2.389,1.963-4.693,3.072-6.997c1.109-2.304,1.877-3.669,2.901-5.461l1.621-3.072c3.216-5.524,6.839-10.8,10.837-15.787
			c44.346-55.053,124.926-63.732,179.978-19.385c8.734,7.036,16.506,15.188,23.115,24.249c-10.547,1.629-20.77,4.912-30.293,9.728
			c-3.995,2.5-5.207,7.765-2.707,11.76c2.261,3.613,6.84,5.004,10.728,3.258c11.826-5.993,24.886-9.149,38.144-9.216
			c0.837,0.265,1.693,0.464,2.56,0.597c46.778,5.734,80.051,48.304,74.317,95.082c-0.185,1.506-0.409,3.008-0.674,4.502
			c-1.65,9.284,4.54,18.148,13.824,19.797c9.284,1.649,18.148-4.54,19.797-13.824c1.174-6.906,1.745-13.902,1.707-20.907
			C512.538,185.839,471.917,136.664,415.713,125.829z"/>
	</g>
</g>
<g>
	<g>
		<path d="M158.177,249.221c-1.365-5.248-2.391-10.578-3.072-15.957c-0.703-4.555-4.897-7.729-9.472-7.168
			c-4.549,0.578-7.827,4.648-7.424,9.216c0.751,6.125,1.891,12.196,3.413,18.176c1.178,4.571,5.839,7.322,10.411,6.144
			C156.605,258.454,159.355,253.793,158.177,249.221z"/>
	</g>
</g>
<g>
</g>
<g>
</g>
<g>
</g>
<g>
</g>
<g>
</g>
<g>
</g>
<g>
</g>
<g>
</g>
<g>
</g>
<g>
</g>
<g>
</g>
<g>
</g>
<g>
</g>
<g>
</g>
<g>
</g>
</svg>
