<?xml version="1.0" encoding="iso-8859-1"?>
<!-- Generator: Adobe Illustrator 19.0.0, SVG Export Plug-In . SVG Version: 6.00 Build 0)  -->
<svg version="1.1" id="Layer_1" xmlns="http://www.w3.org/2000/svg" xmlns:xlink="http://www.w3.org/1999/xlink" x="0px" y="0px"
	 viewBox="0 0 512.514 512.514" style="enable-background:new 0 0 512.514 512.514;" xml:space="preserve">
<g>
	<g>
		<path d="M119.689,357.844h-25.6c-4.713,0-8.533,3.821-8.533,8.533c0,4.713,3.82,8.533,8.533,8.533h25.6
			c4.713,0,8.533-3.821,8.533-8.533C128.222,361.664,124.402,357.844,119.689,357.844z"/>
	</g>
</g>
<g>
	<g>
		<path d="M403.508,283.177c-2.168-4.184-7.318-5.819-11.503-3.651c-4.021,2.083-5.714,6.944-3.857,11.074
			c3.054,6.333,4.63,13.278,4.608,20.309c-0.047,25.901-21.032,46.886-46.933,46.933h-192c-4.713,0-8.533,3.821-8.533,8.533
			c0,4.713,3.821,8.533,8.533,8.533h192c35.327-0.047,63.953-28.673,64-64C409.845,301.307,407.686,291.824,403.508,283.177z"/>
	</g>
</g>
<g>
	<g>
		<path d="M371.434,252.374c-0.199-0.094-0.403-0.18-0.609-0.258c-4.75-2.078-9.736-3.568-14.848-4.437
			c-4.713-0.73-9.126,2.498-9.856,7.211c-0.73,4.713,2.498,9.125,7.211,9.856c3.722,0.588,7.36,1.62,10.837,3.072
			c4.265,2.006,9.348,0.175,11.354-4.089C377.529,259.463,375.698,254.38,371.434,252.374z"/>
	</g>
</g>
<g>
	<g>
		<path d="M319.803,258.425c-2.457-2.835-6.476-3.733-9.906-2.213c-17.398,10.874-27.998,29.915-28.075,50.432
			c0,4.713,3.82,8.533,8.533,8.533s8.533-3.821,8.533-8.533c0-14.711,7.578-28.385,20.053-36.181
			C322.504,267.376,322.889,261.987,319.803,258.425z"/>
	</g>
</g>
<g>
	<g>
		<path d="M375.689,391.977h-25.6c-4.713,0-8.533,3.82-8.533,8.533s3.82,8.533,8.533,8.533h25.6c4.713,0,8.533-3.82,8.533-8.533
			S380.402,391.977,375.689,391.977z"/>
	</g>
</g>
<g>
	<g>
		<path d="M179.422,391.977h-17.067c-4.713,0-8.533,3.82-8.533,8.533s3.82,8.533,8.533,8.533h17.067c4.713,0,8.533-3.82,8.533-8.533
			S184.135,391.977,179.422,391.977z"/>
	</g>
</g>
<g>
	<g>
		<path d="M307.422,391.977h-93.867c-4.713,0-8.533,3.82-8.533,8.533s3.821,8.533,8.533,8.533h93.867
			c4.713,0,8.533-3.82,8.533-8.533S312.135,391.977,307.422,391.977z"/>
	</g>
</g>
<g>
	<g>
		<path d="M102.622,391.977H42.889c-4.713,0-8.533,3.82-8.533,8.533s3.82,8.533,8.533,8.533h59.733c4.713,0,8.533-3.82,8.533-8.533
			S107.335,391.977,102.622,391.977z"/>
	</g>
</g>
<g>
	<g>
		<path d="M358.11,426.11h-50.688c-4.713,0-8.533,3.82-8.533,8.533s3.82,8.533,8.533,8.533h50.688c4.713,0,8.533-3.82,8.533-8.533
			S362.823,426.11,358.11,426.11z"/>
	</g>
</g>
<g>
	<g>
		<path d="M443.956,426.11h-9.045c-4.713,0-8.533,3.82-8.533,8.533s3.82,8.533,8.533,8.533h9.045c4.713,0,8.533-3.82,8.533-8.533
			S448.669,426.11,443.956,426.11z"/>
	</g>
</g>
<g>
	<g>
		<path d="M94.089,323.71H77.022c-4.713,0-8.533,3.82-8.533,8.533s3.82,8.533,8.533,8.533h17.067c4.713,0,8.533-3.82,8.533-8.533
			S98.802,323.71,94.089,323.71z"/>
	</g>
</g>
<g>
	<g>
		<path d="M179.422,323.71h-51.2c-4.713,0-8.533,3.82-8.533,8.533s3.82,8.533,8.533,8.533h51.2c4.713,0,8.533-3.82,8.533-8.533
			S184.135,323.71,179.422,323.71z"/>
	</g>
</g>
<g>
	<g>
		<path d="M469.556,323.71c-18.851,0-34.133,15.282-34.133,34.133c0,4.713,3.82,8.533,8.533,8.533s8.533-3.821,8.533-8.533
			c0-9.426,7.641-17.067,17.067-17.067c14.138,0,25.6,11.462,25.6,25.6c0,14.138-11.461,25.6-25.6,25.6h-59.733
			c-4.713,0-8.533,3.82-8.533,8.533s3.82,8.533,8.533,8.533h59.733c23.564,0,42.667-19.102,42.667-42.667
			C512.222,342.813,493.12,323.71,469.556,323.71z"/>
	</g>
</g>
<g>
	<g>
		<path d="M153.822,426.11h-8.533c-4.713,0-8.533,3.82-8.533,8.533s3.82,8.533,8.533,8.533h8.533c4.713,0,8.533-3.82,8.533-8.533
			S158.535,426.11,153.822,426.11z"/>
	</g>
</g>
<g>
	<g>
		<path d="M254.744,426.11c-1.071-0.057-2.144-0.057-3.214,0h-63.573c-4.713,0-8.533,3.82-8.533,8.533s3.82,8.533,8.533,8.533
			h63.573c7.281-0.586,13.659,4.841,14.245,12.122c0.586,7.281-4.841,13.659-12.122,14.245c-0.707,0.057-1.417,0.057-2.123,0
			c-4.289,0-7.765-3.477-7.765-7.765c0-4.713-3.821-8.533-8.533-8.533s-8.533,3.82-8.533,8.533
			c0,13.714,11.118,24.832,24.832,24.832c16.707,0.888,30.97-11.936,31.858-28.643C284.275,441.261,271.451,426.998,254.744,426.11z
			"/>
	</g>
</g>
<g>
	<g>
		<path d="M415.369,155.262c-30.056-44.206-80.091-70.614-133.547-70.485c-45.417,0.148-88.714,19.23-119.467,52.651v-0.683
			c0.029-30.091,13.293-58.646,36.267-78.08c7.189-6.096,8.074-16.866,1.978-24.055c-2.428-2.863-5.733-4.846-9.402-5.641
			C117.495,13.04,44.833,59.875,28.904,133.578c-2.043,9.453-3.076,19.096-3.081,28.767c-0.012,28.09,8.694,55.49,24.917,78.421
			c-36.436,9.689-58.119,47.081-48.43,83.518c2.746,10.325,7.876,19.862,14.979,27.842c6.268,7.069,17.08,7.719,24.149,1.451
			c7.069-6.268,7.719-17.08,1.451-24.149c-5.546-6.289-8.584-14.399-8.533-22.784c-0.156-18.696,14.516-34.16,33.195-34.987
			c4.534-0.562,9.12-0.562,13.653,0c50.836,37.874,121.096,35.609,169.387-5.461c7.189-6.096,8.074-16.866,1.978-24.055
			c-2.428-2.863-5.733-4.846-9.402-5.641c-31.024-6.763-57.155-27.536-70.741-56.235c36.85-60.328,115.628-79.362,175.956-42.512
			c14.331,8.753,26.799,20.241,36.694,33.808c-10.547,1.629-20.77,4.912-30.293,9.728c-4.038,2.43-5.342,7.673-2.912,11.711
			c2.181,3.624,6.687,5.104,10.592,3.478c11.826-5.993,24.886-9.149,38.144-9.216c0.837,0.265,1.693,0.464,2.56,0.597
			c42.763,5.256,74.9,41.566,74.923,84.651c0.011,5.034-0.417,10.059-1.28,15.019c-1.698,9.271,4.441,18.164,13.712,19.863
			c0.037,0.007,0.075,0.014,0.112,0.02c0.994,0.087,1.993,0.087,2.987,0c8.373,0.129,15.602-5.835,17.067-14.08
			C522.012,228.988,479.55,167.48,415.369,155.262z M188.711,250.014c3.888,2.612,7.909,5.023,12.045,7.222
			c-52.383,21.316-112.128-3.869-133.444-56.252C45.996,148.601,71.18,88.856,123.563,67.54c8.942-3.639,18.353-5.995,27.955-6.998
			C109.468,123.134,126.119,207.963,188.711,250.014z"/>
	</g>
</g>
<g>
</g>
<g>
</g>
<g>
</g>
<g>
</g>
<g>
</g>
<g>
</g>
<g>
</g>
<g>
</g>
<g>
</g>
<g>
</g>
<g>
</g>
<g>
</g>
<g>
</g>
<g>
</g>
<g>
</g>
</svg>
