<?xml version="1.0" encoding="iso-8859-1"?>
<!-- Generator: Adobe Illustrator 19.0.0, SVG Export Plug-In . SVG Version: 6.00 Build 0)  -->
<svg version="1.1" id="Layer_1" xmlns="http://www.w3.org/2000/svg" xmlns:xlink="http://www.w3.org/1999/xlink" x="0px" y="0px"
	 viewBox="0 0 512.672 512.672" style="enable-background:new 0 0 512.672 512.672;" xml:space="preserve">
<g>
	<g>
		<path d="M416.12,181.753c-26.132-38.439-67.606-63.703-113.749-69.291c-41.906-62.689-126.696-79.537-189.385-37.631
			c-57.684,38.56-77.274,114.254-45.538,175.956c-4.046,4.75-7.645,9.863-10.752,15.275c-37.156,6.396-62.092,41.703-55.695,78.859
			c6.396,37.156,41.703,62.092,78.859,55.695c2.171-0.374,4.322-0.852,6.447-1.434c30.83,22.163,71.393,25.447,105.387,8.533
			c50.962,34.591,117.165,37.173,170.667,6.656c10.154,2.744,20.629,4.122,31.147,4.096
			c65.979-0.167,119.331-53.789,119.165-119.768C512.527,241.668,472.092,192.692,416.12,181.753z M149.315,93.739
			c12.468-5.268,25.856-8.011,39.391-8.072c25.776,0.063,50.58,9.844,69.461,27.392c-57.545,8.498-106.025,47.387-126.805,101.717
			c-12.901,2.012-25.298,6.473-36.523,13.141C72.83,175.822,97.22,115.748,149.315,93.739z M471.821,332.644
			c-13.438,31.325-44.229,51.647-78.314,51.69c-5.271-0.016-10.528-0.53-15.701-1.536c9.368-8.156,17.656-17.476,24.661-27.733
			c2.71-3.856,1.781-9.178-2.074-11.888c-3.856-2.71-9.178-1.781-11.888,2.074c-0.04,0.057-0.079,0.114-0.117,0.171
			c-9.679,14.179-22.097,26.278-36.523,35.584h-0.768c-45.762,29.242-105.029,26.262-147.627-7.424
			c-5.776-4.56-13.824-4.904-19.968-0.853c-13.842,9.253-30.643,12.996-47.104,10.496h-1.621c-2.885-0.499-5.736-1.183-8.533-2.048
			l-2.219-0.768c-2.682-0.917-5.304-2-7.851-3.243l-2.219-1.365c-1.963-1.024-3.755-2.133-5.632-3.328l-2.475-1.707
			c-11.157-8.087-19.606-19.362-24.235-32.341c-1.579-4.454-6.469-6.784-10.923-5.205s-6.784,6.469-5.205,10.923
			c2.768,7.772,6.648,15.102,11.52,21.76c-2.527,0.754-5.133,1.212-7.765,1.365c-18.851,0-34.133-15.282-34.133-34.133
			C35.1,314.643,49.817,299.509,68.301,299h0.939c7.385,0,14.572,2.395,20.48,6.827c3.767,2.832,9.117,2.074,11.949-1.693
			c2.832-3.767,2.074-9.117-1.693-11.949c-0.005-0.004-0.01-0.008-0.016-0.012c-4.324-3.239-9.134-5.774-14.251-7.509
			c2.121-3.996,4.636-7.769,7.509-11.264c4.029-4.994,8.773-9.364,14.08-12.971c9.656-6.62,20.852-10.646,32.512-11.691
			c-1.049,5.16-1.819,10.373-2.304,15.616c-0.283,4.704,3.302,8.747,8.006,9.03c0.176,0.011,0.351,0.016,0.527,0.015
			c4.52,0.008,8.262-3.51,8.533-8.021c0.607-9.986,2.383-19.867,5.291-29.44c1.024-3.328,2.133-6.485,3.413-9.643l0.768-1.877
			c0.939-2.304,1.963-4.693,3.072-6.912c1.109-2.219,1.877-3.669,2.816-5.461l1.707-2.901c3.216-5.524,6.838-10.801,10.837-15.787
			c44.268-55.116,124.834-63.91,179.95-19.643c8.479,6.81,16.055,14.672,22.546,23.397c-13.282,1.013-26.239,4.607-38.144,10.581
			c-4.131,2.268-5.641,7.456-3.372,11.587c2.174,3.959,7.057,5.538,11.138,3.602c21.816-10.927,47.24-12.106,69.973-3.243
			l2.475,0.939C470.354,239.16,490.401,289.333,471.821,332.644z"/>
	</g>
</g>
<g>
	<g>
		<path d="M158.84,305.401c-1.361-5.249-2.387-10.579-3.072-15.957c-0.589-4.713-4.887-8.056-9.6-7.467
			c-4.713,0.589-8.056,4.887-7.467,9.6c0.748,6.125,1.888,12.197,3.413,18.176c0.998,3.709,4.351,6.293,8.192,6.315
			c4.71,0.15,8.651-3.546,8.801-8.257C159.134,306.998,159.043,306.187,158.84,305.401z"/>
	</g>
</g>
<g>
	<g>
		<path d="M331.085,228.302c-3.44-3.228-8.846-3.056-12.075,0.384c-3.37,3.584-6.478,7.406-9.301,11.435
			c-2.686,3.872-1.725,9.189,2.147,11.875c1.424,0.988,3.116,1.519,4.85,1.522c2.792-0.005,5.406-1.375,6.997-3.669
			c2.356-3.341,4.952-6.506,7.765-9.472C334.698,236.936,334.526,231.53,331.085,228.302z"/>
	</g>
</g>
<g>
	<g>
		<path d="M35.107,171h-25.6c-4.713,0-8.533,3.82-8.533,8.533s3.82,8.533,8.533,8.533h25.6c4.713,0,8.533-3.82,8.533-8.533
			S39.819,171,35.107,171z"/>
	</g>
</g>
<g>
	<g>
		<path d="M188.707,0.334c-4.713,0-8.533,3.82-8.533,8.533v25.6c0,4.713,3.82,8.533,8.533,8.533s8.533-3.82,8.533-8.533v-25.6
			C197.24,4.154,193.419,0.334,188.707,0.334z"/>
	</g>
</g>
<g>
	<g>
		<path d="M314.325,49.4c-3.195-2.736-7.906-2.736-11.101,0l-18.005,18.005c-3.347,3.318-3.37,8.721-0.051,12.068
			c1.573,1.586,3.705,2.493,5.939,2.524c2.268,0.013,4.448-0.877,6.059-2.475l18.091-18.091
			C318.321,57.853,317.905,52.466,314.325,49.4z"/>
	</g>
</g>
<g>
	<g>
		<path d="M86.307,73.464L68.045,55.288c-3.346-3.346-8.771-3.346-12.117,0c-3.346,3.346-3.346,8.771,0,12.117l18.091,18.261
			c3.37,3.393,8.852,3.412,12.245,0.043C89.657,82.34,89.676,76.858,86.307,73.464z"/>
	</g>
</g>
<g>
	<g>
		<path d="M441.802,480.61c-1.771-2.841-5.04-4.384-8.359-3.946c-8.939,2.845-18.566,2.665-27.392-0.512
			c-9.22-3.59-19.452-3.59-28.672,0c-10.776,4.548-22.46,6.535-34.133,5.803c-4.685-0.292-8.726,3.253-9.045,7.936
			c-0.293,4.685,3.253,8.726,7.936,9.045h6.315c12.339,0.005,24.555-2.461,35.925-7.253c5.239-2.051,11.059-2.051,16.299,0
			c12.376,4.448,25.874,4.688,38.4,0.683C443.074,489.873,444.295,484.61,441.802,480.61z"/>
	</g>
</g>
<g>
	<g>
		<path d="M469.374,453.713c-0.002-0.001-0.004-0.002-0.006-0.004c-4.101-2.302-9.291-0.852-11.605,3.243
			c-1.431,2.554-3.118,4.956-5.035,7.168c-2.977,3.653-2.429,9.029,1.224,12.006c3.495,2.848,8.603,2.486,11.661-0.827
			c2.697-3.077,5.07-6.422,7.083-9.984C474.982,461.194,473.495,456,469.374,453.713z"/>
	</g>
</g>
<g>
	<g>
		<path d="M86.349,501.795c-0.589-4.76-4.925-8.141-9.685-7.552l-7.936,1.024c-4.713,0.141-8.419,4.076-8.277,8.789
			c0.141,4.713,4.076,8.419,8.789,8.277h0.512c3.015,0,6.03-0.284,9.045-0.853C83.557,510.891,86.938,506.555,86.349,501.795z"/>
	</g>
</g>
<g>
	<g>
		<path d="M482.186,402.986c-3.704-2.913-9.069-2.272-11.983,1.432c-0.144,0.183-0.281,0.372-0.409,0.567
			c-1.964,2.728-4.071,5.348-6.315,7.851c-2.95,3.676-2.361,9.046,1.314,11.996c3.406,2.733,8.326,2.454,11.401-0.647
			c2.639-2.936,5.117-6.012,7.424-9.216C486.532,411.264,485.891,405.899,482.186,402.986z"/>
	</g>
</g>
<g>
	<g>
		<path d="M460.939,428.658c-2.601-3.93-7.895-5.008-11.825-2.408c-0.194,0.129-0.383,0.265-0.567,0.409
			c-22.606,16.205-51.235,21.549-78.165,14.592c-7.047-1.876-14.549-0.926-20.907,2.645c-44.013,24.793-98.149,23.116-140.544-4.352
			c-8.862-5.997-20.201-6.967-29.952-2.56c-27.711,12.744-60.314,8.105-83.371-11.861c-2.473-2.392-6.14-3.065-9.301-1.707
			c-3.191,1.406-6.545,2.409-9.984,2.987c-4.713,0.778-7.903,5.229-7.125,9.941c0.778,4.713,5.229,7.903,9.941,7.125
			c2.895-0.53,5.747-1.272,8.533-2.219c28.072,21.937,66.06,26.319,98.389,11.349c4.42-1.84,9.474-1.293,13.397,1.451
			c24.797,15.895,53.661,24.281,83.115,24.149c4.011,0,7.936,0,11.947-0.512l-0.853,1.109
			c-12.874,15.139-34.495,19.386-52.139,10.24c-7.45-4.162-16.308-4.998-24.405-2.304c-21.017,7.408-44.215,5.321-63.573-5.717
			c-9.652-5.653-21.517-6.006-31.488-0.939c-5.222,2.673-10.609,5.01-16.128,6.997c-4.477,1.649-6.769,6.616-5.12,11.093
			c1.649,4.477,6.616,6.769,11.093,5.12c6.168-2.284,12.182-4.964,18.005-8.021c4.832-2.412,10.562-2.187,15.189,0.597
			c23.646,13.481,51.979,16.034,77.653,6.997c3.623-1.114,7.544-0.681,10.837,1.195c28.98,15.264,64.847,4.145,80.111-24.835
			c0.849-1.612,1.624-3.263,2.321-4.946c14.545-3.219,28.544-8.537,41.557-15.787c2.606-1.436,5.677-1.774,8.533-0.939
			c31.812,8.285,65.661,2.034,92.416-17.067C462.461,437.883,463.539,432.588,460.939,428.658z"/>
	</g>
</g>
<g>
	<g>
		<path d="M47.907,421.283c-2.53-1.46-4.903-3.175-7.083-5.12c-3.676-2.95-9.046-2.361-11.996,1.314
			c-2.733,3.406-2.454,8.326,0.647,11.4c3.073,2.726,6.418,5.128,9.984,7.168c1.3,0.737,2.772,1.12,4.267,1.109
			c4.712-0.094,8.455-3.99,8.361-8.702C52.028,425.501,50.447,422.789,47.907,421.283z"/>
	</g>
</g>
<g>
</g>
<g>
</g>
<g>
</g>
<g>
</g>
<g>
</g>
<g>
</g>
<g>
</g>
<g>
</g>
<g>
</g>
<g>
</g>
<g>
</g>
<g>
</g>
<g>
</g>
<g>
</g>
<g>
</g>
</svg>
