<?xml version="1.0" encoding="iso-8859-1"?>
<!-- Generator: Adobe Illustrator 19.0.0, SVG Export Plug-In . SVG Version: 6.00 Build 0)  -->
<svg version="1.1" id="Layer_1" xmlns="http://www.w3.org/2000/svg" xmlns:xlink="http://www.w3.org/1999/xlink" x="0px" y="0px"
	 viewBox="0 0 507.594 507.594" style="enable-background:new 0 0 507.594 507.594;" xml:space="preserve">
<g>
	<g>
		<path d="M507.578,268.812c-0.894-55.803-40.304-103.552-94.925-115.009c-29.979-44.335-80.027-70.878-133.547-70.827
			c-45.458,0.204-88.765,19.383-119.467,52.907c0-0.512,0-0.939,0-1.365c0.004-30.121,13.27-58.712,36.267-78.165
			c7.189-6.096,8.074-16.866,1.978-24.055c-2.428-2.863-5.733-4.846-9.402-5.641C114.779,10.727,42.117,57.562,26.187,131.266
			c-2.025,9.369-3.058,18.926-3.081,28.511c-0.014,28.486,8.943,56.252,25.6,79.36c-36.119,10.813-56.634,48.858-45.821,84.977
			c10.236,34.192,45.083,54.729,79.954,47.119c30.83,22.163,71.393,25.447,105.387,8.533
			c50.962,34.591,117.165,37.173,170.667,6.656c10.169,2.633,20.644,3.896,31.147,3.755
			C456.011,389.12,508.635,334.784,507.578,268.812z M121.418,65.082c8.768-3.537,17.984-5.843,27.385-6.852
			c-42.085,62.568-25.481,147.407,37.087,189.492c3.921,2.638,7.977,5.07,12.15,7.287c-52.447,21.159-112.116-4.205-133.274-56.652
			C43.607,145.91,68.971,86.241,121.418,65.082z M467.551,305.329c-13.616,30.677-43.949,50.523-77.512,50.714
			c-5.271-0.014-10.528-0.528-15.701-1.536c9.368-8.156,17.656-17.476,24.661-27.733c2.615-3.921,1.557-9.219-2.363-11.834
			c-3.853-2.571-9.053-1.598-11.717,2.192c-9.82,14.36-22.447,26.581-37.12,35.925l-0.939,0.597
			c-2.731,1.707-5.575,3.328-8.533,4.864c-44.543,23.426-98.712,18.374-138.155-12.885c-5.776-4.56-13.824-4.904-19.968-0.853
			c-13.842,9.253-30.643,12.996-47.104,10.496h-1.621c-2.885-0.499-5.736-1.183-8.533-2.048l-2.219-0.768
			c-2.682-0.917-5.304-2-7.851-3.243l-2.133-1.195c-2.304-0.512-4.011-1.963-5.803-3.157l-2.475-1.707
			c-11.189-8.075-19.668-19.351-24.32-32.341c-1.579-4.454-6.469-6.784-10.923-5.205s-6.784,6.469-5.205,10.923
			c2.768,7.772,6.648,15.102,11.52,21.76c-2.554,0.523-5.159,0.752-7.765,0.683c-18.851,0-34.133-15.282-34.133-34.133
			c-0.007-18.491,14.711-33.625,33.195-34.133c4.754-0.606,9.544-0.891,14.336-0.853c23.159,17.475,51.459,26.778,80.469,26.453
			c32.283-0.02,63.514-11.479,88.149-32.341c7.189-6.096,8.074-16.866,1.978-24.055c-2.428-2.863-5.733-4.846-9.402-5.641
			c-30.842-6.743-56.849-27.335-70.485-55.808c23.324-37.99,64.648-61.203,109.227-61.355c40.479,0.037,78.515,19.372,102.4,52.053
			c-13.282,1.013-26.239,4.607-38.144,10.581c-4.131,2.268-5.641,7.456-3.372,11.587c2.174,3.959,7.057,5.538,11.138,3.602
			c16.014-8.27,34.236-11.258,52.053-8.533l5.035,0.853h0.512c4.188,0.966,8.296,2.249,12.288,3.84l3.157,1.621
			C467.249,211.834,486.67,262.253,467.551,305.329z"/>
	</g>
</g>
<g>
	<g>
		<path d="M328.527,200.456c-3.185-3.474-8.582-3.709-12.057-0.524c-0.301,0.276-0.582,0.574-0.841,0.89
			c-3.368,3.556-6.476,7.349-9.301,11.349c-2.687,3.872-1.726,9.189,2.146,11.876c1.401,0.972,3.061,1.502,4.766,1.522
			c2.777,0.015,5.387-1.322,6.997-3.584c2.36-3.338,4.955-6.503,7.765-9.472C331.477,209.328,331.711,203.93,328.527,200.456z"/>
	</g>
</g>
<g>
	<g>
		<path d="M442.491,454.675c-0.836-4.638-5.274-7.72-9.912-6.884c-0.912,0.164-1.792,0.477-2.603,0.924
			c-8.939,2.845-18.566,2.665-27.392-0.512c-9.22-3.59-19.452-3.59-28.672,0c-10.772,4.56-22.459,6.547-34.133,5.803
			c-4.713-0.306-8.782,3.266-9.088,7.979s3.266,8.782,7.979,9.088h6.059c12.422,0,24.72-2.465,36.181-7.253
			c5.241-2.042,11.058-2.042,16.299,0c12.366,4.476,25.865,4.746,38.4,0.768C440.246,463.751,443.328,459.313,442.491,454.675z"/>
	</g>
</g>
<g>
	<g>
		<path d="M465.908,425.764c-0.002-0.001-0.004-0.002-0.006-0.004c-4.101-2.302-9.291-0.852-11.605,3.243
			c-1.433,2.526-3.12,4.899-5.035,7.083c-3.11,3.558-2.748,8.964,0.811,12.075c3.558,3.11,8.964,2.747,12.075-0.811
			c2.697-3.077,5.07-6.422,7.083-9.984C471.516,433.245,470.029,428.051,465.908,425.764z"/>
	</g>
</g>
<g>
	<g>
		<path d="M82.797,473.675c-0.566-4.689-4.825-8.032-9.515-7.467l-8.021,0.768c-4.713,0.141-8.419,4.076-8.277,8.789
			c0.141,4.713,4.076,8.419,8.789,8.277h0.512c2.987,0,6.059-0.512,9.045-0.853C80.02,482.624,83.363,478.365,82.797,473.675z"/>
	</g>
</g>
<g>
	<g>
		<path d="M477.744,375.109c-3.705-2.451-8.67-1.65-11.416,1.841c-1.964,2.727-4.072,5.348-6.315,7.851
			c-2.95,3.676-2.361,9.046,1.314,11.996c3.406,2.733,8.326,2.454,11.401-0.647c2.634-2.94,5.112-6.017,7.424-9.216
			C482.752,383.004,481.674,377.709,477.744,375.109z"/>
	</g>
</g>
<g>
	<g>
		<path d="M456.856,400.502c-2.828-3.817-8.215-4.62-12.032-1.792c-22.606,16.205-51.235,21.549-78.165,14.592
			c-7.05-1.839-14.537-0.892-20.907,2.645c-44.009,24.812-98.155,23.135-140.544-4.352c-8.862-5.997-20.201-6.967-29.952-2.56
			c-10.258,4.648-21.423,6.951-32.683,6.741c-18.668-0.027-36.687-6.852-50.688-19.2c-2.549-2.084-6.069-2.515-9.045-1.109
			c-3.182,1.488-6.535,2.577-9.984,3.243c-4.713,0.778-7.903,5.229-7.125,9.941c0.778,4.713,5.229,7.903,9.941,7.125
			c2.895-0.528,5.747-1.27,8.533-2.219c28.07,21.954,66.152,26.119,98.304,10.752c4.42-1.84,9.474-1.293,13.397,1.451
			c24.821,15.911,53.717,24.298,83.2,24.149c4.011,0,7.936,0,11.947-0.512l-0.853,1.195c-12.874,15.139-34.495,19.386-52.139,10.24
			c-7.478-4.095-16.33-4.869-24.405-2.133c-21.017,7.408-44.215,5.321-63.573-5.717c-9.652-5.653-21.517-6.006-31.488-0.939
			c-5.221,2.674-10.608,5.012-16.128,6.997c-4.548,1.649-6.898,6.673-5.248,11.221c1.65,4.548,6.673,6.897,11.221,5.248
			c6.22-2.227,12.291-4.849,18.176-7.851c4.828-2.428,10.567-2.203,15.189,0.597c23.646,13.481,51.979,16.034,77.653,6.997
			c3.622-1.124,7.548-0.691,10.837,1.195c28.98,15.264,64.847,4.145,80.111-24.835c0.849-1.612,1.624-3.263,2.321-4.946
			c14.504-3.342,28.445-8.775,41.387-16.128c2.603-1.445,5.678-1.784,8.533-0.939c31.812,8.285,65.661,2.034,92.416-17.067
			C458.881,409.706,459.684,404.319,456.856,400.502z"/>
	</g>
</g>
<g>
	<g>
		<path d="M44.44,393.334c-2.53-1.46-4.903-3.175-7.083-5.12c-3.676-2.95-9.046-2.361-11.996,1.314
			c-2.733,3.406-2.454,8.326,0.647,11.4c3.073,2.726,6.418,5.128,9.984,7.168c1.3,0.737,2.772,1.12,4.267,1.109
			c4.712-0.094,8.455-3.99,8.361-8.702C48.561,397.552,46.98,394.84,44.44,393.334z"/>
	</g>
</g>
<g>
</g>
<g>
</g>
<g>
</g>
<g>
</g>
<g>
</g>
<g>
</g>
<g>
</g>
<g>
</g>
<g>
</g>
<g>
</g>
<g>
</g>
<g>
</g>
<g>
</g>
<g>
</g>
<g>
</g>
</svg>
