<?xml version="1.0" encoding="iso-8859-1"?>
<!-- Generator: Adobe Illustrator 19.0.0, SVG Export Plug-In . SVG Version: 6.00 Build 0)  -->
<svg version="1.1" id="Layer_1" xmlns="http://www.w3.org/2000/svg" xmlns:xlink="http://www.w3.org/1999/xlink" x="0px" y="0px"
	 viewBox="0 0 494.933 494.933" style="enable-background:new 0 0 494.933 494.933;" xml:space="preserve">
<g>
	<g>
		<path d="M280.235,325.419h-7.168c-4.713,0-8.533,3.821-8.533,8.533c0,4.713,3.82,8.533,8.533,8.533h8.021
			c4.713-0.236,8.342-4.247,8.107-8.96S284.948,325.183,280.235,325.419z"/>
	</g>
</g>
<g>
	<g>
		<path d="M461.781,281.6c-3.299-3.37-8.705-3.427-12.075-0.128c-20.042,19.488-47.727,29.029-75.52,26.027
			c0.462-0.542,0.889-1.112,1.28-1.707c26.96-70.421-8.272-149.364-78.693-176.324c-70.421-26.96-149.364,8.272-176.324,78.693
			c-12.135,31.697-12.029,66.777,0.297,98.399c-9.616-2.036-18.744-5.92-26.88-11.435c-7.09-4.924-15.763-7.024-24.32-5.888
			c-8.915,1.182-17.889,1.866-26.88,2.048c-4.713,0-8.533,3.82-8.533,8.533s3.82,8.533,8.533,8.533
			c9.734-0.188,19.449-0.929,29.099-2.219c4.346-0.514,8.728,0.612,12.288,3.157c27.032,18.001,61.41,20.869,91.051,7.595
			c5.244-2.173,11.225-1.598,15.957,1.536c16.746,10.656,35.415,17.932,54.955,21.419h1.536c4.713,0.424,8.877-3.052,9.301-7.765
			c0.424-4.713-3.053-8.877-7.765-9.301c-17.356-3.097-33.938-9.562-48.811-19.029c-9.603-6.217-21.681-7.21-32.171-2.645
			c-3.21,1.571-6.588,2.774-10.069,3.584c-1.855-1.648-3.364-3.65-4.437-5.888c-22.905-51.708,0.443-112.194,52.151-135.099
			s112.194,0.443,135.099,52.151c10.921,24.654,11.677,52.62,2.104,77.828c-1.744,5.308-3.766,10.521-6.059,15.616
			c-9.62,5.919-20.229,10.052-31.317,12.203c-4.713,0.566-8.075,4.845-7.509,9.557s4.845,8.075,9.557,7.509
			c0.68,0.082,1.368,0.082,2.048,0c14.732-3.59,28.851-9.341,41.899-17.067c39.016,11.728,81.32,1.037,110.08-27.819
			C465.023,290.376,465.08,284.97,461.781,281.6z"/>
	</g>
</g>
<g>
	<g>
		<path d="M356.907,433.835c-1.555-4.548-6.503-6.974-11.051-5.419c-30.896,11.065-64.751,10.581-95.317-1.365
			c-4.458-1.53-9.312,0.843-10.842,5.3c-1.437,4.187,0.566,8.778,4.612,10.572c13.829,5.415,28.376,8.779,43.179,9.984
			c4.324,0.341,8.59,0.512,12.8,0.512c17.431,0.125,34.752-2.762,51.2-8.533C356.036,443.33,358.462,438.383,356.907,433.835z"/>
	</g>
</g>
<g>
	<g>
		<path d="M387.089,415.96c-2.595-3.801-7.737-4.859-11.622-2.392l-6.229,3.925c-4.295,1.941-6.203,6.996-4.262,11.29
			c1.941,4.295,6.996,6.203,11.29,4.262c0.53-0.24,1.034-0.533,1.505-0.875l7.083-4.352
			C388.745,425.161,389.746,419.852,387.089,415.96z"/>
	</g>
</g>
<g>
	<g>
		<path d="M216.32,456.576c-13.779-5.63-26.659-13.249-38.229-22.613c-3.676-2.969-9.063-2.396-12.032,1.28
			c-2.969,3.676-2.396,9.063,1.28,12.032c12.92,10.403,27.295,18.855,42.667,25.088c4.511,1.365,9.274-1.184,10.64-5.695
			C221.846,462.7,220.022,458.443,216.32,456.576z"/>
	</g>
</g>
<g>
	<g>
		<path d="M281.199,467.909c-0.293-0.01-0.587-0.004-0.879,0.017c-7.804,0.304-15.62,0.019-23.381-0.853
			c-4.713-0.542-8.973,2.839-9.515,7.552s2.839,8.973,7.552,9.515c6.402,0.734,12.841,1.104,19.285,1.109h6.656
			c4.713,0,8.533-3.82,8.533-8.533C289.604,472.004,285.909,468.062,281.199,467.909z"/>
	</g>
</g>
<g>
	<g>
		<path d="M459.861,360.661c-4.101-2.302-9.291-0.852-11.605,3.243c-10.535,18.722-33.346,26.691-53.248,18.603
			c-8.004-3.465-17.084-3.465-25.088,0c-11.447,5.172-23.987,7.457-36.523,6.656c-4.713-0.306-8.782,3.266-9.088,7.979
			c-0.306,4.713,3.266,8.782,7.979,9.088h6.144c13.317-0.076,26.465-2.985,38.571-8.533c3.704-1.594,7.901-1.594,11.605,0
			c27.761,11.419,59.685,0.461,74.581-25.6C465.363,368.012,463.887,362.941,459.861,360.661z"/>
	</g>
</g>
<g>
	<g>
		<path d="M451.517,335.439c-2.601-3.93-7.895-5.008-11.825-2.408c-0.194,0.129-0.383,0.265-0.567,0.409
			c-22.179,15.982-50.248,21.44-76.8,14.933c-8.002-2.019-16.471-0.953-23.723,2.987c-43.44,23.845-96.418,22.144-138.24-4.437
			c-9.488-6.26-21.501-7.288-31.915-2.731c-23.967,10.708-51.731,8.523-73.728-5.803c-7.745-5.256-17.283-7.164-26.453-5.291h-1.451
			c-4.713,0.778-7.903,5.229-7.125,9.941c0.778,4.713,5.229,7.903,9.941,7.125h2.048c4.663-0.9,9.492,0.115,13.397,2.816
			c27.001,17.359,60.966,19.834,90.197,6.571c5.171-2.15,11.079-1.54,15.701,1.621c24.524,15.642,53.003,23.961,82.091,23.979
			c4.011,0,7.936,0,11.947-0.512l-0.853,1.195c-12.874,15.139-34.495,19.386-52.139,10.24c-7.474-4.174-16.351-5.04-24.491-2.389
			c-21.294,7.464-44.792,5.186-64.256-6.229c-9.096-5.445-20.36-5.8-29.781-0.939c-5.513,2.86-11.216,5.34-17.067,7.424
			c-4.501,1.649-6.812,6.635-5.163,11.136c1.649,4.501,6.635,6.812,11.136,5.163c6.558-2.406,12.945-5.258,19.115-8.533
			c4.202-2.121,9.201-1.927,13.227,0.512c23.807,13.962,52.552,16.74,78.592,7.595c3.677-1.142,7.662-0.71,11.008,1.195
			c24.633,12.779,54.823,6.911,72.875-14.165c3.902-4.669,7.067-9.906,9.387-15.531c13.946-3.124,27.388-8.179,39.936-15.019
			c3.625-1.982,7.881-2.471,11.861-1.365c31.366,7.586,64.481,1.138,90.709-17.664C453.04,344.663,454.118,339.369,451.517,335.439z
			"/>
	</g>
</g>
<g>
	<g>
		<path d="M76.928,408.747c-0.589-4.76-4.925-8.141-9.685-7.552l-8.107,1.024c-4.713,0.165-8.4,4.119-8.235,8.832
			c0.165,4.713,4.119,8.4,8.832,8.235h0.597c3.015,0,6.03-0.284,9.045-0.853C74.136,417.843,77.517,413.507,76.928,408.747z"/>
	</g>
</g>
<g>
	<g>
		<path d="M472.68,309.937c-3.704-2.913-9.069-2.272-11.983,1.432c-0.144,0.183-0.281,0.372-0.409,0.567
			c-1.963,2.728-4.071,5.349-6.315,7.851c-2.95,3.676-2.361,9.046,1.314,11.996c3.406,2.733,8.326,2.454,11.401-0.647
			c2.635-2.939,5.113-6.015,7.424-9.216C477.025,318.216,476.384,312.851,472.68,309.937z"/>
	</g>
</g>
<g>
	<g>
		<path d="M39.022,328.594c-0.202-0.129-0.41-0.248-0.622-0.36c-2.528-1.462-4.901-3.178-7.083-5.12
			c-3.676-2.95-9.046-2.361-11.996,1.314c-2.733,3.406-2.454,8.326,0.647,11.4c3.049,2.717,6.366,5.118,9.899,7.168
			c3.977,2.528,9.251,1.353,11.779-2.624C44.174,336.396,42.999,331.122,39.022,328.594z"/>
	</g>
</g>
<g>
	<g>
		<path d="M85.333,248.619h-76.8c-4.713,0-8.533,3.82-8.533,8.533s3.82,8.533,8.533,8.533h76.8c4.713,0,8.533-3.82,8.533-8.533
			S90.046,248.619,85.333,248.619z"/>
	</g>
</g>
<g>
	<g>
		<path d="M486.4,248.619h-76.8c-4.713,0-8.533,3.82-8.533,8.533s3.82,8.533,8.533,8.533h76.8c4.713,0,8.533-3.82,8.533-8.533
			S491.113,248.619,486.4,248.619z"/>
	</g>
</g>
<g>
	<g>
		<path d="M247.467,9.685c-4.713,0-8.533,3.82-8.533,8.533v76.8c0,4.713,3.82,8.533,8.533,8.533S256,99.732,256,95.019v-76.8
			C256,13.506,252.18,9.685,247.467,9.685z"/>
	</g>
</g>
<g>
	<g>
		<path d="M103.361,190.149c-0.912-0.611-1.934-1.04-3.009-1.264l-28.843-12.032c-4.468-1.5-9.306,0.906-10.805,5.374
			c-1.371,4.085,0.518,8.552,4.405,10.413l28.757,11.691c3.916,2.622,9.216,1.573,11.838-2.343
			C108.327,198.071,107.278,192.771,103.361,190.149z"/>
	</g>
</g>
<g>
	<g>
		<path d="M46.878,166.921c-0.315-0.151-0.638-0.282-0.969-0.393l-6.485-2.645c-4.251-2.035-9.346-0.238-11.381,4.013
			c-2.035,4.251-0.238,9.347,4.013,11.381c0.315,0.151,0.638,0.282,0.969,0.393l6.485,2.645c4.251,2.035,9.346,0.238,11.381-4.013
			C52.925,174.051,51.129,168.955,46.878,166.921z"/>
	</g>
</g>
<g>
	<g>
		<path d="M328.19,58.891c-4.251-2.035-9.347-0.238-11.381,4.013c-0.151,0.315-0.282,0.638-0.393,0.969l-16.128,39.68
			c-1.803,4.354,0.266,9.346,4.62,11.149c0.024,0.01,0.049,0.02,0.073,0.03c4.359,1.758,9.319-0.341,11.093-4.693l16.128-39.765
			C334.238,66.021,332.441,60.925,328.19,58.891z"/>
	</g>
</g>
<g>
	<g>
		<path d="M340.905,27.488c-4.251-2.035-9.346-0.238-11.381,4.013c-0.151,0.315-0.282,0.638-0.393,0.969l-4.267,10.24
			c-1.787,4.361,0.3,9.345,4.661,11.132c0.039,0.016,0.078,0.032,0.118,0.047c4.359,1.758,9.319-0.341,11.093-4.693l4.181-10.325
			C346.952,34.618,345.156,29.523,340.905,27.488z"/>
	</g>
</g>
<g>
	<g>
		<path d="M418.217,188.747c-1.5-4.468-6.338-6.874-10.805-5.374c-0.331,0.111-0.654,0.242-0.969,0.393l-11.861,5.12
			c-4.614,0.96-7.576,5.478-6.617,10.092c0.96,4.614,5.478,7.576,10.092,6.617c1.075-0.224,2.097-0.653,3.009-1.264l11.776-4.779
			C417.31,198.052,419.716,193.214,418.217,188.747z"/>
	</g>
</g>
<g>
	<g>
		<path d="M476.589,163.851c-1.861-3.887-6.327-5.777-10.413-4.405l-34.133,13.653c-4.555,1.211-7.265,5.886-6.053,10.44
			c1.088,4.089,5.007,6.763,9.211,6.285c1.133-0.094,2.235-0.413,3.243-0.939l34.133-13.653
			C476.827,173.197,478.624,168.102,476.589,163.851z"/>
	</g>
</g>
<g>
	<g>
		<path d="M195.909,106.561c-0.224-1.075-0.653-2.097-1.264-3.009l-4.779-11.861c-1.791-4.383-6.796-6.484-11.179-4.693
			c-4.383,1.791-6.484,6.796-4.693,11.179l5.205,11.861c0.96,4.614,5.478,7.576,10.092,6.617
			C193.906,115.694,196.869,111.175,195.909,106.561z"/>
	</g>
</g>
<g>
	<g>
		<path d="M178.91,64.841c-0.111-0.331-0.242-0.654-0.393-0.969l-12.629-31.488c-1.5-4.468-6.338-6.874-10.805-5.374
			c-4.468,1.5-6.874,6.338-5.374,10.805c0.111,0.331,0.242,0.654,0.393,0.969l12.629,31.488c1.5,4.468,6.338,6.874,10.805,5.374
			S180.41,69.308,178.91,64.841z"/>
	</g>
</g>
<g>
	<g>
		<path d="M401.671,100.309c-2.789-1.768-6.348-1.768-9.138,0l-36.181,36.181c-3.302,3.363-3.252,8.766,0.111,12.067
			c1.525,1.497,3.556,2.367,5.691,2.439c2.268,0.013,4.448-0.877,6.059-2.475l36.096-36.437
			C406.833,108.105,405.651,102.833,401.671,100.309z"/>
	</g>
</g>
<g>
	<g>
		<path d="M138.837,136.491L102.4,100.309c-3.98-2.523-9.253-1.342-11.776,2.638c-1.768,2.789-1.768,6.348,0,9.138l36.181,36.437
			c3.58,3.065,8.966,2.649,12.032-0.931C141.573,144.397,141.573,139.685,138.837,136.491z"/>
	</g>
</g>
<g>
</g>
<g>
</g>
<g>
</g>
<g>
</g>
<g>
</g>
<g>
</g>
<g>
</g>
<g>
</g>
<g>
</g>
<g>
</g>
<g>
</g>
<g>
</g>
<g>
</g>
<g>
</g>
<g>
</g>
</svg>
