<?xml version="1.0" encoding="iso-8859-1"?>
<!-- Generator: Adobe Illustrator 19.0.0, SVG Export Plug-In . SVG Version: 6.00 Build 0)  -->
<svg version="1.1" id="Layer_1" xmlns="http://www.w3.org/2000/svg" xmlns:xlink="http://www.w3.org/1999/xlink" x="0px" y="0px"
	 viewBox="0 0 458.898 458.898" style="enable-background:new 0 0 458.898 458.898;" xml:space="preserve">
<g>
	<g>
		<path d="M445.006,217.979c-3.299-3.37-8.705-3.427-12.075-0.128c-23.011,22.647-56.082,31.81-87.467,24.235
			c-7.981-2.071-16.449-1.066-23.723,2.816c-3.157,1.707-6.4,3.328-9.643,4.864c-11.777,5.272-24.478,8.172-37.376,8.533h-8.533
			c0.221-4.199-1.116-8.331-3.755-11.605c-43.468-53.328-36.178-131.652,16.384-176.043c2.389-2.048,4.267-5.12,6.827-6.997
			c8.629,2.857,16.925,6.633,24.747,11.264c3.977,2.528,9.251,1.354,11.779-2.623c2.528-3.977,1.354-9.251-2.623-11.779
			c-0.202-0.129-0.41-0.249-0.623-0.36c-10.089-6.054-20.786-11.03-31.915-14.848c-5.115-1.759-10.329-3.212-15.616-4.352
			c-86.49-18.786-171.833,36.1-190.619,122.59c-5.058,23.285-4.859,47.406,0.582,70.604c-1.536-0.853-3.072-1.621-4.523-2.645
			c-7.064-4.911-15.705-7.01-24.235-5.888c-8.859,1.175-17.775,1.859-26.709,2.048c-4.713,0-8.533,3.82-8.533,8.533
			s3.82,8.533,8.533,8.533c9.734-0.189,19.449-0.93,29.099-2.219c4.346-0.514,8.728,0.612,12.288,3.157
			c7.372,4.943,15.419,8.795,23.893,11.435c3.94,3.062,9.022,4.247,13.909,3.243c18.035,2.957,36.542,0.584,53.248-6.827
			c5.244-2.173,11.225-1.598,15.957,1.536c9.19,5.827,18.973,10.661,29.184,14.421c12.531,4.514,25.764,6.767,39.083,6.656h4.352
			l28.331-0.939c15.094-0.371,29.968-3.705,43.776-9.813c3.698-1.65,7.31-3.47,10.837-5.461c3.627-1.893,7.843-2.321,11.776-1.195
			c37.06,8.903,76.09-1.935,103.253-28.672C448.247,226.755,448.305,221.349,445.006,217.979z M228.387,258.043
			c-6.498-0.894-12.879-2.497-19.029-4.779c-8.962-3.385-17.542-7.704-25.6-12.885c-9.603-6.217-21.681-7.21-32.171-2.645
			c-10.254,4.542-21.386,6.757-32.597,6.485c0.001-2.07-0.375-4.123-1.109-6.059v0.085c-22.325-66.13,13.186-137.838,79.316-160.163
			c11.093-3.745,22.653-5.93,34.348-6.493C190.691,126.659,189.421,201.623,228.387,258.043z"/>
	</g>
</g>
<g>
	<g>
		<path d="M340.131,370.214c-1.555-4.548-6.503-6.974-11.051-5.419c-30.896,11.065-64.751,10.581-95.317-1.365
			c-4.458-1.53-9.312,0.843-10.842,5.3c-1.437,4.187,0.566,8.778,4.612,10.572c13.83,5.413,28.376,8.776,43.179,9.984
			c4.267,0.341,8.533,0.512,12.8,0.512c17.431,0.123,34.751-2.764,51.2-8.533C339.26,379.71,341.686,374.762,340.131,370.214z"/>
	</g>
</g>
<g>
	<g>
		<path d="M369.023,352.089c-2.537-3.013-6.806-3.897-10.332-2.141l-6.229,3.84c-4.295,1.941-6.203,6.996-4.262,11.29
			c1.941,4.295,6.996,6.203,11.29,4.262c0.53-0.24,1.034-0.533,1.505-0.875c2.389-1.365,4.693-2.816,6.997-4.352
			C371.597,361.077,372.059,355.694,369.023,352.089z"/>
	</g>
</g>
<g>
	<g>
		<path d="M199.544,392.955c-13.778-5.632-26.658-13.25-38.229-22.613c-3.505-3.151-8.9-2.864-12.051,0.64
			c-3.151,3.505-2.865,8.9,0.64,12.051c0.211,0.189,0.43,0.368,0.659,0.536c12.92,10.403,27.295,18.855,42.667,25.088
			c4.563,1.179,9.218-1.565,10.396-6.128C204.594,398.781,202.919,394.852,199.544,392.955z"/>
	</g>
</g>
<g>
	<g>
		<path d="M264.423,404.288c-0.293-0.01-0.587-0.004-0.879,0.017c-7.804,0.302-15.62,0.017-23.381-0.853
			c-4.713-0.542-8.973,2.839-9.515,7.552s2.839,8.973,7.552,9.515c6.402,0.734,12.841,1.104,19.285,1.109h6.656
			c4.713,0,8.533-3.82,8.533-8.533C272.828,408.384,269.134,404.441,264.423,404.288z"/>
	</g>
</g>
<g>
	<g>
		<path d="M443.086,297.041c-4.101-2.302-9.291-0.852-11.605,3.243c-10.535,18.722-33.346,26.691-53.248,18.603
			c-8.004-3.465-17.084-3.465-25.088,0c-11.447,5.172-23.987,7.457-36.523,6.656c-4.713-0.306-8.782,3.266-9.088,7.979
			c-0.306,4.713,3.266,8.782,7.979,9.088h6.144c13.288-0.088,26.406-2.997,38.485-8.533c3.704-1.594,7.901-1.594,11.605,0
			c27.761,11.419,59.685,0.461,74.581-25.6C448.516,304.414,447.08,299.349,443.086,297.041z"/>
	</g>
</g>
<g>
	<g>
		<path d="M433.974,272.074c-2.601-3.93-7.895-5.008-11.825-2.408c-0.194,0.129-0.383,0.265-0.567,0.409
			c-22.506,16.132-50.988,21.504-77.824,14.677c-7.241-1.928-14.947-0.98-21.504,2.645c-43.958,24.603-97.922,22.863-140.203-4.523
			c-8.856-6.014-20.204-6.984-29.952-2.56c-24.599,11.428-53.388,9.129-75.861-6.059c-6.94-4.877-15.611-6.611-23.893-4.779
			l-2.645,0.512c-4.713,0.778-7.903,5.229-7.125,9.941c0.778,4.713,5.229,7.903,9.941,7.125l3.669-0.768
			c3.612-0.691,7.35,0.143,10.325,2.304c27.616,18.734,63.063,21.523,93.269,7.339c4.42-1.84,9.474-1.293,13.397,1.451
			c24.797,15.895,53.661,24.281,83.115,24.149c4.011,0,7.936,0,11.947-0.512l-0.853,1.195
			c-12.874,15.139-34.495,19.386-52.139,10.24c-7.474-4.174-16.351-5.04-24.491-2.389c-21.294,7.464-44.792,5.186-64.256-6.229
			c-9.091-5.461-20.364-5.816-29.781-0.939c-5.513,2.86-11.216,5.34-17.067,7.424c-4.501,1.649-6.812,6.635-5.163,11.136
			c1.649,4.501,6.635,6.812,11.136,5.163c6.559-2.404,12.946-5.255,19.115-8.533c4.199-2.137,9.206-1.944,13.227,0.512
			c23.807,13.962,52.552,16.74,78.592,7.595c3.677-1.142,7.662-0.71,11.008,1.195c24.633,12.779,54.823,6.911,72.875-14.165
			c3.902-4.669,7.067-9.906,9.387-15.531c14.393-3.232,28.245-8.52,41.131-15.701c2.626-1.365,5.659-1.729,8.533-1.024
			c31.706,8.179,65.406,1.932,92.075-17.067C435.496,281.299,436.574,276.005,433.974,272.074z"/>
	</g>
</g>
<g>
	<g>
		<path d="M60.152,345.126c-0.589-4.76-4.925-8.141-9.685-7.552l-8.107,1.024c-4.713,0.165-8.4,4.119-8.235,8.832
			c0.165,4.713,4.119,8.4,8.832,8.235h0.597c2.987,0,6.059-0.512,9.045-0.853C57.36,354.222,60.741,349.886,60.152,345.126z"/>
	</g>
</g>
<g>
	<g>
		<path d="M455.403,246.374c-0.01-0.007-0.019-0.014-0.029-0.021c-3.82-2.76-9.154-1.902-11.915,1.918
			c-0.011,0.015-0.021,0.03-0.032,0.045c-1.962,2.729-4.07,5.349-6.315,7.851c-2.95,3.676-2.361,9.046,1.314,11.996
			c3.406,2.733,8.326,2.454,11.4-0.647c2.637-2.938,5.115-6.014,7.424-9.216C460.034,254.496,459.206,249.157,455.403,246.374z"/>
	</g>
</g>
<g>
	<g>
		<path d="M21.624,264.614c-2.526-1.466-4.899-3.181-7.083-5.12c-3.346-3.318-8.749-3.296-12.068,0.051
			c-3.318,3.347-3.296,8.75,0.051,12.068c0.212,0.21,0.435,0.409,0.668,0.596c3.048,2.719,6.365,5.12,9.899,7.168
			c4.176,2.185,9.332,0.57,11.517-3.605C26.664,271.842,25.367,266.993,21.624,264.614z"/>
	</g>
</g>
<g>
	<g>
		<path d="M399.736,190.033c0-2.56-0.228-5.12-0.683-7.68c-0.518-4.689-4.74-8.07-9.429-7.552s-8.07,4.74-7.552,9.429
			c0,2.276,0.199,4.551,0.597,6.827c0.271,4.512,4.013,8.029,8.533,8.021h0.597C396.483,198.759,400.029,194.717,399.736,190.033z"
			/>
	</g>
</g>
<g>
	<g>
		<path d="M395.908,162.86c-0.004-0.016-0.008-0.032-0.012-0.049c-0.626-2.731-1.337-5.404-2.133-8.021
			c-1.272-4.619-6.048-7.331-10.667-6.059s-7.331,6.048-6.059,10.667c0.683,2.332,1.337,4.722,1.963,7.168
			c0.928,3.935,4.491,6.679,8.533,6.571h2.048C394.167,172.046,396.999,167.445,395.908,162.86z"/>
	</g>
</g>
<g>
	<g>
		<path d="M384.561,131.57c-0.149-0.379-0.324-0.746-0.525-1.1l-1.877-3.755c-2.168-4.194-7.326-5.837-11.52-3.669
			s-5.837,7.326-3.669,11.52l1.707,3.243c1.723,4.387,6.676,6.546,11.062,4.823C384.124,140.909,386.283,135.957,384.561,131.57z"/>
	</g>
</g>
<g>
	<g>
		<path d="M362.019,96.337l-2.389-2.816c-3.134-3.535-8.54-3.859-12.075-0.725c-3.535,3.134-3.859,8.54-0.725,12.075l2.133,2.475
			c3.04,3.605,8.427,4.064,12.032,1.024S365.059,99.942,362.019,96.337z"/>
	</g>
</g>
<g>
	<g>
		<path d="M344.914,78.823c-0.179-0.172-0.365-0.336-0.559-0.492l-2.731-2.219c-3.629-3.016-9.016-2.52-12.032,1.109
			c-3.016,3.629-2.52,9.016,1.109,12.032l2.389,1.877c3.399,3.265,8.801,3.156,12.065-0.243S348.312,82.088,344.914,78.823z"/>
	</g>
</g>
<g>
</g>
<g>
</g>
<g>
</g>
<g>
</g>
<g>
</g>
<g>
</g>
<g>
</g>
<g>
</g>
<g>
</g>
<g>
</g>
<g>
</g>
<g>
</g>
<g>
</g>
<g>
</g>
<g>
</g>
</svg>
