<?xml version="1.0" encoding="iso-8859-1"?>
<!-- Generator: Adobe Illustrator 19.0.0, SVG Export Plug-In . SVG Version: 6.00 Build 0)  -->
<svg version="1.1" id="Layer_1" xmlns="http://www.w3.org/2000/svg" xmlns:xlink="http://www.w3.org/1999/xlink" x="0px" y="0px"
	 viewBox="0 0 511.68 511.68" style="enable-background:new 0 0 511.68 511.68;" xml:space="preserve">
<g>
	<g>
		<path d="M415.129,87.934C364.435,14.122,263.503-4.619,189.691,46.075c-26.845,18.437-47.516,44.531-59.319,74.883
			c-31.462,4.614-59.025,23.514-74.667,51.2c-37.058,6.944-61.469,42.615-54.525,79.673s42.615,61.469,79.673,54.525
			c1.498-0.281,2.987-0.612,4.463-0.992c30.83,22.163,71.393,25.447,105.387,8.533c11.774,8.09,24.572,14.575,38.059,19.285
			c-1.337,1.399-2.51,2.945-3.499,4.608c-7.041,12.261-2.809,27.908,9.451,34.948c12.261,7.041,27.908,2.809,34.948-9.451
			c3.367-5.863,4.278-12.82,2.533-19.353c0-0.768-0.597-1.536-0.853-2.304c3.413,0,6.827,0,10.24,0c3.413,0,6.827,0,10.155,0
			c-4.951,13.243,1.772,27.993,15.016,32.943s27.993-1.772,32.943-15.016c3.405-9.109,1.355-19.362-5.292-26.461
			c9.433-3.25,18.545-7.363,27.221-12.288c10.083,2.635,20.47,3.927,30.891,3.84c65.979-0.167,119.331-53.789,119.165-119.768
			C511.536,147.85,471.101,98.873,415.129,87.934z M254.873,354.515c-1.13,1.978-3.004,3.422-5.205,4.011
			c-4.548,1.234-9.236-1.452-10.471-6c-1.234-4.548,1.452-9.236,6-10.471c2.2-0.597,4.547-0.289,6.518,0.855
			C255.779,345.253,257.189,350.437,254.873,354.515z M323.14,354.515c-2.359,4.08-7.578,5.476-11.659,3.117
			c-4.08-2.359-5.476-7.578-3.117-11.659c2.359-4.08,7.578-5.476,11.659-3.117c1.956,1.131,3.384,2.991,3.97,5.173
			C324.581,350.219,324.274,352.553,323.14,354.515z M472.374,237.804c-13.338,32.246-44.966,53.122-79.859,52.711
			c-5.271-0.016-10.528-0.53-15.701-1.536c9.369-8.155,17.657-17.475,24.661-27.733c2.615-3.921,1.557-9.219-2.364-11.834
			c-3.853-2.57-9.053-1.598-11.716,2.192c-9.94,14.405-22.717,26.63-37.547,35.925c-2.987,1.877-6.059,3.584-9.131,5.205
			c-44.521,23.388-98.645,18.337-138.069-12.885c-5.776-4.56-13.824-4.904-19.968-0.853c-13.842,9.253-30.643,12.996-47.104,10.496
			h-1.621c-2.885-0.499-5.736-1.183-8.533-2.048l-2.219-0.768c-2.682-0.917-5.304-2-7.851-3.243l-2.389-1.451
			c-1.963-1.024-3.755-2.133-5.632-3.328l-2.475-1.707c-11.157-8.087-19.606-19.362-24.235-32.341
			c-1.579-4.454-6.469-6.784-10.923-5.205s-6.784,6.469-5.205,10.923c2.768,7.772,6.648,15.102,11.52,21.76
			c-2.527,0.754-5.133,1.212-7.765,1.365c-18.851,0.259-34.343-14.813-34.603-33.664s14.813-34.344,33.664-34.603h0.939
			c7.385,0,14.572,2.395,20.48,6.827c3.77,2.828,9.119,2.064,11.947-1.707s2.064-9.119-1.707-11.947
			c-4.324-3.239-9.134-5.774-14.251-7.509c10.733-20.467,31.091-34.115,54.101-36.267c-1.062,5.273-1.831,10.6-2.304,15.957
			c-0.283,4.704,3.302,8.747,8.006,9.03c0.176,0.011,0.351,0.016,0.527,0.015c4.52,0.008,8.262-3.51,8.533-8.021
			c0.607-9.986,2.383-19.867,5.291-29.44c1.024-3.328,2.133-6.485,3.413-9.643l0.768-1.877c0.939-2.304,1.963-4.693,3.072-6.912
			c1.109-2.219,1.877-3.669,2.816-5.461l1.707-2.901c3.216-5.524,6.838-10.801,10.837-15.787
			c44.268-55.116,124.834-63.911,179.95-19.643c8.479,6.81,16.055,14.672,22.546,23.397c-13.282,1.013-26.239,4.607-38.144,10.581
			c-4.131,2.268-5.641,7.456-3.372,11.587c2.174,3.959,7.057,5.538,11.138,3.602c15.99-8.252,34.179-11.239,51.968-8.533
			c6.19,0.953,12.257,2.584,18.091,4.864l2.475,0.939C469.687,144.348,490.388,194.255,472.374,237.804z"/>
	</g>
</g>
<g>
	<g>
		<path d="M157.508,211.667c-1.307-5.28-2.276-10.639-2.901-16.043c-0.589-4.713-4.887-8.056-9.6-7.467
			c-4.713,0.589-8.056,4.887-7.467,9.6c0.748,6.125,1.888,12.197,3.413,18.176c1.178,4.571,5.839,7.322,10.411,6.144
			S158.686,216.239,157.508,211.667z"/>
	</g>
</g>
<g>
	<g>
		<path d="M330.137,134.526c-3.44-3.252-8.865-3.099-12.117,0.341c-3.373,3.582-6.481,7.403-9.301,11.435
			c-2.71,3.865-1.774,9.194,2.091,11.904c3.865,2.71,9.194,1.774,11.904-2.091c2.358-3.339,4.953-6.505,7.765-9.472
			C333.73,143.203,333.577,137.778,330.137,134.526z"/>
	</g>
</g>
<g>
	<g>
		<path d="M123.716,446.334c-12.243-7.072-27.9-2.881-34.972,9.362c-0.005,0.008-0.009,0.016-0.014,0.025
			c-7.058,12.25-2.85,27.904,9.401,34.962c12.25,7.058,27.904,2.85,34.962-9.401C140.145,469.041,135.949,453.401,123.716,446.334z
			 M118.34,472.787c-2.524,3.98-7.797,5.16-11.777,2.636s-5.16-7.797-2.636-11.776c2.524-3.98,7.797-5.16,11.776-2.636
			c1.896,1.202,3.242,3.103,3.745,5.291C119.961,468.525,119.561,470.861,118.34,472.787z"/>
	</g>
</g>
<g>
	<g>
		<path d="M157.873,387.212c-0.008-0.005-0.016-0.009-0.025-0.014c-12.25-7.059-27.904-2.85-34.962,9.401
			c-7.059,12.25-2.85,27.904,9.401,34.962c12.241,7.053,27.881,2.857,34.948-9.376C174.308,409.942,170.116,394.284,157.873,387.212
			z M152.487,413.628c-0.005,0.008-0.009,0.016-0.014,0.024c-2.528,3.977-7.802,5.152-11.779,2.623
			c-3.742-2.379-5.039-7.228-2.983-11.157c1.53-2.651,4.363-4.279,7.424-4.267c1.495-0.01,2.966,0.372,4.267,1.109
			C153.475,404.33,154.856,409.554,152.487,413.628z"/>
	</g>
</g>
<g>
	<g>
		<path d="M191.982,328.062c-12.253-7.069-27.917-2.867-34.987,9.387c-7.069,12.253-2.867,27.917,9.387,34.987
			s27.917,2.867,34.987-9.387C208.438,350.795,204.236,335.131,191.982,328.062z M186.966,353.893
			c-0.111,0.212-0.231,0.42-0.36,0.622c-1.13,1.978-3.004,3.422-5.205,4.011c-4.556,1.206-9.227-1.51-10.433-6.066
			c-0.58-2.19-0.265-4.521,0.875-6.478c2.185-4.176,7.341-5.79,11.517-3.606S189.15,349.717,186.966,353.893z"/>
	</g>
</g>
<g>
	<g>
		<path d="M89.556,387.226c-12.253-7.054-27.904-2.84-34.959,9.413c-7.054,12.253-2.84,27.904,9.413,34.959
			c5.884,3.388,12.872,4.299,19.428,2.534c6.556-1.765,12.143-6.063,15.531-11.947C106.023,409.932,101.809,394.28,89.556,387.226z
			 M84.236,413.6c-0.01,0.017-0.02,0.034-0.029,0.051c-2.362,4.078-7.583,5.469-11.661,3.106c-4.078-2.362-5.469-7.583-3.106-11.661
			c2.351-4.058,7.536-5.458,11.61-3.136C85.143,404.295,86.57,409.506,84.236,413.6z"/>
	</g>
</g>
<g>
	<g>
		<path d="M123.677,328.073c-12.241-7.053-27.881-2.857-34.948,9.376c-7.072,12.243-2.881,27.9,9.362,34.972
			c0.008,0.005,0.016,0.01,0.025,0.014c12.25,7.059,27.904,2.85,34.962-9.401C140.136,350.784,135.927,335.131,123.677,328.073z
			 M118.259,354.537c-2.351,4.058-7.536,5.458-11.61,3.136c-4.094-2.334-5.521-7.545-3.187-11.64c0.01-0.017,0.02-0.034,0.029-0.051
			c2.362-4.078,7.583-5.469,11.661-3.106C119.231,345.238,120.622,350.459,118.259,354.537z"/>
	</g>
</g>
<g>
	<g>
		<path d="M226.09,387.226c-12.253-7.054-27.904-2.84-34.959,9.413c-7.054,12.253-2.84,27.904,9.413,34.959
			c5.884,3.388,12.872,4.299,19.428,2.534c6.556-1.765,12.143-6.063,15.531-11.947C242.557,409.932,238.342,394.28,226.09,387.226z
			 M220.769,413.6c-0.01,0.017-0.019,0.034-0.029,0.051c-2.362,4.078-7.583,5.469-11.661,3.106
			c-4.078-2.362-5.469-7.583-3.106-11.661c2.351-4.058,7.536-5.458,11.61-3.136C221.676,404.295,223.103,409.506,220.769,413.6z"/>
	</g>
</g>
<g>
	<g>
		<path d="M260.249,446.334c-12.243-7.072-27.9-2.881-34.972,9.362c-0.005,0.008-0.009,0.016-0.014,0.025
			c-7.059,12.25-2.85,27.904,9.401,34.962c12.25,7.058,27.904,2.85,34.962-9.401C276.678,469.041,272.482,453.401,260.249,446.334z
			 M254.887,472.763c-0.005,0.008-0.009,0.016-0.014,0.024c-2.185,4.176-7.341,5.79-11.517,3.606s-5.79-7.341-3.606-11.517
			c0.111-0.212,0.231-0.42,0.36-0.623c1.13-1.978,3.004-3.422,5.205-4.011c2.189-0.588,4.523-0.281,6.485,0.853
			C255.875,463.466,257.256,468.69,254.887,472.763z"/>
	</g>
</g>
<g>
	<g>
		<path d="M294.407,387.212c-0.008-0.005-0.016-0.009-0.025-0.014c-12.25-7.059-27.904-2.85-34.962,9.401
			c-7.059,12.25-2.85,27.904,9.401,34.962c12.241,7.053,27.881,2.857,34.948-9.376C310.841,409.942,306.65,394.284,294.407,387.212z
			 M289.02,413.628c-0.005,0.008-0.009,0.016-0.014,0.024c-2.185,4.176-7.341,5.79-11.517,3.606s-5.79-7.341-3.606-11.517
			c0.111-0.213,0.231-0.42,0.36-0.623c1.53-2.651,4.363-4.279,7.424-4.267c1.495-0.01,2.966,0.372,4.267,1.109
			C290.008,404.33,291.39,409.554,289.02,413.628z"/>
	</g>
</g>
<g>
	<g>
		<path d="M362.673,387.212c-0.008-0.005-0.016-0.009-0.025-0.014c-12.25-7.059-27.904-2.85-34.962,9.401
			c-7.059,12.25-2.85,27.904,9.401,34.962c12.241,7.053,27.881,2.857,34.948-9.376C379.108,409.942,374.916,394.284,362.673,387.212
			z M357.302,413.6c-0.01,0.017-0.019,0.034-0.029,0.051c-2.362,4.078-7.583,5.469-11.661,3.106
			c-4.078-2.362-5.469-7.583-3.106-11.661c2.351-4.058,7.536-5.458,11.61-3.136C358.21,404.295,359.636,409.506,357.302,413.6z"/>
	</g>
</g>
<g>
	<g>
		<path d="M396.782,328.062c-12.243-7.072-27.9-2.881-34.972,9.362c-0.005,0.008-0.009,0.016-0.014,0.025
			c-7.059,12.25-2.85,27.904,9.401,34.962s27.904,2.85,34.962-9.401C413.211,350.769,409.015,335.129,396.782,328.062z
			 M391.406,354.515c-1.13,1.978-3.004,3.422-5.205,4.011c-4.548,1.234-9.236-1.452-10.471-6c-1.234-4.548,1.452-9.236,6-10.471
			c2.2-0.597,4.547-0.289,6.518,0.855C392.312,345.253,393.722,350.437,391.406,354.515z"/>
	</g>
</g>
<g>
</g>
<g>
</g>
<g>
</g>
<g>
</g>
<g>
</g>
<g>
</g>
<g>
</g>
<g>
</g>
<g>
</g>
<g>
</g>
<g>
</g>
<g>
</g>
<g>
</g>
<g>
</g>
<g>
</g>
</svg>
