<?xml version="1.0" encoding="iso-8859-1"?>
<!-- Generator: Adobe Illustrator 19.0.0, SVG Export Plug-In . SVG Version: 6.00 Build 0)  -->
<svg version="1.1" id="Layer_1" xmlns="http://www.w3.org/2000/svg" xmlns:xlink="http://www.w3.org/1999/xlink" x="0px" y="0px"
	 viewBox="0 0 512.986 512.986" style="enable-background:new 0 0 512.986 512.986;" xml:space="preserve">
<g>
	<g>
		<path d="M508.344,266.897c-12.401-43.329-48.13-75.993-92.396-84.466c-26.132-38.439-67.606-63.703-113.749-69.291
			c-42.059-62.586-126.89-79.227-189.476-37.168c-57.355,38.544-76.87,113.863-45.446,175.408
			c-4.046,4.75-7.645,9.864-10.752,15.275c-37.14,6.491-61.985,41.861-55.494,79.001c5.762,32.967,34.573,56.896,68.038,56.509
			c9.426,0,17.067-7.641,17.067-17.067s-7.641-17.067-17.067-17.067c-18.851,0.259-34.343-14.813-34.603-33.664
			s14.813-34.343,33.664-34.603h0.939c7.385,0,14.572,2.395,20.48,6.827c3.774,2.823,9.121,2.053,11.945-1.72
			c2.819-3.767,2.056-9.105-1.705-11.933c-4.324-3.239-9.134-5.774-14.251-7.509c3.45-6.669,7.976-12.724,13.397-17.92
			c0.792-0.562,1.534-1.19,2.219-1.877c10.786-9.306,24.213-15.005,38.4-16.299c-1.024,5.19-1.764,10.431-2.219,15.701
			c-0.33,4.701,3.214,8.78,7.915,9.11c0.206,0.014,0.412,0.021,0.618,0.021c4.713,0,8.533-3.82,8.533-8.533
			c0.607-9.986,2.383-19.867,5.291-29.44c1.024-3.328,2.133-6.571,3.413-9.728l0.768-1.792c0.939-2.389,1.963-4.693,3.072-6.997
			c1.109-2.304,1.877-3.669,2.901-5.547l1.621-2.304c3.216-5.524,6.838-10.801,10.837-15.787
			c44.268-55.116,124.834-63.911,179.95-19.643c8.479,6.81,16.055,14.672,22.546,23.397c-13.282,1.013-26.239,4.607-38.144,10.581
			c-4.131,2.268-5.641,7.456-3.372,11.587c2.174,3.959,7.057,5.538,11.138,3.602c15.99-8.252,34.179-11.239,51.968-8.533l5.12,0.853
			c4.306,0.976,8.529,2.289,12.629,3.925l3.328,1.536c43.276,18.661,63.23,68.872,44.569,112.148
			c-10.147,23.532-30.333,41.258-54.979,48.279c-9.072,2.569-14.344,12.005-11.776,21.077c2.568,9.072,12.005,14.344,21.077,11.776
			C489.792,396.469,526.498,330.33,508.344,266.897z M131.191,215.455c-12.901,2.012-25.298,6.472-36.523,13.141
			c-21.429-52.337,3.626-112.136,55.963-133.565c36.41-14.908,78.142-7.637,107.365,18.707
			C200.452,122.236,151.972,161.125,131.191,215.455z"/>
	</g>
</g>
<g>
	<g>
		<path d="M330.914,229.066c-3.44-3.228-8.846-3.056-12.075,0.384c-3.365,3.558-6.473,7.351-9.301,11.349
			c-2.697,3.844-1.782,9.144,2.048,11.861c3.836,2.738,9.165,1.849,11.903-1.987c0.015-0.02,0.029-0.041,0.043-0.061
			c2.362-3.336,4.957-6.501,7.765-9.472C334.526,237.7,334.354,232.294,330.914,229.066z"/>
	</g>
</g>
<g>
	<g>
		<path d="M34.935,171.765h-25.6c-4.713,0-8.533,3.82-8.533,8.533s3.82,8.533,8.533,8.533h25.6c4.713,0,8.533-3.82,8.533-8.533
			S39.648,171.765,34.935,171.765z"/>
	</g>
</g>
<g>
	<g>
		<path d="M188.535,1.098c-4.713,0-8.533,3.82-8.533,8.533v25.6c0,4.713,3.82,8.533,8.533,8.533s8.533-3.82,8.533-8.533v-25.6
			C197.068,4.918,193.248,1.098,188.535,1.098z"/>
	</g>
</g>
<g>
	<g>
		<path d="M314.154,49.994c-3.195-2.736-7.906-2.736-11.101,0l-18.005,18.091c-3.3,3.364-3.248,8.767,0.116,12.067
			c1.545,1.516,3.608,2.388,5.772,2.439c2.268,0.013,4.448-0.877,6.059-2.475l18.091-18.091
			C318.15,58.446,317.733,53.059,314.154,49.994z"/>
	</g>
</g>
<g>
	<g>
		<path d="M86.135,74.058L67.874,55.967c-3.346-3.346-8.771-3.346-12.117,0c-3.346,3.346-3.346,8.771,0,12.117l18.176,18.347
			c3.417,3.37,8.918,3.331,12.288-0.085C89.59,82.929,89.552,77.428,86.135,74.058z"/>
	</g>
</g>
<g>
	<g>
		<path d="M150.135,464.117c-12.243-7.072-27.9-2.881-34.972,9.362c-0.005,0.008-0.01,0.016-0.014,0.025
			c-7.059,12.25-2.85,27.904,9.401,34.962c12.25,7.059,27.903,2.85,34.962-9.401C166.564,486.824,162.368,471.183,150.135,464.117z
			 M144.759,490.57L144.759,490.57c-2.327,4.098-7.536,5.534-11.634,3.207c-4.098-2.327-5.534-7.536-3.207-11.634
			c2.327-4.098,7.536-5.534,11.634-3.207c0.017,0.009,0.033,0.019,0.05,0.029C145.665,481.308,147.075,486.491,144.759,490.57z"/>
	</g>
</g>
<g>
	<g>
		<path d="M184.293,404.995c-0.008-0.005-0.016-0.009-0.025-0.014c-12.25-7.059-27.904-2.85-34.962,9.401s-2.85,27.904,9.401,34.962
			c12.241,7.053,27.881,2.857,34.948-9.376C200.727,427.725,196.536,412.067,184.293,404.995z M178.892,431.434
			c-2.334,4.094-7.545,5.521-11.64,3.187c-0.017-0.01-0.034-0.02-0.051-0.029c-4.078-2.362-5.469-7.583-3.106-11.661
			c2.362-4.078,7.583-5.469,11.661-3.106C179.815,422.175,181.215,427.36,178.892,431.434z"/>
	</g>
</g>
<g>
	<g>
		<path d="M218.426,345.859c-0.008-0.005-0.016-0.009-0.025-0.014c-12.243-7.072-27.9-2.881-34.972,9.362
			c-0.005,0.008-0.009,0.016-0.014,0.025c-7.069,12.253-2.867,27.917,9.387,34.987c12.253,7.069,27.917,2.867,34.987-9.387
			C234.861,368.589,230.669,352.931,218.426,345.859z M213.026,372.298c-2.359,4.08-7.578,5.476-11.659,3.117
			c-4.08-2.359-5.476-7.578-3.117-11.659c2.359-4.08,7.578-5.476,11.659-3.117c1.956,1.131,3.384,2.991,3.97,5.173
			C214.467,368.002,214.16,370.335,213.026,372.298z"/>
	</g>
</g>
<g>
	<g>
		<path d="M116.018,404.997c-12.244-7.069-27.901-2.874-34.97,9.37c-7.069,12.244-2.874,27.901,9.37,34.97
			c3.887,2.244,8.295,3.427,12.784,3.43c9.152,0.006,17.611-4.874,22.187-12.8C132.458,427.723,128.262,412.066,116.018,404.997z
			 M110.626,431.434c-2.334,4.094-7.545,5.521-11.64,3.187c-0.017-0.01-0.034-0.02-0.051-0.029
			c-4.063-2.343-5.473-7.527-3.157-11.605c2.333-4.1,7.548-5.533,11.648-3.2C111.526,422.119,112.959,427.334,110.626,431.434z"/>
	</g>
</g>
<g>
	<g>
		<path d="M150.096,345.855c-12.241-7.053-27.881-2.857-34.948,9.376c-7.072,12.243-2.881,27.9,9.362,34.972
			c0.008,0.005,0.016,0.009,0.025,0.014c12.25,7.059,27.903,2.85,34.962-9.401S162.347,352.913,150.096,345.855z M137.267,376.564
			c-4.713-0.019-8.518-3.854-8.499-8.567c0.006-1.486,0.4-2.945,1.143-4.233c1.077-2.075,2.959-3.618,5.205-4.267
			c0.736-0.097,1.482-0.097,2.219,0c4.713,0.019,8.518,3.854,8.499,8.567C145.816,372.778,141.98,376.583,137.267,376.564z"/>
	</g>
</g>
<g>
	<g>
		<path d="M252.552,404.997c-12.244-7.069-27.901-2.874-34.97,9.37c-7.069,12.244-2.874,27.901,9.37,34.97
			c3.887,2.244,8.295,3.427,12.784,3.43c9.152,0.006,17.611-4.874,22.187-12.8C268.991,427.723,264.796,412.066,252.552,404.997z
			 M247.159,431.434c-2.334,4.094-7.545,5.521-11.64,3.187c-0.017-0.01-0.034-0.02-0.051-0.029
			c-4.063-2.343-5.473-7.527-3.157-11.605c2.333-4.1,7.548-5.533,11.648-3.2C248.059,422.119,249.492,427.334,247.159,431.434z"/>
	</g>
</g>
<g>
	<g>
		<path d="M286.63,345.855c-12.241-7.053-27.881-2.857-34.948,9.376c-7.072,12.243-2.881,27.9,9.362,34.972
			c0.008,0.005,0.016,0.009,0.025,0.014c12.25,7.059,27.904,2.85,34.962-9.401C303.089,368.566,298.88,352.913,286.63,345.855z
			 M273.801,376.564c-4.713-0.019-8.518-3.854-8.499-8.567c0.006-1.486,0.4-2.945,1.143-4.233c1.077-2.075,2.959-3.618,5.205-4.267
			c0.736-0.097,1.482-0.097,2.219,0c4.713,0.019,8.518,3.854,8.499,8.567C282.349,372.778,278.514,376.583,273.801,376.564z"/>
	</g>
</g>
<g>
	<g>
		<path d="M286.668,464.117c-12.243-7.072-27.9-2.881-34.972,9.362c-0.005,0.008-0.009,0.016-0.014,0.025
			c-7.059,12.25-2.85,27.904,9.401,34.962c12.25,7.059,27.904,2.85,34.962-9.401C303.098,486.824,298.901,471.183,286.668,464.117z
			 M281.292,490.57L281.292,490.57c-2.524,3.98-7.797,5.16-11.777,2.636c-3.98-2.524-5.16-7.797-2.636-11.777
			c2.524-3.98,7.797-5.16,11.776-2.636c1.896,1.202,3.242,3.103,3.745,5.291C282.914,486.308,282.514,488.643,281.292,490.57z"/>
	</g>
</g>
<g>
	<g>
		<path d="M320.826,404.995c-0.008-0.005-0.016-0.009-0.025-0.014c-12.25-7.059-27.904-2.85-34.962,9.401s-2.85,27.904,9.401,34.962
			c12.241,7.053,27.881,2.857,34.948-9.376C337.261,427.725,333.069,412.067,320.826,404.995z M315.501,431.296
			c-0.025,0.046-0.05,0.092-0.076,0.138c-1.13,1.978-3.004,3.422-5.205,4.011c-4.509,1.371-9.276-1.173-10.647-5.682
			c-0.038-0.125-0.073-0.251-0.105-0.377c-0.588-2.189-0.281-4.523,0.853-6.485c1.53-2.651,4.363-4.279,7.424-4.267
			c1.495-0.01,2.966,0.372,4.267,1.109C316.166,421.97,317.728,427.142,315.501,431.296z"/>
	</g>
</g>
<g>
	<g>
		<path d="M354.935,345.845c-12.253-7.069-27.917-2.867-34.987,9.387s-2.867,27.917,9.387,34.987
			c12.253,7.069,27.917,2.867,34.987-9.387C371.391,368.578,367.189,352.914,354.935,345.845z M349.559,372.298
			c-2.359,4.08-7.578,5.476-11.659,3.117c-4.08-2.359-5.476-7.578-3.117-11.659c2.359-4.08,7.578-5.476,11.659-3.117
			c1.956,1.131,3.384,2.991,3.97,5.173C351.001,368.002,350.694,370.335,349.559,372.298z"/>
	</g>
</g>
<g>
	<g>
		<path d="M389.093,404.995c-0.008-0.005-0.016-0.009-0.025-0.014c-12.25-7.059-27.904-2.85-34.962,9.401s-2.85,27.904,9.401,34.962
			c12.241,7.053,27.881,2.857,34.948-9.376C405.527,427.725,401.336,412.067,389.093,404.995z M383.692,431.434
			c-2.334,4.094-7.545,5.521-11.64,3.187c-0.017-0.01-0.034-0.02-0.051-0.029c-4.063-2.343-5.473-7.527-3.157-11.605
			c2.333-4.1,7.548-5.533,11.648-3.2C384.593,422.119,386.025,427.334,383.692,431.434z"/>
	</g>
</g>
<g>
</g>
<g>
</g>
<g>
</g>
<g>
</g>
<g>
</g>
<g>
</g>
<g>
</g>
<g>
</g>
<g>
</g>
<g>
</g>
<g>
</g>
<g>
</g>
<g>
</g>
<g>
</g>
<g>
</g>
</svg>
