<?xml version="1.0" encoding="iso-8859-1"?>
<!-- Generator: Adobe Illustrator 19.0.0, SVG Export Plug-In . SVG Version: 6.00 Build 0)  -->
<svg version="1.1" id="Layer_1" xmlns="http://www.w3.org/2000/svg" xmlns:xlink="http://www.w3.org/1999/xlink" x="0px" y="0px"
	 viewBox="0 0 512.006 512.006" style="enable-background:new 0 0 512.006 512.006;" xml:space="preserve">
<g>
	<g>
		<path d="M149.155,438.003c-12.243-7.072-27.9-2.881-34.972,9.362c-0.005,0.008-0.01,0.016-0.014,0.025
			c-7.059,12.25-2.85,27.904,9.401,34.962c12.25,7.059,27.904,2.85,34.962-9.401C165.584,460.71,161.388,445.069,149.155,438.003z
			 M143.779,464.456L143.779,464.456c-2.524,3.98-7.797,5.16-11.776,2.636c-3.98-2.524-5.16-7.797-2.636-11.777
			s7.797-5.16,11.777-2.636c1.896,1.202,3.242,3.103,3.745,5.291C145.4,460.194,145.001,462.529,143.779,464.456z"/>
	</g>
</g>
<g>
	<g>
		<path d="M183.313,378.881c-0.008-0.005-0.016-0.009-0.025-0.014c-12.25-7.059-27.904-2.85-34.962,9.401s-2.85,27.904,9.401,34.962
			c12.241,7.053,27.881,2.857,34.948-9.376C199.747,401.611,195.556,385.953,183.313,378.881z M177.926,405.296
			c-0.005,0.008-0.009,0.016-0.014,0.024c-2.528,3.977-7.802,5.152-11.779,2.623c-3.742-2.379-5.039-7.228-2.983-11.157
			c1.53-2.651,4.363-4.279,7.424-4.267c1.495-0.01,2.966,0.372,4.267,1.109C178.914,395.999,180.296,401.222,177.926,405.296z"/>
	</g>
</g>
<g>
	<g>
		<path d="M217.422,319.731c-12.253-7.069-27.917-2.867-34.987,9.387c-7.069,12.253-2.867,27.917,9.387,34.987
			c12.253,7.069,27.917,2.867,34.987-9.387C233.878,342.464,229.675,326.8,217.422,319.731z M212.254,345.827
			c-0.066,0.121-0.136,0.24-0.208,0.357c-1.13,1.978-3.004,3.422-5.205,4.011c-4.556,1.206-9.227-1.51-10.433-6.066
			c-0.58-2.19-0.265-4.521,0.875-6.478c1.058-2.057,2.906-3.597,5.12-4.267c2.189-0.588,4.523-0.281,6.485,0.853
			C213.018,336.508,214.525,341.697,212.254,345.827z"/>
	</g>
</g>
<g>
	<g>
		<path d="M114.996,378.895c-12.253-7.054-27.904-2.84-34.959,9.413s-2.84,27.904,9.413,34.959
			c5.884,3.388,12.872,4.299,19.428,2.534c6.556-1.765,12.143-6.062,15.531-11.947C131.463,401.601,127.249,385.949,114.996,378.895
			z M109.675,405.269c-0.01,0.017-0.019,0.034-0.029,0.051c-2.362,4.078-7.583,5.469-11.661,3.106
			c-4.078-2.362-5.469-7.583-3.106-11.661c2.351-4.058,7.536-5.458,11.61-3.136C110.583,395.964,112.009,401.175,109.675,405.269z"
			/>
	</g>
</g>
<g>
	<g>
		<path d="M149.116,319.741c-12.241-7.053-27.881-2.857-34.948,9.376c-7.072,12.243-2.881,27.9,9.362,34.972
			c0.008,0.005,0.016,0.009,0.025,0.014c12.25,7.059,27.904,2.85,34.962-9.401S161.367,326.8,149.116,319.741z M143.699,346.206
			c-2.351,4.058-7.536,5.458-11.61,3.136c-4.094-2.334-5.521-7.545-3.187-11.64c0.01-0.017,0.019-0.034,0.029-0.051
			c2.362-4.078,7.583-5.469,11.661-3.106C144.67,336.907,146.061,342.128,143.699,346.206z"/>
	</g>
</g>
<g>
	<g>
		<path d="M251.529,378.895c-12.253-7.054-27.904-2.84-34.959,9.413c-7.054,12.253-2.84,27.904,9.413,34.959
			c5.884,3.388,12.872,4.299,19.428,2.534c6.556-1.765,12.143-6.062,15.531-11.947C267.996,401.601,263.782,385.949,251.529,378.895
			z M246.208,405.269c-0.01,0.017-0.019,0.034-0.029,0.051c-2.362,4.078-7.583,5.469-11.661,3.106
			c-4.078-2.362-5.469-7.583-3.106-11.661c2.351-4.058,7.536-5.458,11.61-3.136C247.116,395.964,248.543,401.175,246.208,405.269z"
			/>
	</g>
</g>
<g>
	<g>
		<path d="M285.65,319.741c-12.241-7.053-27.881-2.857-34.948,9.376c-7.072,12.243-2.881,27.9,9.362,34.972
			c0.008,0.005,0.016,0.009,0.025,0.014c12.25,7.059,27.904,2.85,34.962-9.401C302.109,342.453,297.9,326.8,285.65,319.741z
			 M275.425,350.36c-0.106,0.032-0.212,0.063-0.318,0.091c-4.51,1.368-9.275-1.179-10.643-5.688c-0.729-2.402-0.363-5.004,1-7.112
			c2.365-4.076,7.587-5.463,11.664-3.097c1.944,1.128,3.364,2.977,3.952,5.146C282.463,344.204,279.931,348.977,275.425,350.36z"/>
	</g>
</g>
<g>
	<g>
		<path d="M285.688,438.003c-12.243-7.072-27.9-2.881-34.972,9.362c-0.005,0.008-0.009,0.016-0.014,0.025
			c-7.059,12.25-2.85,27.904,9.401,34.962c12.25,7.059,27.904,2.85,34.962-9.401C302.118,460.71,297.921,445.069,285.688,438.003z
			 M280.312,464.456L280.312,464.456c-2.524,3.98-7.797,5.16-11.777,2.636c-3.98-2.524-5.16-7.797-2.636-11.777
			c2.524-3.98,7.797-5.16,11.776-2.636c1.896,1.202,3.242,3.103,3.745,5.291C281.934,460.194,281.534,462.529,280.312,464.456z"/>
	</g>
</g>
<g>
	<g>
		<path d="M319.846,378.881c-0.008-0.005-0.016-0.009-0.025-0.014c-12.25-7.059-27.904-2.85-34.962,9.401s-2.85,27.904,9.401,34.962
			c12.241,7.053,27.881,2.857,34.948-9.376C336.281,401.611,332.089,385.953,319.846,378.881z M314.46,405.296
			c-0.005,0.008-0.009,0.016-0.014,0.024c-2.185,4.176-7.341,5.79-11.517,3.606s-5.79-7.341-3.606-11.517
			c0.111-0.213,0.231-0.42,0.36-0.623c1.53-2.651,4.363-4.279,7.424-4.267c1.495-0.01,2.966,0.372,4.267,1.109
			C315.448,395.999,316.829,401.222,314.46,405.296z"/>
	</g>
</g>
<g>
	<g>
		<path d="M353.955,319.731c-12.253-7.069-27.917-2.867-34.987,9.387s-2.867,27.917,9.387,34.987
			c12.253,7.069,27.917,2.867,34.987-9.387C370.411,342.464,366.208,326.8,353.955,319.731z M348.787,345.827
			c-0.066,0.121-0.136,0.24-0.208,0.357c-2.559,3.957-7.842,5.091-11.799,2.531c-3.957-2.559-5.091-7.842-2.531-11.799
			c1.096-1.695,2.757-2.946,4.688-3.532c2.189-0.588,4.523-0.281,6.485,0.853C349.551,336.508,351.058,341.697,348.787,345.827z"/>
	</g>
</g>
<g>
	<g>
		<path d="M388.113,378.881c-0.008-0.005-0.016-0.009-0.025-0.014c-12.25-7.059-27.904-2.85-34.962,9.401s-2.85,27.904,9.401,34.962
			c12.241,7.053,27.881,2.857,34.948-9.376C404.547,401.611,400.356,385.953,388.113,378.881z M382.742,405.269
			c-0.01,0.017-0.019,0.034-0.029,0.051c-2.362,4.078-7.583,5.469-11.661,3.106c-4.078-2.362-5.469-7.583-3.106-11.661
			c2.351-4.058,7.536-5.458,11.61-3.136C383.649,395.964,385.076,401.175,382.742,405.269z"/>
	</g>
</g>
<g>
	<g>
		<path d="M507.364,240.783c-12.401-43.329-48.13-75.993-92.396-84.466c-50.698-73.809-151.632-92.544-225.441-41.845
			c-10.062,6.912-19.312,14.938-27.573,23.925v-1.28c0.029-30.091,13.293-58.646,36.267-78.08
			c7.189-6.096,8.074-16.866,1.978-24.055c-2.428-2.863-5.733-4.846-9.402-5.641C117.094,13.412,44.432,60.247,28.503,133.951
			c-2.043,9.453-3.076,19.096-3.081,28.767c0.057,28.369,9.011,56.006,25.6,79.019c-36.477,9.533-58.32,46.832-48.787,83.31
			c7.834,29.975,34.871,50.916,65.853,51.005c9.426,0,17.067-7.641,17.067-17.067s-7.641-17.067-17.067-17.067
			c-18.851,0.259-34.343-14.813-34.603-33.664s14.813-34.343,33.664-34.603c5.557-0.579,11.171-0.291,16.64,0.853
			c50.712,35.698,119.15,32.575,166.4-7.595c7.189-6.096,8.074-16.866,1.978-24.055c-2.428-2.863-5.733-4.846-9.402-5.641
			c-31.041-6.782-57.176-27.588-70.741-56.32c0.797-0.809,1.512-1.695,2.133-2.645c38.688-59.166,118.015-75.768,177.181-37.08
			c12.528,8.192,23.523,18.518,32.483,30.509c-13.282,1.013-26.239,4.607-38.144,10.581c-4.131,2.268-5.641,7.456-3.372,11.587
			c2.174,3.959,7.057,5.538,11.138,3.602c15.965-8.234,34.121-11.221,51.883-8.533c6.162,0.955,12.201,2.586,18.005,4.864
			l3.157,1.451c43.276,18.661,63.23,68.872,44.569,112.148c-10.147,23.532-30.333,41.258-54.979,48.279
			c-9.072,2.569-14.344,12.005-11.776,21.077c2.568,9.072,12.005,14.344,21.077,11.776
			C488.812,370.355,525.518,304.216,507.364,240.783z M188.34,250.397c3.879,2.608,7.89,5.015,12.015,7.211
			c-52.376,21.332-112.129-3.834-133.461-56.21c-21.332-52.376,3.834-112.129,56.21-133.461c8.986-3.66,18.447-6.024,28.099-7.022
			C109.134,123.494,125.761,208.328,188.34,250.397z"/>
	</g>
</g>
<g>
	<g>
		<path d="M330.842,202.97c-3.185-3.474-8.582-3.709-12.057-0.524c-0.301,0.276-0.582,0.574-0.841,0.89
			c-3.368,3.556-6.476,7.349-9.301,11.349c-2.434,4.036-1.135,9.28,2.901,11.714c3.632,2.19,8.321,1.38,11.008-1.901
			c2.36-3.338,4.955-6.503,7.765-9.472C333.792,211.842,334.027,206.444,330.842,202.97z"/>
	</g>
</g>
<g>
</g>
<g>
</g>
<g>
</g>
<g>
</g>
<g>
</g>
<g>
</g>
<g>
</g>
<g>
</g>
<g>
</g>
<g>
</g>
<g>
</g>
<g>
</g>
<g>
</g>
<g>
</g>
<g>
</g>
</svg>
