<?xml version="1.0" encoding="iso-8859-1"?>
<!-- Generator: Adobe Illustrator 19.0.0, SVG Export Plug-In . SVG Version: 6.00 Build 0)  -->
<svg version="1.1" id="Layer_1" xmlns="http://www.w3.org/2000/svg" xmlns:xlink="http://www.w3.org/1999/xlink" x="0px" y="0px"
	 viewBox="0 0 511.982 511.982" style="enable-background:new 0 0 511.982 511.982;" xml:space="preserve">
<g>
	<g>
		<path d="M108.635,394.182c-0.008-0.005-0.016-0.009-0.024-0.014c-4.078-2.362-9.299-0.972-11.661,3.106
			c-0.01,0.017-0.02,0.034-0.029,0.051l-14.763,25.6c-2.185,4.176-0.57,9.332,3.606,11.517c3.929,2.055,8.778,0.759,11.157-2.983
			l14.763-25.6C114.066,401.793,112.702,396.565,108.635,394.182z"/>
	</g>
</g>
<g>
	<g>
		<path d="M260.273,378.907c-0.008-0.005-0.016-0.009-0.024-0.014c-4.078-2.362-9.299-0.972-11.661,3.106
			c-0.01,0.017-0.02,0.034-0.029,0.051l-38.4,66.475c-2.185,4.176-0.57,9.332,3.606,11.517c3.929,2.055,8.778,0.759,11.157-2.983
			l38.4-66.475C265.704,386.518,264.339,381.29,260.273,378.907z"/>
	</g>
</g>
<g>
	<g>
		<path d="M401.073,360.049c-0.008-0.005-0.016-0.009-0.024-0.014c-4.078-2.362-9.299-0.972-11.661,3.106
			c-0.01,0.017-0.02,0.034-0.029,0.051l-14.763,25.6c-2.185,4.176-0.57,9.332,3.606,11.517c3.929,2.055,8.778,0.759,11.157-2.983
			l14.763-25.6C406.504,367.659,405.139,362.431,401.073,360.049z"/>
	</g>
</g>
<g>
	<g>
		<path d="M371.889,411.249c-0.008-0.005-0.016-0.009-0.024-0.014c-4.078-2.362-9.299-0.972-11.661,3.106
			c-0.01,0.017-0.02,0.034-0.029,0.051l-4.949,8.533c-2.528,3.977-1.354,9.251,2.623,11.779c3.977,2.528,9.251,1.354,11.779-2.623
			c0.129-0.202,0.249-0.41,0.36-0.623l4.949-8.533C377.32,418.859,375.955,413.631,371.889,411.249z"/>
	</g>
</g>
<g>
	<g>
		<path d="M415.129,88.077C364.435,14.265,263.503-4.476,189.691,46.218c-26.845,18.437-47.516,44.531-59.319,74.883
			c-31.462,4.614-59.025,23.514-74.667,51.2c-37.058,6.944-61.469,42.615-54.525,79.673s42.615,61.469,79.673,54.525
			c1.498-0.281,2.987-0.612,4.463-0.992c15.704,11.382,34.318,18.07,53.675,19.285l-18.432,31.829
			c-2.184,4.176-0.57,9.332,3.606,11.517c3.929,2.055,8.778,0.759,11.157-2.983l23.808-41.216
			c11.013-1.491,21.708-4.778,31.659-9.728c6.476,4.411,13.264,8.347,20.309,11.776c-11.025-2.911-22.646,1.821-28.501,11.605
			c-7.041,12.261-2.809,27.908,9.451,34.948s27.908,2.809,34.948-9.451c3.367-5.863,4.278-12.82,2.534-19.353
			c-1.663-5.999-5.455-11.187-10.667-14.592c16.832,7.252,34.786,11.553,53.077,12.715l-7.424,12.8
			c-2.184,4.176-0.57,9.332,3.606,11.517c3.929,2.055,8.778,0.759,11.157-2.983l12.373-21.333
			c9.322-0.617,18.573-2.045,27.648-4.267c-7.205,12.165-3.185,27.867,8.98,35.072s27.867,3.185,35.073-8.98
			c7.205-12.165,3.185-27.867-8.98-35.073c-1.435-0.85-2.95-1.558-4.523-2.113c3.84-1.792,7.595-3.669,11.349-5.803
			c16.678,4.597,34.176,5.384,51.2,2.304l-8.533,14.677c-2.185,4.176-0.57,9.332,3.606,11.517c3.929,2.055,8.778,0.759,11.157-2.983
			l17.067-29.867c45.857-17.775,76.135-61.837,76.288-111.019C511.954,148.087,471.332,98.912,415.129,88.077z M212.566,354.036
			c-0.111,0.212-0.231,0.42-0.36,0.622c-1.13,1.978-3.004,3.422-5.205,4.011c-4.556,1.206-9.227-1.51-10.433-6.066
			c-0.58-2.19-0.265-4.521,0.875-6.478c2.185-4.176,7.341-5.79,11.517-3.606C213.136,344.704,214.751,349.86,212.566,354.036z
			 M348.74,354.659L348.74,354.659c-2.359,4.08-7.578,5.476-11.659,3.117c-4.08-2.359-5.475-7.578-3.117-11.659
			s7.578-5.476,11.659-3.117c1.956,1.131,3.384,2.991,3.97,5.173C350.181,350.363,349.874,352.696,348.74,354.659z M472.286,237.949
			c-13.326,32.215-44.909,53.084-79.77,52.71c-5.271-0.016-10.528-0.53-15.701-1.536c9.369-8.155,17.657-17.475,24.661-27.733
			c2.615-3.921,1.557-9.219-2.364-11.834c-3.853-2.57-9.053-1.598-11.716,2.192c-9.94,14.405-22.717,26.63-37.547,35.925
			c-2.987,1.877-6.059,3.584-9.131,5.205c-44.521,23.388-98.645,18.337-138.069-12.885c-5.776-4.56-13.824-4.904-19.968-0.853
			c-13.842,9.253-30.643,12.996-47.104,10.496h-1.621c-2.885-0.499-5.736-1.183-8.533-2.048l-2.219-0.768
			c-2.682-0.917-5.304-2-7.851-3.243l-2.389-1.451c-1.963-1.024-3.755-2.133-5.632-3.328l-2.475-1.707
			c-11.157-8.087-19.606-19.362-24.235-32.341c-1.579-4.454-6.469-6.784-10.923-5.205s-6.784,6.469-5.205,10.923
			c2.768,7.772,6.648,15.102,11.52,21.76c-2.527,0.754-5.133,1.212-7.765,1.365c-18.851,0.259-34.343-14.813-34.603-33.664
			s14.813-34.344,33.664-34.603h0.939c7.385,0,14.572,2.395,20.48,6.827c3.77,2.828,9.119,2.064,11.947-1.707
			s2.064-9.119-1.707-11.947c-4.324-3.239-9.134-5.774-14.251-7.509c10.733-20.467,31.091-34.115,54.101-36.267
			c-1.062,5.273-1.831,10.6-2.304,15.957c-0.283,4.704,3.302,8.747,8.006,9.03c0.176,0.011,0.351,0.016,0.527,0.015
			c4.52,0.008,8.262-3.51,8.533-8.021c0.607-9.986,2.383-19.867,5.291-29.44c1.024-3.328,2.133-6.485,3.413-9.643l0.768-1.877
			c0.939-2.304,1.963-4.693,3.072-6.912c1.109-2.219,1.877-3.669,2.816-5.461l1.707-2.901c3.216-5.524,6.838-10.801,10.837-15.787
			c44.268-55.116,124.834-63.911,179.95-19.643c8.479,6.81,16.055,14.672,22.546,23.397c-13.282,1.013-26.239,4.607-38.144,10.581
			c-4.131,2.268-5.641,7.456-3.372,11.587c2.174,3.959,7.057,5.538,11.138,3.602c15.99-8.252,34.179-11.239,51.968-8.533
			c6.161,0.959,12.199,2.59,18.005,4.864l2.475,0.939C469.601,144.492,490.301,194.4,472.286,237.949z"/>
	</g>
</g>
<g>
	<g>
		<path d="M157.508,211.811c-1.307-5.28-2.276-10.639-2.901-16.043c-0.589-4.713-4.887-8.056-9.6-7.467
			c-4.713,0.589-8.056,4.887-7.467,9.6c0.748,6.125,1.888,12.197,3.413,18.176c1.178,4.571,5.839,7.322,10.411,6.144
			S158.686,216.382,157.508,211.811z"/>
	</g>
</g>
<g>
	<g>
		<path d="M330.137,134.669c-3.44-3.252-8.865-3.099-12.117,0.341c-3.373,3.582-6.481,7.403-9.301,11.435
			c-2.71,3.865-1.774,9.194,2.091,11.904c3.865,2.71,9.194,1.774,11.904-2.091c2.358-3.339,4.953-6.505,7.765-9.472
			C333.73,143.346,333.577,137.921,330.137,134.669z"/>
	</g>
</g>
<g>
	<g>
		<path d="M136.355,443.064c-3.034,0.009-6.043,0.558-8.885,1.621c-13.218,5.017-19.867,19.799-14.85,33.018
			c0.001,0.002,0.001,0.004,0.002,0.006c3.755,9.943,13.264,16.532,23.893,16.555c14.138-0.044,25.564-11.542,25.52-25.68
			C161.991,454.446,150.494,443.02,136.355,443.064z M144.537,472.077c-1.791,4.359-6.777,6.441-11.136,4.651
			c-4.359-1.791-6.441-6.777-4.651-11.136c1.791-4.359,6.777-6.441,11.136-4.651c2.109,0.867,3.784,2.541,4.651,4.651
			c0.796,2.136,0.704,4.503-0.256,6.571L144.537,472.077z"/>
	</g>
</g>
<g>
	<g>
		<path d="M183.473,387.356c-0.008-0.005-0.016-0.009-0.025-0.014c-12.25-7.059-27.904-2.85-34.962,9.401s-2.85,27.904,9.401,34.962
			c12.241,7.053,27.881,2.857,34.948-9.376C199.908,410.085,195.716,394.428,183.473,387.356z M178.087,413.771
			c-0.005,0.008-0.009,0.016-0.014,0.024c-2.528,3.977-7.802,5.152-11.779,2.623c-3.742-2.379-5.039-7.228-2.983-11.157
			c1.53-2.651,4.363-4.279,7.424-4.267c1.495-0.01,2.966,0.372,4.267,1.109C179.075,404.474,180.456,409.697,178.087,413.771z"/>
	</g>
</g>
<g>
	<g>
		<path d="M81.049,328.205c-12.253-7.069-27.917-2.867-34.987,9.387c-7.069,12.253-2.867,27.917,9.387,34.987
			c12.253,7.069,27.917,2.867,34.987-9.387C97.505,350.939,93.302,335.275,81.049,328.205z M75.673,354.659
			c-1.13,1.978-3.004,3.422-5.205,4.011c-4.548,1.234-9.236-1.452-10.471-6c-1.234-4.548,1.452-9.236,6-10.471
			c2.2-0.597,4.547-0.289,6.518,0.855C76.579,345.397,77.989,350.58,75.673,354.659z"/>
	</g>
</g>
<g>
	<g>
		<path d="M320.007,387.356c-0.008-0.005-0.016-0.009-0.025-0.014c-12.25-7.059-27.904-2.85-34.962,9.401
			c-7.059,12.25-2.85,27.904,9.401,34.962c12.241,7.053,27.881,2.857,34.948-9.376C336.441,410.085,332.249,394.428,320.007,387.356
			z M314.62,413.771c-0.005,0.008-0.009,0.016-0.014,0.024c-2.185,4.176-7.341,5.79-11.517,3.606s-5.79-7.341-3.606-11.517
			c0.111-0.213,0.231-0.42,0.36-0.623c1.53-2.651,4.363-4.279,7.424-4.267c1.495-0.01,2.966,0.372,4.267,1.109
			C315.608,404.474,316.99,409.697,314.62,413.771z"/>
	</g>
</g>
<g>
</g>
<g>
</g>
<g>
</g>
<g>
</g>
<g>
</g>
<g>
</g>
<g>
</g>
<g>
</g>
<g>
</g>
<g>
</g>
<g>
</g>
<g>
</g>
<g>
</g>
<g>
</g>
<g>
</g>
</svg>
