<?xml version="1.0" encoding="iso-8859-1"?>
<!-- Generator: Adobe Illustrator 19.0.0, SVG Export Plug-In . SVG Version: 6.00 Build 0)  -->
<svg version="1.1" id="Layer_1" xmlns="http://www.w3.org/2000/svg" xmlns:xlink="http://www.w3.org/1999/xlink" x="0px" y="0px"
	 viewBox="0 0 512.138 512.138" style="enable-background:new 0 0 512.138 512.138;" xml:space="preserve">
<g>
	<g>
		<path d="M415.147,182.023c-26.132-38.439-67.606-63.703-113.749-69.291c-42.059-62.586-126.89-79.227-189.476-37.168
			c-57.355,38.544-76.87,113.863-45.446,175.408c-4.046,4.75-7.645,9.864-10.752,15.275c-37.046,7.006-61.398,42.717-54.392,79.763
			s42.717,61.398,79.763,54.392c4.977-0.941,9.833-2.433,14.48-4.449c8.823-3.315,13.289-13.156,9.973-21.979
			c-3.315-8.823-13.156-13.289-21.979-9.973c-0.561,0.211-1.111,0.451-1.648,0.72c-4.303,1.897-8.951,2.885-13.653,2.901
			c-18.851,0.259-34.343-14.813-34.603-33.664s14.813-34.343,33.664-34.603h0.939c7.385,0,14.572,2.395,20.48,6.827
			c3.774,2.823,9.121,2.053,11.945-1.72c2.819-3.767,2.056-9.105-1.705-11.933c-4.324-3.239-9.134-5.774-14.251-7.509
			c3.45-6.669,7.976-12.724,13.397-17.92c0.792-0.562,1.534-1.19,2.219-1.877c10.786-9.306,24.213-15.005,38.4-16.299
			c-1.024,5.19-1.764,10.431-2.219,15.701c-0.33,4.701,3.214,8.78,7.915,9.11c0.206,0.014,0.412,0.021,0.618,0.021
			c4.713,0,8.533-3.82,8.533-8.533c0.607-9.986,2.383-19.867,5.291-29.44c1.024-3.328,2.133-6.571,3.413-9.728l0.768-1.792
			c0.939-2.389,1.963-4.693,3.072-6.997c1.109-2.304,1.877-3.669,2.901-5.547l1.621-2.304c3.216-5.524,6.838-10.801,10.837-15.787
			c44.268-55.116,124.834-63.911,179.95-19.643c8.479,6.81,16.055,14.672,22.546,23.397c-13.282,1.013-26.239,4.607-38.144,10.581
			c-4.131,2.268-5.641,7.456-3.372,11.587c2.174,3.959,7.057,5.538,11.138,3.602c15.99-8.252,34.179-11.239,51.968-8.533l5.12,0.853
			c4.306,0.977,8.528,2.289,12.629,3.925l3.328,1.536c43.312,18.579,63.362,68.751,44.783,112.063
			c-13.524,31.527-44.612,51.89-78.916,51.692c-9.426,0-17.067,7.641-17.067,17.067c0,9.426,7.641,17.067,17.067,17.067
			c65.98,0.076,119.528-53.349,119.604-119.329C512.204,242.13,471.487,192.816,415.147,182.023z M130.389,215.048
			c-12.901,2.012-25.298,6.472-36.523,13.141c-21.429-52.337,3.626-112.136,55.963-133.565
			c36.41-14.908,78.142-7.637,107.365,18.707C199.65,121.829,151.17,160.717,130.389,215.048z"/>
	</g>
</g>
<g>
	<g>
		<path d="M330.112,228.658c-3.44-3.228-8.846-3.056-12.075,0.384c-3.365,3.558-6.473,7.351-9.301,11.349
			c-2.697,3.844-1.782,9.144,2.048,11.861c3.836,2.738,9.165,1.849,11.903-1.987c0.015-0.02,0.029-0.041,0.043-0.061
			c2.362-3.336,4.957-6.501,7.765-9.472C333.724,237.292,333.552,231.886,330.112,228.658z"/>
	</g>
</g>
<g>
	<g>
		<path d="M34.133,171.357h-25.6c-4.713,0-8.533,3.82-8.533,8.533s3.82,8.533,8.533,8.533h25.6c4.713,0,8.533-3.82,8.533-8.533
			S38.846,171.357,34.133,171.357z"/>
	</g>
</g>
<g>
	<g>
		<path d="M187.733,0.69c-4.713,0-8.533,3.82-8.533,8.533v25.6c0,4.713,3.82,8.533,8.533,8.533s8.533-3.82,8.533-8.533v-25.6
			C196.267,4.511,192.446,0.69,187.733,0.69z"/>
	</g>
</g>
<g>
	<g>
		<path d="M313.352,49.586c-3.195-2.736-7.906-2.736-11.101,0l-18.005,18.091c-3.3,3.364-3.248,8.767,0.116,12.067
			c1.545,1.516,3.608,2.388,5.772,2.439c2.268,0.013,4.448-0.877,6.059-2.475l18.091-18.091
			C317.348,58.039,316.931,52.652,313.352,49.586z"/>
	</g>
</g>
<g>
	<g>
		<path d="M85.333,73.65L67.072,55.559c-3.346-3.346-8.771-3.346-12.117,0c-3.346,3.346-3.346,8.771,0,12.117l18.176,18.347
			c3.417,3.37,8.918,3.331,12.288-0.085C88.788,82.521,88.75,77.02,85.333,73.65z"/>
	</g>
</g>
<g>
	<g>
		<path d="M150.977,338.777c-3.977-2.528-9.251-1.354-11.779,2.623c-0.129,0.202-0.249,0.41-0.36,0.623l-18.432,32
			c-2.168,4.185-0.533,9.334,3.652,11.502c1.218,0.631,2.571,0.959,3.943,0.956c3.061,0.012,5.894-1.616,7.424-4.267l18.176-31.659
			C156.128,346.58,154.954,341.306,150.977,338.777z"/>
	</g>
</g>
<g>
	<g>
		<path d="M108.653,411.413c-0.008-0.005-0.016-0.009-0.024-0.014c-4.078-2.362-9.299-0.972-11.661,3.106
			c-0.01,0.017-0.02,0.034-0.029,0.051l-14.763,25.6c-2.185,4.176-0.57,9.332,3.606,11.517c3.929,2.055,8.778,0.759,11.157-2.983
			l14.763-25.6C114.084,419.024,112.719,413.796,108.653,411.413z"/>
	</g>
</g>
<g>
	<g>
		<path d="M294.479,337.034c-0.026-0.015-0.053-0.03-0.079-0.045c-4.078-2.362-9.299-0.972-11.661,3.106
			c-0.01,0.017-0.02,0.034-0.029,0.051l-18.176,31.744c-2.184,4.176-0.57,9.332,3.606,11.517c3.929,2.055,8.778,0.759,11.157-2.983
			l18.347-31.744C299.985,344.59,298.569,339.376,294.479,337.034z"/>
	</g>
</g>
<g>
	<g>
		<path d="M260.291,396.139c-0.008-0.005-0.016-0.009-0.024-0.014c-4.078-2.362-9.299-0.972-11.661,3.106
			c-0.01,0.017-0.02,0.034-0.029,0.051l-38.4,66.475c-2.185,4.176-0.57,9.332,3.606,11.517c3.929,2.055,8.778,0.759,11.157-2.983
			l38.4-66.475C265.721,403.749,264.357,398.522,260.291,396.139z"/>
	</g>
</g>
<g>
	<g>
		<path d="M384.024,428.48c-0.008-0.005-0.016-0.009-0.024-0.014c-4.078-2.362-9.299-0.972-11.661,3.106
			c-0.01,0.017-0.02,0.034-0.029,0.051l-14.763,25.6c-2.185,4.176-0.57,9.332,3.606,11.517c3.929,2.055,8.778,0.759,11.157-2.983
			l14.763-25.6C389.455,436.091,388.09,430.863,384.024,428.48z"/>
	</g>
</g>
<g>
	<g>
		<path d="M160.411,476.741c-2.405-6.324-7.216-11.439-13.381-14.226c-6.203-2.8-13.265-3.015-19.627-0.597
			c-13.218,5.017-19.867,19.8-14.85,33.018c0.001,0.002,0.002,0.004,0.002,0.006c5.026,13.215,19.813,19.854,33.028,14.828
			C158.798,504.743,165.436,489.956,160.411,476.741z M144.299,489.394c-0.924,2.086-2.645,3.714-4.779,4.523
			c-4.417,1.643-9.33-0.606-10.973-5.023s0.606-9.33,5.024-10.973c2.098-0.78,4.418-0.705,6.461,0.21
			C144.314,480.069,146.221,485.105,144.299,489.394z"/>
	</g>
</g>
<g>
	<g>
		<path d="M183.491,404.587c-0.008-0.005-0.016-0.009-0.025-0.014c-12.25-7.059-27.904-2.85-34.962,9.401s-2.85,27.904,9.401,34.962
			c12.241,7.053,27.881,2.857,34.948-9.376C199.925,427.317,195.734,411.659,183.491,404.587z M178.12,430.975
			c-0.01,0.017-0.019,0.034-0.029,0.051c-2.362,4.078-7.583,5.469-11.661,3.106c-4.078-2.362-5.469-7.583-3.106-11.661
			c2.351-4.058,7.536-5.458,11.61-3.136C179.028,421.67,180.454,426.881,178.12,430.975z"/>
	</g>
</g>
<g>
	<g>
		<path d="M217.625,345.451c-0.008-0.005-0.016-0.009-0.025-0.014c-12.243-7.072-27.9-2.881-34.972,9.362
			c-0.005,0.008-0.009,0.016-0.014,0.025c-7.069,12.253-2.867,27.917,9.387,34.987c12.253,7.069,27.917,2.867,34.987-9.387
			C234.059,368.181,229.867,352.523,217.625,345.451z M212.224,371.89c-2.359,4.08-7.578,5.476-11.659,3.117
			c-4.08-2.359-5.476-7.578-3.117-11.659c2.359-4.08,7.578-5.476,11.659-3.117c1.956,1.131,3.384,2.991,3.97,5.173
			C213.666,367.594,213.359,369.928,212.224,371.89z"/>
	</g>
</g>
<g>
	<g>
		<path d="M58.88,437.768c-1.765-6.556-6.062-12.143-11.947-15.531c-12.253-7.054-27.904-2.84-34.959,9.413
			c-7.054,12.253-2.84,27.904,9.413,34.959c12.253,7.054,27.904,2.84,34.959-9.413C59.733,451.312,60.645,444.323,58.88,437.768z
			 M41.557,448.69c-2.559,3.957-7.842,5.091-11.799,2.531s-5.091-7.842-2.531-11.799c1.096-1.695,2.757-2.946,4.688-3.532
			c0.736-0.097,1.482-0.097,2.219,0c4.713-0.019,8.548,3.787,8.567,8.499C42.707,445.899,42.312,447.383,41.557,448.69z"/>
	</g>
</g>
<g>
	<g>
		<path d="M320.025,404.587c-0.008-0.005-0.016-0.009-0.025-0.014c-12.25-7.059-27.904-2.85-34.962,9.401s-2.85,27.904,9.401,34.962
			c12.241,7.053,27.881,2.857,34.948-9.376C336.459,427.317,332.267,411.659,320.025,404.587z M314.7,430.888
			c-0.025,0.046-0.05,0.092-0.076,0.138c-1.13,1.978-3.004,3.422-5.205,4.011c-4.509,1.371-9.276-1.173-10.647-5.682
			c-0.038-0.125-0.073-0.251-0.105-0.377c-0.588-2.189-0.281-4.523,0.853-6.485c1.53-2.651,4.363-4.279,7.424-4.267
			c1.495-0.01,2.966,0.372,4.267,1.109C315.364,421.562,316.926,426.734,314.7,430.888z"/>
	</g>
</g>
<g>
	<g>
		<path d="M354.133,345.437c-12.253-7.069-27.917-2.867-34.987,9.387s-2.867,27.917,9.387,34.987
			c12.253,7.069,27.917,2.867,34.987-9.387C370.589,368.17,366.387,352.506,354.133,345.437z M348.757,371.89
			c-2.359,4.08-7.578,5.476-11.659,3.117c-4.08-2.359-5.476-7.578-3.117-11.659c2.359-4.08,7.578-5.476,11.659-3.117
			c1.956,1.131,3.384,2.991,3.97,5.173C350.199,367.594,349.892,369.928,348.757,371.89z"/>
	</g>
</g>
<g>
</g>
<g>
</g>
<g>
</g>
<g>
</g>
<g>
</g>
<g>
</g>
<g>
</g>
<g>
</g>
<g>
</g>
<g>
</g>
<g>
</g>
<g>
</g>
<g>
</g>
<g>
</g>
<g>
</g>
</svg>
