<?xml version="1.0" encoding="iso-8859-1"?>
<!-- Generator: Adobe Illustrator 19.0.0, SVG Export Plug-In . SVG Version: 6.00 Build 0)  -->
<svg version="1.1" id="Layer_1" xmlns="http://www.w3.org/2000/svg" xmlns:xlink="http://www.w3.org/1999/xlink" x="0px" y="0px"
	 viewBox="0 0 512.956 512.956" style="enable-background:new 0 0 512.956 512.956;" xml:space="preserve">
<g>
	<g>
		<path d="M415.965,156.785c-50.644-73.846-151.564-92.655-225.41-42.01c-10.073,6.908-19.333,14.932-27.604,23.92v-1.109
			c0.029-30.091,13.293-58.646,36.267-78.08c7.189-6.096,8.074-16.866,1.978-24.055c-2.428-2.863-5.733-4.846-9.402-5.641
			C118.091,13.88,45.429,60.715,29.5,134.418c-2.043,9.453-3.076,19.096-3.081,28.767c0.057,28.369,9.011,56.006,25.6,79.019
			c-36.617,8.982-59.019,45.948-50.037,82.565c8.982,36.617,45.948,59.019,82.565,50.037c4.065-0.997,8.03-2.366,11.845-4.09
			c8.648-3.77,12.602-13.837,8.832-22.485s-13.837-12.602-22.485-8.832c-4.296,1.927-8.945,2.943-13.653,2.987
			c-18.851,0.259-34.343-14.813-34.603-33.664s14.813-34.343,33.664-34.603c5.436-0.594,10.931-0.363,16.299,0.683
			c50.727,35.88,119.32,32.824,166.656-7.424c7.189-6.096,8.074-16.866,1.978-24.055c-2.428-2.863-5.733-4.846-9.402-5.641
			c-30.891-6.737-56.937-27.367-70.571-55.893c36.95-60.267,115.76-79.169,176.027-42.218c13.855,8.495,25.966,19.55,35.685,32.576
			c-13.282,1.013-26.239,4.607-38.144,10.581c-4.131,2.268-5.641,7.456-3.372,11.587c2.174,3.959,7.057,5.538,11.138,3.602
			c15.965-8.234,34.121-11.221,51.883-8.533c6.162,0.955,12.201,2.586,18.005,4.864l3.157,1.451
			c43.312,18.579,63.362,68.751,44.783,112.063c-13.524,31.527-44.612,51.89-78.916,51.692c-9.426,0-17.067,7.641-17.067,17.067
			c0,9.426,7.641,17.067,17.067,17.067c65.98,0.076,119.528-53.349,119.604-119.329
			C513.022,216.891,472.306,167.577,415.965,156.785z M189.336,250.865c3.879,2.608,7.89,5.015,12.015,7.211
			c-52.376,21.332-112.129-3.834-133.461-56.21c-21.332-52.376,3.834-112.129,56.21-133.461c8.986-3.66,18.447-6.024,28.099-7.022
			C110.131,123.961,126.757,208.795,189.336,250.865z"/>
	</g>
</g>
<g>
	<g>
		<path d="M331.839,203.438c-3.185-3.474-8.582-3.709-12.057-0.524c-0.301,0.276-0.582,0.574-0.841,0.89
			c-3.368,3.556-6.476,7.349-9.301,11.349c-2.434,4.036-1.135,9.28,2.901,11.714c3.632,2.19,8.321,1.38,11.008-1.901
			c2.36-3.338,4.955-6.503,7.765-9.472C334.788,212.31,335.023,206.912,331.839,203.438z"/>
	</g>
</g>
<g>
	<g>
		<path d="M151.795,313.539c-3.977-2.528-9.251-1.354-11.779,2.623c-0.129,0.202-0.249,0.41-0.36,0.623l-18.432,32
			c-2.168,4.185-0.533,9.334,3.652,11.502c1.218,0.631,2.571,0.959,3.943,0.956c3.061,0.012,5.894-1.616,7.424-4.267l18.176-31.659
			C156.947,321.341,155.772,316.067,151.795,313.539z"/>
	</g>
</g>
<g>
	<g>
		<path d="M109.472,386.175c-0.008-0.005-0.016-0.009-0.024-0.014c-4.078-2.362-9.299-0.972-11.661,3.106
			c-0.01,0.017-0.02,0.034-0.029,0.051l-14.763,25.6c-2.185,4.176-0.57,9.332,3.606,11.517c3.929,2.055,8.778,0.759,11.157-2.983
			l14.763-25.6C114.902,393.785,113.538,388.558,109.472,386.175z"/>
	</g>
</g>
<g>
	<g>
		<path d="M295.297,311.795c-0.026-0.015-0.053-0.03-0.079-0.045c-4.078-2.362-9.299-0.972-11.661,3.106
			c-0.01,0.017-0.02,0.034-0.029,0.051l-18.176,31.744c-2.184,4.176-0.57,9.332,3.606,11.517c3.929,2.055,8.778,0.759,11.157-2.983
			l18.347-31.744C300.803,319.351,299.387,314.137,295.297,311.795z"/>
	</g>
</g>
<g>
	<g>
		<path d="M261.109,370.9c-0.008-0.005-0.016-0.009-0.024-0.014c-4.078-2.362-9.299-0.972-11.661,3.106
			c-0.01,0.017-0.02,0.034-0.029,0.051l-38.4,66.475c-2.185,4.176-0.57,9.332,3.606,11.517c3.929,2.055,8.778,0.759,11.157-2.983
			l38.4-66.475C266.54,378.511,265.175,373.283,261.109,370.9z"/>
	</g>
</g>
<g>
	<g>
		<path d="M384.842,403.242c-0.008-0.005-0.016-0.009-0.024-0.014c-4.078-2.362-9.299-0.972-11.661,3.106
			c-0.01,0.017-0.02,0.034-0.029,0.051l-14.763,25.6c-2.185,4.176-0.57,9.332,3.606,11.517c3.929,2.055,8.778,0.759,11.157-2.983
			l14.763-25.6C390.273,410.852,388.908,405.624,384.842,403.242z"/>
	</g>
</g>
<g>
	<g>
		<path d="M137.192,435.057c-3.034,0.009-6.043,0.558-8.885,1.621c-13.218,5.017-19.867,19.8-14.85,33.018
			c0.001,0.002,0.001,0.004,0.002,0.006c3.755,9.943,13.264,16.532,23.893,16.555c14.138-0.044,25.564-11.541,25.52-25.68
			S151.33,435.013,137.192,435.057z M145.373,464.07c-1.791,4.359-6.777,6.441-11.136,4.651c-4.359-1.791-6.441-6.777-4.651-11.136
			c1.791-4.359,6.777-6.441,11.136-4.651c2.109,0.867,3.784,2.541,4.651,4.651c0.796,2.136,0.704,4.503-0.256,6.571L145.373,464.07z
			"/>
	</g>
</g>
<g>
	<g>
		<path d="M184.31,379.348c-0.008-0.005-0.016-0.009-0.025-0.014c-12.25-7.059-27.904-2.85-34.962,9.401s-2.85,27.904,9.401,34.962
			c12.241,7.053,27.881,2.857,34.948-9.376C200.744,402.078,196.552,386.421,184.31,379.348z M178.923,405.764
			c-0.005,0.008-0.009,0.016-0.014,0.024c-2.528,3.977-7.802,5.152-11.779,2.623c-3.742-2.379-5.039-7.228-2.983-11.157
			c1.53-2.651,4.363-4.279,7.424-4.267c1.495-0.01,2.966,0.372,4.267,1.109C179.911,396.466,181.292,401.69,178.923,405.764z"/>
	</g>
</g>
<g>
	<g>
		<path d="M218.418,320.198c-12.253-7.069-27.917-2.867-34.987,9.387c-7.069,12.253-2.867,27.917,9.387,34.987
			c12.253,7.069,27.917,2.867,34.987-9.387C234.874,342.932,230.672,327.267,218.418,320.198z M214.219,345.968
			c-1.162,2.616-3.559,4.475-6.382,4.95c-4.556,1.206-9.227-1.51-10.433-6.066c-0.58-2.19-0.265-4.521,0.875-6.478
			c1.002-2.155,2.858-3.794,5.12-4.523c2.189-0.588,4.523-0.281,6.485,0.853C214.192,336.618,216.132,341.661,214.219,345.968z"/>
	</g>
</g>
<g>
	<g>
		<path d="M47.752,396.998c-12.243-7.072-27.9-2.881-34.972,9.362c-0.005,0.008-0.009,0.016-0.014,0.025
			c-7.059,12.25-2.85,27.904,9.401,34.962s27.904,2.85,34.962-9.401C64.181,419.705,59.985,404.065,47.752,396.998z M42.376,423.452
			c-2.524,3.98-7.797,5.16-11.776,2.636c-3.98-2.524-5.16-7.797-2.636-11.777c2.524-3.98,7.797-5.16,11.776-2.636
			c1.896,1.202,3.242,3.103,3.745,5.291C43.997,419.189,43.597,421.525,42.376,423.452z"/>
	</g>
</g>
<g>
	<g>
		<path d="M320.843,379.348c-0.008-0.005-0.016-0.009-0.025-0.014c-12.25-7.059-27.904-2.85-34.962,9.401s-2.85,27.904,9.401,34.962
			c12.241,7.053,27.881,2.857,34.948-9.376C337.277,402.078,333.086,386.421,320.843,379.348z M315.456,405.764
			c-0.005,0.008-0.009,0.016-0.014,0.024c-2.185,4.176-7.341,5.79-11.517,3.606s-5.79-7.341-3.606-11.517
			c0.111-0.213,0.231-0.42,0.36-0.623c1.53-2.651,4.363-4.279,7.424-4.267c1.495-0.01,2.966,0.372,4.267,1.109
			C316.444,396.466,317.826,401.69,315.456,405.764z"/>
	</g>
</g>
<g>
	<g>
		<path d="M354.952,320.198c-12.253-7.069-27.917-2.867-34.987,9.387s-2.867,27.917,9.387,34.987
			c12.253,7.069,27.917,2.867,34.987-9.387C371.408,342.932,367.205,327.267,354.952,320.198z M349.784,346.294
			c-0.066,0.121-0.136,0.24-0.208,0.357c-2.559,3.957-7.842,5.091-11.799,2.531c-3.957-2.559-5.091-7.842-2.531-11.799
			c1.096-1.695,2.757-2.946,4.688-3.532c2.189-0.588,4.523-0.281,6.485,0.853C350.548,336.976,352.055,342.164,349.784,346.294z"/>
	</g>
</g>
<g>
</g>
<g>
</g>
<g>
</g>
<g>
</g>
<g>
</g>
<g>
</g>
<g>
</g>
<g>
</g>
<g>
</g>
<g>
</g>
<g>
</g>
<g>
</g>
<g>
</g>
<g>
</g>
<g>
</g>
</svg>
