<?xml version="1.0" encoding="utf-8"?>
<!-- Svg Vector Icons : http://www.onlinewebfonts.com/icon -->
<!DOCTYPE svg PUBLIC "-//W3C//DTD SVG 1.1//EN" "http://www.w3.org/Graphics/SVG/1.1/DTD/svg11.dtd">
<svg version="1.1" xmlns="http://www.w3.org/2000/svg" xmlns:xlink="http://www.w3.org/1999/xlink" x="0px" y="0px" viewBox="0 0 1000 1000" enable-background="new 0 0 1000 1000" xml:space="preserve">
<metadata> Svg Vector Icons : http://www.onlinewebfonts.com/icon </metadata>
<g><g transform="translate(0.000000,512.000000) scale(0.100000,-0.100000)"><path d="M4719.3,4991c-512.3-138.1-817.4-671.6-700.4-1230c11.5-59.5,9.6-61.4-71-82.5c-733-191.9-1410.3-585.2-1966.8-1139.8C449.9,1005.6,281-1316.2,1578.1-3052.7c197.6-262.9,596.7-662,859.6-859.6c1059.2-790.6,2348.6-1053.4,3605.5-736.8c1510.1,378,2743.9,1613.7,3125.8,3123.8c97.9,381.9,122.8,604.4,122.8,1040c0,435.6-25,658.2-122.8,1040c-378,1498.6-1602.2,2730.5-3106.6,3123.8c-80.6,21.1-82.5,23-71,82.5c32.6,149.7,32.6,316.6,3.8,454.8c-82.5,393.4-347.3,681.2-711.9,777.1C5141.4,5029.4,4857.4,5029.4,4719.3,4991z M5245,4582.3c293.6-140.1,437.5-427.9,356.9-715.7l-24.9-92.1l-147.8,15.3c-80.6,7.7-270.5,13.4-424,13.4c-153.5,0-343.5-5.8-424.1-13.4l-147.7-15.3l-25,92.1c-80.6,289.7,61.4,575.6,356.9,715.7C4926.5,4659,5085.8,4659,5245,4582.3z M5580.8,3360c1277.9-184.2,2367.8-978.6,2916.6-2122.2C8771.8,662.1,8885,165.1,8885-485.3c0-397.2-30.7-648.6-119-995.9c-32.6-120.9-57.6-222.6-57.6-224.5c0-3.8-203.4-7.7-452.8-7.7c-424.1,0-452.9,1.9-439.4,32.6c69.1,165,149.7,422.1,186.1,585.2c38.4,172.7,42.2,253.3,42.2,639c1.9,418.3-1.9,452.8-53.7,671.6c-63.3,274.4-120.9,439.4-232.2,671.6c-397.2,832.8-1159,1416.1-2120.3,1625.2c-176.5,36.5-255.2,42.2-633.2,42.2c-474,0-642.8-23-1007.4-143.9C3021.1,2087.8,2290,1301.1,2042.5,309.1c-69.1-272.5-90.2-458.6-90.2-784.8c0-362.7,49.9-658.2,163.1-992l82.5-245.6h-445.2h-445.2l-40.3,140.1c-48,166.9-90.2,370.3-120.9,589.1c-32.6,239.9-28.8,811.7,9.6,1065c278.2,1826.7,1702,3158.4,3542.2,3310C4932.3,3409.9,5323.7,3396.4,5580.8,3360z M5561.6,2128.1c736.8-170.8,1348.9-602.5,1740.4-1228c120.9-193.8,230.3-452.8,299.3-713.8c55.7-209.2,57.6-241.8,59.5-594.8c1.9-297.4-5.8-406.8-34.6-537.3c-46-216.8-136.2-479.7-214.9-637.1l-65.3-130.5H4999.4H2650.8l-69.1,161.2c-182.3,418.3-234.1,665.8-234.1,1114.8c0,381.8,17.3,504.7,115.1,807.8c295.5,911.4,1120.6,1608,2110.7,1782.6C4794.1,2191.4,5342.9,2178,5561.6,2128.1z M8535.8-2133.6c0-3.8-48-99.8-107.5-211.1c-566.1-1070.7-1617.6-1801.8-2857.1-1989.8c-282.1-42.2-846.2-42.2-1132.1,1.9c-1114.8,166.9-2080,773.3-2682.5,1688.6c-88.3,136.2-282.1,485.5-282.1,512.3c0,3.8,1588.8,5.8,3530.6,5.8C6947-2125.9,8535.8-2129.8,8535.8-2133.6z"/><path d="M5509.8,1318.3c-109.4-65.2-117-232.2-15.3-320.4c38.4-34.5,72.9-44.1,149.7-44.1h99.8l-239.8-239.9l-241.8-241.8l-71,30.7c-38.4,15.3-124.7,28.8-191.9,28.8c-379.9,0-696.5-416.4-579.5-767.5l32.6-99.8l-232.2-234.1c-222.6-224.5-232.2-239.9-232.2-314.7c0-61.4,13.4-94,55.6-142c48-53.7,69.1-63.3,143.9-63.3c86.3,0,92.1,3.8,322.4,232.2l236,234.1l67.2-30.7c113.2-49.9,301.3-40.3,427.9,21.1c203.4,99.8,378,353.1,378,548.8c0,38.4-13.4,117.1-30.7,174.6L5557.8,192l228.3,228.3c193.8,193.8,226.4,220.7,232.2,184.2c11.5-103.6,46.1-188,94-224.5c59.5-48,170.8-51.8,234.1-9.6c82.5,59.5,97.9,134.3,97.9,487.4c0,504.6,5.7,498.9-508.5,498.9C5607.7,1356.7,5565.5,1352.9,5509.8,1318.3z M5110.7,109.5c111.3-42.2,134.3-266.7,34.5-345.4c-67.2-51.8-213-51.8-280.1,0c-95.9,76.7-78.7,301.3,28.8,345.4C4953.4,132.5,5049.3,132.5,5110.7,109.5z"/></g></g>
</svg>