<?xml version="1.0" encoding="iso-8859-1"?>
<!-- Generator: Adobe Illustrator 19.0.0, SVG Export Plug-In . SVG Version: 6.00 Build 0)  -->
<svg version="1.1" id="Layer_1" xmlns="http://www.w3.org/2000/svg" xmlns:xlink="http://www.w3.org/1999/xlink" x="0px" y="0px"
	 viewBox="0 0 512.956 512.956" style="enable-background:new 0 0 512.956 512.956;" xml:space="preserve">
<g>
	<g>
		<path d="M415.965,156.428c-50.644-73.846-151.564-92.655-225.41-42.01c-10.073,6.908-19.333,14.932-27.604,23.92v-1.109
			c0.029-30.091,13.293-58.646,36.267-78.08c7.189-6.096,8.074-16.866,1.978-24.055c-2.428-2.863-5.733-4.846-9.402-5.641
			C118.091,13.523,45.429,60.358,29.5,134.061c-2.043,9.453-3.076,19.096-3.081,28.767c0.057,28.369,9.011,56.006,25.6,79.019
			c-36.617,8.982-59.019,45.948-50.037,82.565c8.982,36.617,45.948,59.019,82.565,50.037c4.065-0.997,8.03-2.366,11.845-4.09
			c8.648-3.77,12.602-13.837,8.832-22.485s-13.837-12.602-22.485-8.832c-4.296,1.927-8.945,2.943-13.653,2.987
			c-18.851,0.259-34.343-14.813-34.603-33.664s14.813-34.343,33.664-34.603c5.965-0.453,11.965,0.095,17.749,1.621
			c50.687,34.861,118.463,31.362,165.291-8.533c7.189-6.096,8.074-16.866,1.978-24.055c-2.428-2.863-5.733-4.846-9.402-5.641
			c-30.891-6.737-56.937-27.367-70.571-55.893c37.037-60.214,115.874-79.003,176.088-41.966
			c13.795,8.485,25.855,19.512,35.539,32.494c-13.284,1-26.243,4.594-38.144,10.581c-4.131,2.268-5.641,7.456-3.372,11.587
			c2.174,3.959,7.057,5.538,11.138,3.602c21.757-10.905,47.107-12.114,69.803-3.328l3.243,1.109
			c43.312,18.579,63.362,68.751,44.783,112.063c-13.524,31.527-44.612,51.89-78.916,51.692c-9.426,0-17.067,7.641-17.067,17.067
			c0,9.426,7.641,17.067,17.067,17.067c65.98,0.076,119.528-53.349,119.604-119.329C513.022,216.534,472.306,167.22,415.965,156.428
			z M189.336,250.508c3.879,2.608,7.89,5.015,12.015,7.211c-52.376,21.332-112.129-3.834-133.461-56.21
			c-21.332-52.376,3.834-112.129,56.21-133.461c8.986-3.66,18.447-6.024,28.099-7.022
			C110.131,123.604,126.757,208.439,189.336,250.508z"/>
	</g>
</g>
<g>
	<g>
		<path d="M330.93,203.063c-3.44-3.228-8.846-3.056-12.075,0.384c-3.365,3.558-6.473,7.351-9.301,11.349
			c-2.697,3.844-1.782,9.144,2.048,11.861c1.451,1.013,3.18,1.549,4.949,1.536c2.777,0.015,5.387-1.322,6.997-3.584
			c2.362-3.336,4.957-6.501,7.765-9.472C334.543,211.697,334.371,206.291,330.93,203.063z"/>
	</g>
</g>
<g>
	<g>
		<path d="M166.087,318.906c-3.929-2.055-8.778-0.759-11.157,2.983l-24.917,43.093c-2.185,4.176-0.57,9.332,3.606,11.517
			c3.929,2.055,8.778,0.759,11.157-2.983l24.917-43.093C171.877,326.247,170.263,321.09,166.087,318.906z"/>
	</g>
</g>
<g>
	<g>
		<path d="M118.005,402.799c-0.008-0.005-0.016-0.009-0.024-0.014c-4.078-2.362-9.299-0.972-11.661,3.106
			c-0.01,0.017-0.02,0.034-0.029,0.051l-14.763,25.6c-2.185,4.176-0.57,9.332,3.606,11.517c3.929,2.055,8.778,0.759,11.157-2.983
			l14.763-25.6C123.436,410.41,122.071,405.182,118.005,402.799z"/>
	</g>
</g>
<g>
	<g>
		<path d="M239.752,317.537c-4.066-2.383-9.294-1.018-11.677,3.048c-0.005,0.008-0.009,0.016-0.014,0.024l-39.851,68.267
			c-2.185,4.176-0.57,9.332,3.606,11.517c3.929,2.055,8.778,0.759,11.157-2.983l39.851-68.267
			C245.154,325.086,243.784,319.91,239.752,317.537z"/>
	</g>
</g>
<g>
	<g>
		<path d="M185.053,411.404c-4.066-2.383-9.294-1.018-11.677,3.048c-0.005,0.008-0.009,0.016-0.014,0.024l-17.749,30.464
			c-2.185,4.176-0.57,9.332,3.606,11.517c3.929,2.055,8.778,0.759,11.157-2.983l17.749-30.464
			C190.455,418.953,189.085,413.776,185.053,411.404z"/>
	</g>
</g>
<g>
	<g>
		<path d="M155.186,462.519c-4.066-2.383-9.294-1.018-11.677,3.048c-0.005,0.008-0.009,0.016-0.014,0.024l-4.949,8.533
			c-2.185,4.176-0.57,9.332,3.606,11.517c3.929,2.055,8.778,0.759,11.157-2.983l4.949-8.533
			C160.589,470.067,159.218,464.891,155.186,462.519z"/>
	</g>
</g>
<g>
	<g>
		<path d="M303.831,328.419c-0.026-0.015-0.053-0.03-0.079-0.045c-4.078-2.362-9.299-0.972-11.661,3.106
			c-0.01,0.017-0.02,0.034-0.029,0.051l-18.176,31.744c-2.185,4.176-0.57,9.332,3.606,11.517c3.929,2.055,8.778,0.759,11.157-2.983
			l18.347-31.744C309.337,335.976,307.92,330.762,303.831,328.419z"/>
	</g>
</g>
<g>
	<g>
		<path d="M269.642,387.525c-0.008-0.005-0.016-0.009-0.024-0.014c-4.078-2.362-9.299-0.972-11.661,3.106
			c-0.01,0.017-0.02,0.034-0.029,0.051l-38.4,66.475c-2.185,4.176-0.57,9.332,3.606,11.517c3.929,2.055,8.778,0.759,11.157-2.983
			l38.4-66.475C275.073,395.135,273.708,389.907,269.642,387.525z"/>
	</g>
</g>
<g>
	<g>
		<path d="M376.309,317.466c-0.008-0.005-0.016-0.009-0.024-0.014c-4.078-2.362-9.299-0.972-11.661,3.106
			c-0.01,0.017-0.02,0.034-0.029,0.051l-49.237,85.333c-2.185,4.176-0.57,9.332,3.606,11.517c3.929,2.055,8.778,0.759,11.157-2.983
			l49.237-85.333C381.74,325.077,380.375,319.849,376.309,317.466z"/>
	</g>
</g>
<g>
	<g>
		<path d="M312.224,428.399c-0.008-0.005-0.016-0.009-0.024-0.014c-4.078-2.362-9.299-0.972-11.661,3.106
			c-0.01,0.017-0.02,0.034-0.029,0.051l-8.533,14.677c-2.185,4.176-0.57,9.332,3.606,11.517c3.929,2.055,8.778,0.759,11.157-2.983
			l8.533-14.677C317.654,436.01,316.29,430.782,312.224,428.399z"/>
	</g>
</g>
<g>
</g>
<g>
</g>
<g>
</g>
<g>
</g>
<g>
</g>
<g>
</g>
<g>
</g>
<g>
</g>
<g>
</g>
<g>
</g>
<g>
</g>
<g>
</g>
<g>
</g>
<g>
</g>
<g>
</g>
</svg>
