<?xml version="1.0" encoding="iso-8859-1"?>
<!-- Generator: Adobe Illustrator 19.0.0, SVG Export Plug-In . SVG Version: 6.00 Build 0)  -->
<svg version="1.1" id="Layer_1" xmlns="http://www.w3.org/2000/svg" xmlns:xlink="http://www.w3.org/1999/xlink" x="0px" y="0px"
	 viewBox="0 0 512.138 512.138" style="enable-background:new 0 0 512.138 512.138;" xml:space="preserve">
<g>
	<g>
		<path d="M415.147,181.643c-26.132-38.439-67.606-63.703-113.749-69.291c-42.059-62.586-126.89-79.227-189.476-37.168
			c-57.355,38.544-76.87,113.863-45.446,175.408c-4.046,4.75-7.645,9.863-10.752,15.275C18.677,272.873-5.676,308.584,1.33,345.63
			s42.717,61.398,79.763,54.392c4.977-0.941,9.833-2.433,14.48-4.449c8.823-3.315,13.289-13.156,9.973-21.979
			c-3.315-8.823-13.156-13.289-21.979-9.973c-0.561,0.211-1.111,0.451-1.648,0.72c-17.255,7.593-37.397-0.24-44.99-17.495
			c-7.593-17.255,0.24-37.397,17.495-44.99c4.072-1.792,8.455-2.77,12.903-2.88h0.939c7.385,0,14.572,2.395,20.48,6.827
			c3.767,2.832,9.117,2.074,11.949-1.693c2.832-3.767,2.074-9.117-1.693-11.949c-0.005-0.004-0.01-0.008-0.016-0.012
			c-4.324-3.239-9.134-5.774-14.251-7.509c10.733-20.467,31.091-34.115,54.101-36.267c-1.059,5.244-1.828,10.543-2.304,15.872
			c-0.33,4.701,3.214,8.78,7.915,9.11c0.206,0.014,0.412,0.021,0.618,0.021c4.713,0,8.533-3.82,8.533-8.533
			c0.607-9.986,2.383-19.867,5.291-29.44c1.024-3.328,2.133-6.485,3.413-9.643l0.768-1.877c0.939-2.304,1.963-4.693,3.072-6.912
			c1.109-2.219,1.877-3.669,2.901-5.461l1.621-2.475c3.216-5.524,6.839-10.8,10.837-15.787
			c44.268-55.116,124.834-63.911,179.95-19.643c8.479,6.81,16.055,14.672,22.546,23.397c-13.282,1.013-26.239,4.607-38.144,10.581
			c-4.131,2.268-5.641,7.456-3.372,11.587c2.174,3.959,7.057,5.538,11.138,3.602c16.087-8.143,34.339-10.98,52.139-8.107
			l4.949,0.853h0.853c4.069,0.955,8.063,2.21,11.947,3.755l2.56,1.024c43.453,18.246,63.888,68.262,45.642,111.715
			c-13.374,31.852-44.633,52.497-79.178,52.295c-9.426,0-17.067,7.641-17.067,17.067c0,9.426,7.641,17.067,17.067,17.067
			c65.98,0.076,119.528-53.349,119.604-119.329C512.204,241.749,471.487,192.435,415.147,181.643z M130.389,214.667
			c-12.901,2.012-25.298,6.472-36.523,13.141c-21.429-52.337,3.626-112.136,55.963-133.565
			c36.41-14.908,78.142-7.637,107.365,18.707C199.65,121.448,151.17,160.336,130.389,214.667z"/>
	</g>
</g>
<g>
	<g>
		<path d="M331.02,228.295c-3.185-3.474-8.582-3.709-12.057-0.524c-0.301,0.276-0.582,0.574-0.841,0.89
			c-3.371,3.583-6.48,7.405-9.301,11.435c-2.64,3.904-1.615,9.209,2.289,11.849c1.367,0.924,2.973,1.433,4.623,1.463
			c2.777,0.015,5.387-1.322,6.997-3.584c2.358-3.339,4.953-6.505,7.765-9.472C333.97,237.167,334.205,231.769,331.02,228.295z"/>
	</g>
</g>
<g>
	<g>
		<path d="M34.133,170.976h-25.6c-4.713,0-8.533,3.82-8.533,8.533s3.82,8.533,8.533,8.533h25.6c4.713,0,8.533-3.82,8.533-8.533
			S38.846,170.976,34.133,170.976z"/>
	</g>
</g>
<g>
	<g>
		<path d="M187.733,0.309c-4.713,0-8.533,3.82-8.533,8.533v25.6c0,4.713,3.82,8.533,8.533,8.533s8.533-3.82,8.533-8.533v-25.6
			C196.267,4.13,192.446,0.309,187.733,0.309z"/>
	</g>
</g>
<g>
	<g>
		<path d="M313.352,49.205c-3.195-2.736-7.906-2.736-11.101,0l-18.005,18.091c-3.3,3.364-3.248,8.767,0.116,12.067
			c1.545,1.516,3.608,2.388,5.772,2.439c2.268,0.013,4.448-0.877,6.059-2.475l18.091-18.091
			C317.348,57.658,316.931,52.271,313.352,49.205z"/>
	</g>
</g>
<g>
	<g>
		<path d="M85.333,73.269L67.072,55.179c-3.346-3.346-8.771-3.346-12.117,0c-3.346,3.346-3.346,8.771,0,12.117l18.176,18.347
			c3.417,3.37,8.918,3.331,12.288-0.085C88.788,82.14,88.75,76.639,85.333,73.269z"/>
	</g>
</g>
<g>
	<g>
		<path d="M166.251,343.858c-3.977-2.528-9.251-1.354-11.779,2.623c-0.129,0.202-0.249,0.41-0.36,0.623l-24.917,43.093
			c-2.185,4.176-0.57,9.332,3.606,11.517c3.929,2.055,8.778,0.759,11.157-2.983l24.917-43.093
			C171.403,351.66,170.228,346.386,166.251,343.858z"/>
	</g>
</g>
<g>
	<g>
		<path d="M117.187,428.014c-0.008-0.005-0.016-0.009-0.024-0.014c-4.078-2.362-9.299-0.972-11.661,3.106
			c-0.01,0.017-0.02,0.034-0.029,0.051l-14.763,25.6c-2.185,4.176-0.57,9.332,3.606,11.517c3.929,2.055,8.778,0.759,11.157-2.983
			l14.763-25.6C122.617,435.625,121.253,430.397,117.187,428.014z"/>
	</g>
</g>
<g>
	<g>
		<path d="M238.933,342.667c-4.066-2.383-9.294-1.018-11.677,3.048c-0.005,0.008-0.009,0.016-0.014,0.024l-39.851,68.267
			c-2.185,4.176-0.57,9.332,3.606,11.517c3.929,2.055,8.778,0.759,11.157-2.983l39.851-68.267
			C244.336,350.215,242.965,345.039,238.933,342.667z"/>
	</g>
</g>
<g>
	<g>
		<path d="M184.235,436.533c-4.066-2.383-9.294-1.018-11.677,3.048c-0.005,0.008-0.009,0.016-0.014,0.024l-17.749,30.464
			c-2.185,4.176-0.57,9.332,3.606,11.517c3.929,2.055,8.778,0.759,11.157-2.983l17.749-30.464
			C189.637,444.082,188.267,438.906,184.235,436.533z"/>
	</g>
</g>
<g>
	<g>
		<path d="M154.368,487.733c-4.066-2.383-9.294-1.018-11.677,3.048c-0.005,0.008-0.009,0.016-0.014,0.024l-4.949,8.533
			c-2.185,4.176-0.57,9.332,3.606,11.517c3.929,2.055,8.778,0.759,11.157-2.983l4.949-8.533
			C159.77,495.282,158.4,490.106,154.368,487.733z"/>
	</g>
</g>
<g>
	<g>
		<path d="M303.012,353.634c-0.026-0.015-0.053-0.03-0.079-0.045c-4.078-2.362-9.299-0.972-11.661,3.106
			c-0.01,0.017-0.02,0.034-0.029,0.051l-18.176,31.744c-2.185,4.176-0.57,9.332,3.606,11.517c3.929,2.055,8.778,0.759,11.157-2.983
			l18.347-31.744C308.518,361.19,307.102,355.976,303.012,353.634z"/>
	</g>
</g>
<g>
	<g>
		<path d="M268.824,412.739c-0.008-0.005-0.016-0.009-0.024-0.014c-4.078-2.362-9.299-0.972-11.661,3.106
			c-0.01,0.017-0.02,0.034-0.029,0.051l-38.4,66.475c-2.185,4.176-0.57,9.332,3.606,11.517c3.929,2.055,8.778,0.759,11.157-2.983
			l38.4-66.475C274.255,420.35,272.89,415.122,268.824,412.739z"/>
	</g>
</g>
<g>
	<g>
		<path d="M375.491,342.681c-0.008-0.005-0.016-0.009-0.024-0.014c-4.078-2.362-9.299-0.972-11.661,3.106
			c-0.01,0.017-0.02,0.034-0.029,0.051l-49.237,85.333c-2.185,4.176-0.57,9.332,3.606,11.517c3.929,2.055,8.778,0.759,11.157-2.983
			l49.237-85.333C380.921,350.291,379.557,345.063,375.491,342.681z"/>
	</g>
</g>
<g>
	<g>
		<path d="M311.405,453.614c-0.008-0.005-0.016-0.009-0.024-0.014c-4.078-2.362-9.299-0.972-11.661,3.106
			c-0.01,0.017-0.02,0.034-0.029,0.051l-8.533,14.677c-2.185,4.176-0.57,9.332,3.606,11.517c3.929,2.055,8.778,0.759,11.157-2.983
			l8.533-14.677C316.836,461.224,315.471,455.997,311.405,453.614z"/>
	</g>
</g>
<g>
</g>
<g>
</g>
<g>
</g>
<g>
</g>
<g>
</g>
<g>
</g>
<g>
</g>
<g>
</g>
<g>
</g>
<g>
</g>
<g>
</g>
<g>
</g>
<g>
</g>
<g>
</g>
<g>
</g>
</svg>
