<?xml version="1.0" encoding="iso-8859-1"?>
<!-- Generator: Adobe Illustrator 19.0.0, SVG Export Plug-In . SVG Version: 6.00 Build 0)  -->
<svg version="1.1" id="Layer_1" xmlns="http://www.w3.org/2000/svg" xmlns:xlink="http://www.w3.org/1999/xlink" x="0px" y="0px"
	 viewBox="0 0 511.982 511.982" style="enable-background:new 0 0 511.982 511.982;" xml:space="preserve">
<g>
	<g>
		<path d="M415.129,87.48C364.435,13.668,263.503-5.073,189.691,45.621c-26.845,18.437-47.516,44.531-59.319,74.883
			c-31.462,4.614-59.025,23.514-74.667,51.2c-37.058,6.944-61.469,42.615-54.525,79.673s42.615,61.469,79.673,54.525
			c1.498-0.281,2.987-0.612,4.463-0.992c30.83,22.163,71.393,25.447,105.387,8.533c17.17,11.654,36.444,19.856,56.747,24.149v3.669
			h-8.533c-4.713,0-8.533,3.82-8.533,8.533s3.82,8.533,8.533,8.533h8.533v8.533c0,4.713,3.82,8.533,8.533,8.533
			c4.713,0,8.533-3.82,8.533-8.533v-8.533h8.533c4.713,0,8.533-3.82,8.533-8.533s-3.821-8.533-8.533-8.533h-8.533v-1.024
			c5.667,0.637,11.364,0.979,17.067,1.024c11.479-0.031,22.922-1.289,34.133-3.755v3.755h-8.533c-4.713,0-8.533,3.82-8.533,8.533
			s3.82,8.533,8.533,8.533h8.533v8.533c0,4.713,3.82,8.533,8.533,8.533s8.533-3.82,8.533-8.533v-8.533h8.533
			c4.713,0,8.533-3.82,8.533-8.533s-3.82-8.533-8.533-8.533h-8.533v-8.533c9.98-3.354,19.612-7.669,28.757-12.885
			c10.087,2.816,20.504,4.279,30.976,4.352c65.98,0,119.467-53.487,119.467-119.467C511.954,147.49,471.332,98.314,415.129,87.48z
			 M470.915,238.371c-13.451,31.353-44.283,51.681-78.399,51.69c-5.271-0.016-10.528-0.53-15.701-1.536
			c9.368-8.156,17.656-17.476,24.661-27.733c2.71-3.856,1.782-9.178-2.074-11.888c-3.856-2.71-9.178-1.782-11.888,2.074
			c-0.04,0.057-0.079,0.114-0.118,0.172c-9.704,14.187-22.151,26.287-36.608,35.584h-0.768
			c-45.762,29.242-105.029,26.262-147.627-7.424c-5.776-4.56-13.824-4.904-19.968-0.853c-13.842,9.253-30.643,12.996-47.104,10.496
			H133.7c-2.885-0.499-5.736-1.183-8.533-2.048l-2.219-0.768c-2.682-0.917-5.304-2-7.851-3.243l-2.133-1.365
			c-1.963-1.024-3.755-2.133-5.632-3.328l-2.475-1.707c-11.157-8.087-19.606-19.362-24.235-32.341
			c-1.579-4.454-6.469-6.784-10.923-5.205s-6.784,6.469-5.205,10.923c2.768,7.772,6.648,15.102,11.52,21.76
			c-2.527,0.754-5.133,1.212-7.765,1.365c-18.851,0.259-34.343-14.813-34.603-33.664s14.813-34.344,33.664-34.603h0.939
			c7.385,0,14.572,2.395,20.48,6.827c3.77,2.828,9.119,2.064,11.947-1.707s2.064-9.119-1.707-11.947
			c-4.324-3.239-9.134-5.774-14.251-7.509c10.733-20.467,31.091-34.115,54.101-36.267c-1.062,5.273-1.831,10.6-2.304,15.957
			c-0.283,4.704,3.302,8.747,8.006,9.03c0.176,0.011,0.351,0.016,0.527,0.015c4.52,0.008,8.262-3.51,8.533-8.021
			c0.607-9.986,2.383-19.867,5.291-29.44c1.024-3.328,2.133-6.485,3.413-9.643l0.768-1.877c0.939-2.304,1.963-4.693,3.072-6.912
			c1.109-2.219,1.877-3.669,2.816-5.461l1.707-2.901c3.216-5.524,6.838-10.801,10.837-15.787
			c44.268-55.116,124.834-63.911,179.95-19.643c8.479,6.81,16.055,14.672,22.546,23.397c-13.282,1.013-26.239,4.607-38.144,10.581
			c-4.131,2.268-5.641,7.456-3.372,11.587c2.174,3.959,7.057,5.538,11.138,3.602c21.84-10.953,47.3-12.131,70.059-3.243l2.475,0.939
			C469.448,144.887,489.496,195.06,470.915,238.371z"/>
	</g>
</g>
<g>
	<g>
		<path d="M157.508,211.213c-1.307-5.28-2.276-10.639-2.901-16.043c-0.589-4.713-4.887-8.056-9.6-7.467
			c-4.713,0.589-8.056,4.887-7.467,9.6c0.748,6.125,1.888,12.197,3.413,18.176c1.178,4.571,5.839,7.322,10.411,6.144
			S158.686,215.785,157.508,211.213z"/>
	</g>
</g>
<g>
	<g>
		<path d="M330.137,134.072c-3.44-3.252-8.865-3.099-12.117,0.341c-3.37,3.584-6.478,7.406-9.301,11.435
			c-2.71,3.865-1.774,9.194,2.091,11.904c3.865,2.71,9.194,1.774,11.904-2.091c2.356-3.341,4.952-6.506,7.765-9.472
			C333.73,142.749,333.577,137.324,330.137,134.072z"/>
	</g>
</g>
<g>
	<g>
		<path d="M102.382,400.995h-8.533v-8.533c0-4.713-3.821-8.533-8.533-8.533s-8.533,3.821-8.533,8.533v8.533h-8.533
			c-4.713,0-8.533,3.82-8.533,8.533s3.82,8.533,8.533,8.533h8.533v8.533c0,4.713,3.82,8.533,8.533,8.533s8.533-3.82,8.533-8.533
			v-8.533h8.533c4.713,0,8.533-3.82,8.533-8.533S107.095,400.995,102.382,400.995z"/>
	</g>
</g>
<g>
	<g>
		<path d="M136.516,341.261h-8.533v-8.533c0-4.713-3.82-8.533-8.533-8.533s-8.533,3.821-8.533,8.533v8.533h-8.533
			c-4.713,0-8.533,3.82-8.533,8.533s3.82,8.533,8.533,8.533h8.533v8.533c0,4.713,3.82,8.533,8.533,8.533s8.533-3.82,8.533-8.533
			v-8.533h8.533c4.713,0,8.533-3.82,8.533-8.533S141.228,341.261,136.516,341.261z"/>
	</g>
</g>
<g>
	<g>
		<path d="M170.649,400.995h-8.533v-8.533c0-4.713-3.821-8.533-8.533-8.533c-4.713,0-8.533,3.821-8.533,8.533v8.533h-8.533
			c-4.713,0-8.533,3.82-8.533,8.533s3.82,8.533,8.533,8.533h8.533v8.533c0,4.713,3.821,8.533,8.533,8.533
			c4.713,0,8.533-3.82,8.533-8.533v-8.533h8.533c4.713,0,8.533-3.82,8.533-8.533S175.362,400.995,170.649,400.995z"/>
	</g>
</g>
<g>
	<g>
		<path d="M136.516,460.728h-8.533v-8.533c0-4.713-3.82-8.533-8.533-8.533s-8.533,3.821-8.533,8.533v8.533h-8.533
			c-4.713,0-8.533,3.82-8.533,8.533s3.82,8.533,8.533,8.533h8.533v8.533c0,4.713,3.82,8.533,8.533,8.533s8.533-3.82,8.533-8.533
			v-8.533h8.533c4.713,0,8.533-3.82,8.533-8.533S141.228,460.728,136.516,460.728z"/>
	</g>
</g>
<g>
	<g>
		<path d="M204.782,460.728h-8.533v-8.533c0-4.713-3.82-8.533-8.533-8.533s-8.533,3.821-8.533,8.533v8.533h-8.533
			c-4.713,0-8.533,3.82-8.533,8.533s3.82,8.533,8.533,8.533h8.533v8.533c0,4.713,3.82,8.533,8.533,8.533s8.533-3.82,8.533-8.533
			v-8.533h8.533c4.713,0,8.533-3.82,8.533-8.533S209.495,460.728,204.782,460.728z"/>
	</g>
</g>
<g>
	<g>
		<path d="M204.782,341.261h-8.533v-8.533c0-4.713-3.82-8.533-8.533-8.533s-8.533,3.821-8.533,8.533v8.533h-8.533
			c-4.713,0-8.533,3.82-8.533,8.533s3.82,8.533,8.533,8.533h8.533v8.533c0,4.713,3.82,8.533,8.533,8.533s8.533-3.82,8.533-8.533
			v-8.533h8.533c4.713,0,8.533-3.82,8.533-8.533S209.495,341.261,204.782,341.261z"/>
	</g>
</g>
<g>
	<g>
		<path d="M307.182,400.995h-8.533v-8.533c0-4.713-3.82-8.533-8.533-8.533s-8.533,3.821-8.533,8.533v8.533h-8.533
			c-4.713,0-8.533,3.82-8.533,8.533s3.821,8.533,8.533,8.533h8.533v8.533c0,4.713,3.82,8.533,8.533,8.533s8.533-3.82,8.533-8.533
			v-8.533h8.533c4.713,0,8.533-3.82,8.533-8.533S311.895,400.995,307.182,400.995z"/>
	</g>
</g>
<g>
	<g>
		<path d="M238.916,400.995h-8.533v-8.533c0-4.713-3.82-8.533-8.533-8.533s-8.533,3.821-8.533,8.533v8.533h-8.533
			c-4.713,0-8.533,3.82-8.533,8.533s3.82,8.533,8.533,8.533h8.533v8.533c0,4.713,3.82,8.533,8.533,8.533s8.533-3.82,8.533-8.533
			v-8.533h8.533c4.713,0,8.533-3.82,8.533-8.533S243.628,400.995,238.916,400.995z"/>
	</g>
</g>
<g>
	<g>
		<path d="M341.316,460.728h-8.533v-8.533c0-4.713-3.82-8.533-8.533-8.533s-8.533,3.821-8.533,8.533v8.533h-8.533
			c-4.713,0-8.533,3.82-8.533,8.533s3.82,8.533,8.533,8.533h8.533v8.533c0,4.713,3.82,8.533,8.533,8.533s8.533-3.82,8.533-8.533
			v-8.533h8.533c4.713,0,8.533-3.82,8.533-8.533S346.028,460.728,341.316,460.728z"/>
	</g>
</g>
<g>
	<g>
		<path d="M375.449,400.995h-8.533v-8.533c0-4.713-3.82-8.533-8.533-8.533s-8.533,3.821-8.533,8.533v8.533h-8.533
			c-4.713,0-8.533,3.82-8.533,8.533s3.821,8.533,8.533,8.533h8.533v8.533c0,4.713,3.82,8.533,8.533,8.533s8.533-3.82,8.533-8.533
			v-8.533h8.533c4.713,0,8.533-3.82,8.533-8.533S380.162,400.995,375.449,400.995z"/>
	</g>
</g>
<g>
	<g>
		<path d="M409.582,341.261h-8.533v-8.533c0-4.713-3.821-8.533-8.533-8.533c-4.713,0-8.533,3.821-8.533,8.533v8.533h-8.533
			c-4.713,0-8.533,3.82-8.533,8.533s3.82,8.533,8.533,8.533h8.533v8.533c0,4.713,3.821,8.533,8.533,8.533
			c4.713,0,8.533-3.82,8.533-8.533v-8.533h8.533c4.713,0,8.533-3.82,8.533-8.533S414.295,341.261,409.582,341.261z"/>
	</g>
</g>
<g>
</g>
<g>
</g>
<g>
</g>
<g>
</g>
<g>
</g>
<g>
</g>
<g>
</g>
<g>
</g>
<g>
</g>
<g>
</g>
<g>
</g>
<g>
</g>
<g>
</g>
<g>
</g>
<g>
</g>
</svg>
