<?xml version="1.0" encoding="iso-8859-1"?>
<!-- Generator: Adobe Illustrator 19.0.0, SVG Export Plug-In . SVG Version: 6.00 Build 0)  -->
<svg version="1.1" id="Layer_1" xmlns="http://www.w3.org/2000/svg" xmlns:xlink="http://www.w3.org/1999/xlink" x="0px" y="0px"
	 viewBox="0 0 512.986 512.986" style="enable-background:new 0 0 512.986 512.986;" xml:space="preserve">
<g>
	<g>
		<path d="M508.344,266.292c-12.401-43.329-48.13-75.993-92.396-84.466c-26.132-38.439-67.606-63.703-113.749-69.291
			C260.14,49.95,175.309,33.309,112.723,75.368c-57.355,38.544-76.87,113.863-45.446,175.408c-4.046,4.75-7.645,9.864-10.752,15.275
			c-37.14,6.491-61.985,41.861-55.494,79.001c5.762,32.967,34.573,56.896,68.038,56.509c9.426,0,17.067-7.641,17.067-17.067
			s-7.641-17.067-17.067-17.067c-18.851,0.259-34.343-14.813-34.603-33.664s14.813-34.343,33.664-34.603h0.939
			c7.385,0,14.572,2.395,20.48,6.827c3.767,2.832,9.117,2.074,11.949-1.693c2.832-3.767,2.074-9.117-1.693-11.949
			c-0.005-0.004-0.01-0.008-0.016-0.012c-4.324-3.239-9.134-5.774-14.251-7.509c3.476-6.676,8.031-12.731,13.483-17.92
			c0.762-0.565,1.476-1.193,2.133-1.877c10.775-9.337,24.203-15.067,38.4-16.384c-1.027,5.218-1.768,10.488-2.219,15.787
			c-0.33,4.701,3.214,8.78,7.915,9.11c0.206,0.014,0.412,0.021,0.618,0.021c4.713,0,8.533-3.82,8.533-8.533
			c0.607-9.986,2.383-19.867,5.291-29.44c1.024-3.328,2.133-6.485,3.413-9.643l0.768-1.877c0.939-2.304,1.963-4.608,3.072-6.912
			c1.109-2.304,1.877-3.669,2.901-5.461l1.621-2.475c3.216-5.524,6.838-10.801,10.837-15.787
			c44.268-55.116,124.834-63.911,179.95-19.643c8.479,6.81,16.055,14.672,22.546,23.397c-13.282,1.013-26.239,4.607-38.144,10.581
			c-4.131,2.268-5.641,7.456-3.372,11.587c2.174,3.959,7.057,5.538,11.138,3.602c16.014-8.27,34.236-11.258,52.053-8.533
			l5.035,0.853h0.512c4.188,0.966,8.296,2.249,12.288,3.84l3.157,1.621c43.276,18.661,63.23,68.872,44.569,112.148
			c-10.147,23.532-30.333,41.258-54.979,48.279c-9.072,2.569-14.344,12.005-11.776,21.077c2.568,9.072,12.005,14.344,21.077,11.776
			C489.792,395.864,526.498,329.725,508.344,266.292z M131.191,214.85c-12.901,2.012-25.298,6.472-36.523,13.141
			c-21.429-52.337,3.626-112.136,55.963-133.565c36.41-14.908,78.142-7.637,107.365,18.707
			C200.459,121.649,151.987,160.531,131.191,214.85z"/>
	</g>
</g>
<g>
	<g>
		<path d="M331.822,228.479c-3.185-3.474-8.582-3.709-12.057-0.524c-0.301,0.276-0.582,0.574-0.841,0.89
			c-3.368,3.556-6.476,7.349-9.301,11.349c-2.434,4.036-1.135,9.28,2.901,11.714c3.632,2.19,8.321,1.38,11.008-1.901
			c2.36-3.338,4.955-6.503,7.765-9.472C334.772,237.351,335.007,231.953,331.822,228.479z"/>
	</g>
</g>
<g>
	<g>
		<path d="M34.935,171.16h-25.6c-4.713,0-8.533,3.82-8.533,8.533s3.82,8.533,8.533,8.533h25.6c4.713,0,8.533-3.82,8.533-8.533
			S39.648,171.16,34.935,171.16z"/>
	</g>
</g>
<g>
	<g>
		<path d="M188.535,0.493c-4.713,0-8.533,3.82-8.533,8.533v25.6c0,4.713,3.82,8.533,8.533,8.533s8.533-3.82,8.533-8.533v-25.6
			C197.068,4.313,193.248,0.493,188.535,0.493z"/>
	</g>
</g>
<g>
	<g>
		<path d="M314.154,49.389c-3.195-2.736-7.906-2.736-11.101,0L285.047,67.48c-3.3,3.364-3.248,8.767,0.116,12.067
			c1.545,1.516,3.608,2.388,5.772,2.439c2.268,0.013,4.448-0.877,6.059-2.475l18.091-18.091
			C318.15,57.841,317.733,52.454,314.154,49.389z"/>
	</g>
</g>
<g>
	<g>
		<path d="M86.135,73.453L67.874,55.362c-3.346-3.346-8.771-3.346-12.117,0c-3.346,3.346-3.346,8.771,0,12.117l18.091,18.347
			c3.417,3.393,8.937,3.374,12.331-0.043C89.571,82.367,89.552,76.846,86.135,73.453z"/>
	</g>
</g>
<g>
	<g>
		<path d="M200.589,342.847c-3.977-2.528-9.251-1.354-11.779,2.623c-0.129,0.202-0.249,0.41-0.36,0.623l-24.32,42.069
			c-2.357,4.081-0.958,9.3,3.123,11.657c1.282,0.74,2.735,1.134,4.216,1.143c3.061,0.012,5.894-1.616,7.424-4.267l24.32-42.069
			C205.741,350.649,204.566,345.375,200.589,342.847z"/>
	</g>
</g>
<g>
	<g>
		<path d="M152.122,425.979c-0.008-0.005-0.016-0.009-0.024-0.014c-4.078-2.362-9.299-0.972-11.661,3.106
			c-0.01,0.017-0.02,0.034-0.029,0.051l-14.763,25.6c-2.185,4.176-0.57,9.332,3.606,11.517c3.929,2.055,8.778,0.759,11.157-2.983
			l14.763-25.6C157.553,433.59,156.188,428.362,152.122,425.979z"/>
	</g>
</g>
<g>
	<g>
		<path d="M338.402,351.38c-3.977-2.528-9.251-1.354-11.779,2.623c-0.129,0.202-0.249,0.41-0.36,0.623l-18.261,31.744
			c-2.403,4.053-1.066,9.287,2.987,11.691c4.078,2.362,9.299,0.972,11.661-3.106c0.01-0.017,0.02-0.034,0.029-0.051l18.347-31.744
			C343.554,359.182,342.38,353.909,338.402,351.38z"/>
	</g>
</g>
<g>
	<g>
		<path d="M303.759,410.619c-0.008-0.005-0.016-0.009-0.024-0.014c-4.078-2.362-9.299-0.972-11.661,3.106
			c-0.01,0.017-0.02,0.034-0.029,0.051l-38.4,66.475c-2.185,4.176-0.57,9.332,3.606,11.517c3.929,2.055,8.778,0.759,11.157-2.983
			l38.4-66.475C309.19,418.23,307.825,413.002,303.759,410.619z"/>
	</g>
</g>
<g>
	<g>
		<path d="M30.72,419.765c-0.017-0.01-0.034-0.02-0.051-0.029c-4.078-2.362-9.299-0.972-11.661,3.106
			c-0.01,0.017-0.02,0.034-0.029,0.051L5.58,446.104c-2.185,4.176-0.57,9.332,3.606,11.517c3.929,2.055,8.778,0.759,11.157-2.983
			l13.483-23.211C36.188,427.348,34.797,422.127,30.72,419.765z"/>
	</g>
</g>
<g>
	<g>
		<path d="M431.735,434.584c-4.078-2.362-9.299-0.972-11.661,3.106c-0.01,0.017-0.02,0.034-0.029,0.051l-6.229,10.752
			c-2.185,4.176-0.57,9.332,3.606,11.517c3.929,2.055,8.778,0.759,11.157-2.983l6.229-10.837
			C437.137,442.133,435.767,436.956,431.735,434.584z"/>
	</g>
</g>
<g>
	<g>
		<path d="M410.426,470.95c-0.008-0.005-0.016-0.009-0.024-0.014c-4.078-2.362-9.299-0.972-11.661,3.106
			c-0.01,0.017-0.02,0.034-0.029,0.051l-4.949,8.533c-2.528,3.977-1.354,9.251,2.623,11.779c3.977,2.528,9.251,1.354,11.779-2.623
			c0.129-0.202,0.249-0.41,0.36-0.623l4.949-8.533C415.857,478.56,414.492,473.332,410.426,470.95z"/>
	</g>
</g>
<g>
	<g>
		<path d="M103.202,418.626h-8.533v-8.533c0-4.713-3.821-8.533-8.533-8.533s-8.533,3.82-8.533,8.533v8.533h-8.533
			c-4.713,0-8.533,3.82-8.533,8.533s3.82,8.533,8.533,8.533h8.533v8.533c0,4.713,3.82,8.533,8.533,8.533s8.533-3.82,8.533-8.533
			v-8.533h8.533c4.713,0,8.533-3.82,8.533-8.533S107.915,418.626,103.202,418.626z"/>
	</g>
</g>
<g>
	<g>
		<path d="M137.335,358.893h-8.533v-8.533c0-4.713-3.82-8.533-8.533-8.533s-8.533,3.82-8.533,8.533v8.533h-8.533
			c-4.713,0-8.533,3.82-8.533,8.533s3.82,8.533,8.533,8.533h8.533v8.533c0,4.713,3.82,8.533,8.533,8.533s8.533-3.82,8.533-8.533
			v-8.533h8.533c4.713,0,8.533-3.82,8.533-8.533S142.048,358.893,137.335,358.893z"/>
	</g>
</g>
<g>
	<g>
		<path d="M205.602,478.36h-8.533v-8.533c0-4.713-3.82-8.533-8.533-8.533s-8.533,3.82-8.533,8.533v8.533h-8.533
			c-4.713,0-8.533,3.82-8.533,8.533s3.82,8.533,8.533,8.533h8.533v8.533c0,4.713,3.82,8.533,8.533,8.533s8.533-3.82,8.533-8.533
			v-8.533h8.533c4.713,0,8.533-3.82,8.533-8.533S210.315,478.36,205.602,478.36z"/>
	</g>
</g>
<g>
	<g>
		<path d="M273.868,358.893h-8.533v-8.533c0-4.713-3.82-8.533-8.533-8.533s-8.533,3.82-8.533,8.533v8.533h-8.533
			c-4.713,0-8.533,3.82-8.533,8.533s3.82,8.533,8.533,8.533h8.533v8.533c0,4.713,3.82,8.533,8.533,8.533s8.533-3.82,8.533-8.533
			v-8.533h8.533c4.713,0,8.533-3.82,8.533-8.533S278.581,358.893,273.868,358.893z"/>
	</g>
</g>
<g>
	<g>
		<path d="M239.735,418.626h-8.533v-8.533c0-4.713-3.82-8.533-8.533-8.533s-8.533,3.82-8.533,8.533v8.533h-8.533
			c-4.713,0-8.533,3.82-8.533,8.533s3.82,8.533,8.533,8.533h8.533v8.533c0,4.713,3.82,8.533,8.533,8.533s8.533-3.82,8.533-8.533
			v-8.533h8.533c4.713,0,8.533-3.82,8.533-8.533S244.448,418.626,239.735,418.626z"/>
	</g>
</g>
<g>
	<g>
		<path d="M342.135,478.36h-8.533v-8.533c0-4.713-3.82-8.533-8.533-8.533s-8.533,3.82-8.533,8.533v8.533h-8.533
			c-4.713,0-8.533,3.82-8.533,8.533s3.82,8.533,8.533,8.533h8.533v8.533c0,4.713,3.82,8.533,8.533,8.533s8.533-3.82,8.533-8.533
			v-8.533h8.533c4.713,0,8.533-3.82,8.533-8.533S346.848,478.36,342.135,478.36z"/>
	</g>
</g>
<g>
	<g>
		<path d="M376.268,418.626h-8.533v-8.533c0-4.713-3.82-8.533-8.533-8.533s-8.533,3.82-8.533,8.533v8.533h-8.533
			c-4.713,0-8.533,3.82-8.533,8.533s3.821,8.533,8.533,8.533h8.533v8.533c0,4.713,3.82,8.533,8.533,8.533s8.533-3.82,8.533-8.533
			v-8.533h8.533c4.713,0,8.533-3.82,8.533-8.533S380.981,418.626,376.268,418.626z"/>
	</g>
</g>
<g>
	<g>
		<path d="M410.402,358.893h-8.533v-8.533c0-4.713-3.821-8.533-8.533-8.533c-4.713,0-8.533,3.82-8.533,8.533v8.533h-8.533
			c-4.713,0-8.533,3.82-8.533,8.533s3.82,8.533,8.533,8.533h8.533v8.533c0,4.713,3.821,8.533,8.533,8.533
			c4.713,0,8.533-3.82,8.533-8.533v-8.533h8.533c4.713,0,8.533-3.82,8.533-8.533S415.115,358.893,410.402,358.893z"/>
	</g>
</g>
<g>
</g>
<g>
</g>
<g>
</g>
<g>
</g>
<g>
</g>
<g>
</g>
<g>
</g>
<g>
</g>
<g>
</g>
<g>
</g>
<g>
</g>
<g>
</g>
<g>
</g>
<g>
</g>
<g>
</g>
</svg>
