<?xml version="1.0" encoding="iso-8859-1"?>
<!-- Generator: Adobe Illustrator 19.0.0, SVG Export Plug-In . SVG Version: 6.00 Build 0)  -->
<svg version="1.1" id="Layer_1" xmlns="http://www.w3.org/2000/svg" xmlns:xlink="http://www.w3.org/1999/xlink" x="0px" y="0px"
	 viewBox="0 0 512.006 512.006" style="enable-background:new 0 0 512.006 512.006;" xml:space="preserve">
<g>
	<g>
		<path d="M507.364,240.178c-12.401-43.329-48.13-75.993-92.396-84.466c-50.698-73.809-151.632-92.544-225.441-41.845
			c-10.062,6.912-19.312,14.938-27.573,23.925v-1.28c0.029-30.091,13.293-58.646,36.267-78.08
			c7.189-6.096,8.074-16.866,1.978-24.055c-2.428-2.863-5.733-4.846-9.402-5.641C117.094,12.807,44.432,59.642,28.503,133.346
			c-2.043,9.453-3.076,19.096-3.081,28.767c0.057,28.369,9.011,56.006,25.6,79.019c-36.477,9.533-58.32,46.832-48.787,83.31
			c7.834,29.975,34.871,50.916,65.853,51.005c9.426,0,17.067-7.641,17.067-17.067s-7.641-17.067-17.067-17.067
			c-18.851,0.259-34.343-14.813-34.603-33.664s14.813-34.343,33.664-34.603c5.153-0.707,10.378-0.707,15.531,0
			c50.752,36.449,119.808,33.634,167.424-6.827c7.189-6.096,8.074-16.866,1.978-24.055c-2.428-2.863-5.733-4.846-9.402-5.641
			c-31.041-6.782-57.176-27.588-70.741-56.32c0.797-0.809,1.512-1.695,2.133-2.645c38.679-59.172,118.004-75.785,177.176-37.105
			c12.57,8.217,23.596,18.581,32.574,30.62c-13.284,1-26.243,4.594-38.144,10.581c-4.131,2.268-5.641,7.456-3.372,11.587
			c2.174,3.959,7.057,5.538,11.138,3.602c15.99-8.252,34.179-11.239,51.968-8.533l5.12,0.853c4.306,0.977,8.528,2.289,12.629,3.925
			l3.328,1.536c43.276,18.661,63.23,68.872,44.569,112.148c-10.147,23.532-30.333,41.258-54.979,48.279
			c-9.072,2.569-14.344,12.005-11.776,21.077c2.568,9.072,12.005,14.344,21.077,11.776
			C488.812,369.751,525.518,303.611,507.364,240.178z M188.34,249.792c3.879,2.608,7.89,5.015,12.015,7.211
			c-52.376,21.332-112.129-3.834-133.461-56.21c-21.332-52.376,3.834-112.129,56.21-133.461c8.986-3.66,18.447-6.024,28.099-7.022
			C109.134,122.889,125.761,207.723,188.34,249.792z"/>
	</g>
</g>
<g>
	<g>
		<path d="M329.934,202.347c-3.44-3.228-8.846-3.056-12.075,0.384c-3.365,3.558-6.473,7.351-9.301,11.349
			c-2.697,3.844-1.782,9.144,2.048,11.861c3.836,2.738,9.165,1.849,11.903-1.987c0.015-0.02,0.029-0.041,0.043-0.061
			c2.362-3.336,4.957-6.501,7.765-9.472C333.546,210.981,333.374,205.575,329.934,202.347z"/>
	</g>
</g>
<g>
	<g>
		<path d="M102.222,392.513h-8.533v-8.533c0-4.713-3.821-8.533-8.533-8.533s-8.533,3.82-8.533,8.533v8.533h-8.533
			c-4.713,0-8.533,3.82-8.533,8.533s3.82,8.533,8.533,8.533h8.533v8.533c0,4.713,3.82,8.533,8.533,8.533s8.533-3.82,8.533-8.533
			v-8.533h8.533c4.713,0,8.533-3.82,8.533-8.533S106.935,392.513,102.222,392.513z"/>
	</g>
</g>
<g>
	<g>
		<path d="M136.355,332.779h-8.533v-8.533c0-4.713-3.82-8.533-8.533-8.533s-8.533,3.82-8.533,8.533v8.533h-8.533
			c-4.713,0-8.533,3.82-8.533,8.533s3.82,8.533,8.533,8.533h8.533v8.533c0,4.713,3.82,8.533,8.533,8.533s8.533-3.82,8.533-8.533
			v-8.533h8.533c4.713,0,8.533-3.82,8.533-8.533S141.068,332.779,136.355,332.779z"/>
	</g>
</g>
<g>
	<g>
		<path d="M170.488,392.513h-8.533v-8.533c0-4.713-3.821-8.533-8.533-8.533c-4.713,0-8.533,3.82-8.533,8.533v8.533h-8.533
			c-4.713,0-8.533,3.82-8.533,8.533s3.82,8.533,8.533,8.533h8.533v8.533c0,4.713,3.821,8.533,8.533,8.533
			c4.713,0,8.533-3.82,8.533-8.533v-8.533h8.533c4.713,0,8.533-3.82,8.533-8.533S175.201,392.513,170.488,392.513z"/>
	</g>
</g>
<g>
	<g>
		<path d="M136.355,452.246h-8.533v-8.533c0-4.713-3.82-8.533-8.533-8.533s-8.533,3.82-8.533,8.533v8.533h-8.533
			c-4.713,0-8.533,3.82-8.533,8.533s3.82,8.533,8.533,8.533h8.533v8.533c0,4.713,3.82,8.533,8.533,8.533s8.533-3.82,8.533-8.533
			v-8.533h8.533c4.713,0,8.533-3.82,8.533-8.533S141.068,452.246,136.355,452.246z"/>
	</g>
</g>
<g>
	<g>
		<path d="M204.622,452.246h-8.533v-8.533c0-4.713-3.82-8.533-8.533-8.533s-8.533,3.82-8.533,8.533v8.533h-8.533
			c-4.713,0-8.533,3.82-8.533,8.533s3.82,8.533,8.533,8.533h8.533v8.533c0,4.713,3.82,8.533,8.533,8.533s8.533-3.82,8.533-8.533
			v-8.533h8.533c4.713,0,8.533-3.82,8.533-8.533S209.335,452.246,204.622,452.246z"/>
	</g>
</g>
<g>
	<g>
		<path d="M204.622,332.779h-8.533v-8.533c0-4.713-3.82-8.533-8.533-8.533s-8.533,3.82-8.533,8.533v8.533h-8.533
			c-4.713,0-8.533,3.82-8.533,8.533s3.82,8.533,8.533,8.533h8.533v8.533c0,4.713,3.82,8.533,8.533,8.533s8.533-3.82,8.533-8.533
			v-8.533h8.533c4.713,0,8.533-3.82,8.533-8.533S209.335,332.779,204.622,332.779z"/>
	</g>
</g>
<g>
	<g>
		<path d="M272.888,332.779h-8.533v-8.533c0-4.713-3.82-8.533-8.533-8.533c-4.713,0-8.533,3.82-8.533,8.533v8.533h-8.533
			c-4.713,0-8.533,3.82-8.533,8.533s3.82,8.533,8.533,8.533h8.533v8.533c0,4.713,3.82,8.533,8.533,8.533
			c4.713,0,8.533-3.82,8.533-8.533v-8.533h8.533c4.713,0,8.533-3.82,8.533-8.533S277.601,332.779,272.888,332.779z"/>
	</g>
</g>
<g>
	<g>
		<path d="M341.155,332.779h-8.533v-8.533c0-4.713-3.82-8.533-8.533-8.533s-8.533,3.82-8.533,8.533v8.533h-8.533
			c-4.713,0-8.533,3.82-8.533,8.533s3.82,8.533,8.533,8.533h8.533v8.533c0,4.713,3.82,8.533,8.533,8.533s8.533-3.82,8.533-8.533
			v-8.533h8.533c4.713,0,8.533-3.82,8.533-8.533S345.868,332.779,341.155,332.779z"/>
	</g>
</g>
<g>
	<g>
		<path d="M307.022,392.513h-8.533v-8.533c0-4.713-3.82-8.533-8.533-8.533s-8.533,3.82-8.533,8.533v8.533h-8.533
			c-4.713,0-8.533,3.82-8.533,8.533s3.821,8.533,8.533,8.533h8.533v8.533c0,4.713,3.82,8.533,8.533,8.533s8.533-3.82,8.533-8.533
			v-8.533h8.533c4.713,0,8.533-3.82,8.533-8.533S311.735,392.513,307.022,392.513z"/>
	</g>
</g>
<g>
	<g>
		<path d="M238.755,392.513h-8.533v-8.533c0-4.713-3.82-8.533-8.533-8.533s-8.533,3.82-8.533,8.533v8.533h-8.533
			c-4.713,0-8.533,3.82-8.533,8.533s3.82,8.533,8.533,8.533h8.533v8.533c0,4.713,3.82,8.533,8.533,8.533s8.533-3.82,8.533-8.533
			v-8.533h8.533c4.713,0,8.533-3.82,8.533-8.533S243.468,392.513,238.755,392.513z"/>
	</g>
</g>
<g>
	<g>
		<path d="M341.155,452.246h-8.533v-8.533c0-4.713-3.82-8.533-8.533-8.533s-8.533,3.82-8.533,8.533v8.533h-8.533
			c-4.713,0-8.533,3.82-8.533,8.533s3.82,8.533,8.533,8.533h8.533v8.533c0,4.713,3.82,8.533,8.533,8.533s8.533-3.82,8.533-8.533
			v-8.533h8.533c4.713,0,8.533-3.82,8.533-8.533S345.868,452.246,341.155,452.246z"/>
	</g>
</g>
<g>
	<g>
		<path d="M375.288,392.513h-8.533v-8.533c0-4.713-3.82-8.533-8.533-8.533s-8.533,3.82-8.533,8.533v8.533h-8.533
			c-4.713,0-8.533,3.82-8.533,8.533s3.821,8.533,8.533,8.533h8.533v8.533c0,4.713,3.82,8.533,8.533,8.533s8.533-3.82,8.533-8.533
			v-8.533h8.533c4.713,0,8.533-3.82,8.533-8.533S380.001,392.513,375.288,392.513z"/>
	</g>
</g>
<g>
	<g>
		<path d="M409.422,332.779h-8.533v-8.533c0-4.713-3.821-8.533-8.533-8.533c-4.713,0-8.533,3.82-8.533,8.533v8.533h-8.533
			c-4.713,0-8.533,3.82-8.533,8.533s3.82,8.533,8.533,8.533h8.533v8.533c0,4.713,3.821,8.533,8.533,8.533
			c4.713,0,8.533-3.82,8.533-8.533v-8.533h8.533c4.713,0,8.533-3.82,8.533-8.533S414.135,332.779,409.422,332.779z"/>
	</g>
</g>
<g>
</g>
<g>
</g>
<g>
</g>
<g>
</g>
<g>
</g>
<g>
</g>
<g>
</g>
<g>
</g>
<g>
</g>
<g>
</g>
<g>
</g>
<g>
</g>
<g>
</g>
<g>
</g>
<g>
</g>
</svg>
