<?xml version="1.0" encoding="iso-8859-1"?>
<!-- Generator: Adobe Illustrator 19.0.0, SVG Export Plug-In . SVG Version: 6.00 Build 0)  -->
<svg version="1.1" id="Layer_1" xmlns="http://www.w3.org/2000/svg" xmlns:xlink="http://www.w3.org/1999/xlink" x="0px" y="0px"
	 viewBox="0 0 512.956 512.956" style="enable-background:new 0 0 512.956 512.956;" xml:space="preserve">
<g>
	<g>
		<path d="M415.965,156.16c-50.644-73.846-151.564-92.655-225.41-42.01c-10.073,6.908-19.333,14.932-27.604,23.92v-1.109
			c0.029-30.091,13.293-58.646,36.267-78.08c7.189-6.096,8.074-16.866,1.978-24.055c-2.428-2.863-5.733-4.846-9.402-5.641
			C118.091,13.255,45.429,60.09,29.5,133.794c-2.043,9.453-3.076,19.096-3.081,28.767c0.057,28.369,9.011,56.006,25.6,79.019
			c-36.617,8.982-59.019,45.948-50.037,82.565c8.982,36.617,45.948,59.019,82.565,50.037c4.065-0.997,8.03-2.366,11.845-4.09
			c8.823-3.315,13.289-13.156,9.973-21.979c-3.315-8.823-13.156-13.289-21.979-9.973c-0.561,0.211-1.111,0.451-1.648,0.72
			c-4.303,1.897-8.951,2.885-13.653,2.901c-18.851,0.259-34.343-14.813-34.603-33.664s14.813-34.343,33.664-34.603
			c5.703-0.599,11.464-0.282,17.067,0.939c50.714,35.63,119.101,32.472,166.315-7.68c7.189-6.096,8.074-16.866,1.978-24.055
			c-2.428-2.863-5.733-4.846-9.402-5.641c-30.891-6.737-56.937-27.367-70.571-55.893c37.123-60.161,115.987-78.836,176.148-41.713
			c13.614,8.401,25.532,19.278,35.138,32.07c-13.284,1-26.243,4.594-38.144,10.581c-4.131,2.268-5.641,7.456-3.372,11.587
			c2.174,3.959,7.057,5.538,11.138,3.602c21.757-10.905,47.107-12.114,69.803-3.328l3.243,1.109
			c43.312,18.579,63.362,68.751,44.783,112.063c-13.524,31.527-44.612,51.89-78.916,51.692c-9.426,0-17.067,7.641-17.067,17.067
			c0,9.426,7.641,17.067,17.067,17.067c65.98,0.076,119.528-53.349,119.604-119.329C513.022,216.266,472.306,166.952,415.965,156.16
			z M189.336,250.24c3.879,2.608,7.89,5.015,12.015,7.211c-52.376,21.332-112.129-3.834-133.461-56.21
			c-21.332-52.376,3.834-112.129,56.21-133.461c8.986-3.66,18.447-6.024,28.099-7.022
			C110.131,123.337,126.757,208.171,189.336,250.24z"/>
	</g>
</g>
<g>
	<g>
		<path d="M330.93,202.795c-3.44-3.228-8.846-3.056-12.075,0.384c-3.365,3.558-6.473,7.351-9.301,11.349
			c-2.697,3.844-1.782,9.144,2.048,11.861c3.836,2.738,9.165,1.849,11.903-1.987c0.015-0.02,0.029-0.041,0.043-0.061
			c2.362-3.336,4.957-6.501,7.765-9.472C334.543,211.429,334.371,206.023,330.93,202.795z"/>
	</g>
</g>
<g>
	<g>
		<path d="M111.752,436.821c-4.066-2.383-9.294-1.018-11.677,3.048c-0.005,0.008-0.009,0.016-0.014,0.024l-4.949,8.533
			c-2.185,4.176-0.57,9.332,3.606,11.517c3.929,2.055,8.778,0.759,11.157-2.983l4.949-8.533
			C117.154,444.37,115.784,439.194,111.752,436.821z"/>
	</g>
</g>
<g>
	<g>
		<path d="M73.376,394.083c-0.008-0.005-0.016-0.009-0.024-0.014c-4.078-2.362-9.299-0.972-11.661,3.106
			c-0.01,0.017-0.02,0.034-0.029,0.051l-8.533,14.763c-2.185,4.176-0.57,9.332,3.606,11.517c3.929,2.055,8.778,0.759,11.157-2.983
			l8.533-14.763C78.806,401.694,77.442,396.466,73.376,394.083z"/>
	</g>
</g>
<g>
	<g>
		<path d="M408.821,411.15c-0.008-0.005-0.016-0.009-0.024-0.014c-4.078-2.362-9.299-0.972-11.661,3.106
			c-0.01,0.017-0.02,0.034-0.029,0.051l-11.179,19.371c-2.185,4.176-0.57,9.332,3.606,11.517c3.929,2.055,8.778,0.759,11.157-2.983
			l11.179-19.371C414.252,418.761,412.887,413.533,408.821,411.15z"/>
	</g>
</g>
<g>
	<g>
		<path d="M366.752,385.55c-0.008-0.005-0.016-0.009-0.024-0.014c-4.078-2.362-9.299-0.972-11.661,3.106
			c-0.01,0.017-0.02,0.034-0.029,0.051l-9.813,17.067c-2.185,4.176-0.57,9.332,3.606,11.517c3.929,2.055,8.778,0.759,11.157-2.983
			l9.813-17.067C372.182,393.161,370.818,387.933,366.752,385.55z"/>
	</g>
</g>
<g>
	<g>
		<path d="M342.176,428.217c-0.008-0.005-0.016-0.009-0.024-0.014c-4.078-2.362-9.299-0.972-11.661,3.106
			c-0.01,0.017-0.02,0.034-0.029,0.051l-8.533,14.677c-2.185,4.176-0.57,9.332,3.606,11.517c3.929,2.055,8.778,0.759,11.157-2.983
			l8.533-14.677C347.606,435.827,346.242,430.6,342.176,428.217z"/>
	</g>
</g>
<g>
	<g>
		<path d="M157.171,317.181c-3.977-2.528-9.251-1.354-11.779,2.623c-0.129,0.202-0.249,0.41-0.36,0.623l-4.949,8.533
			c-2.383,4.066-1.018,9.294,3.048,11.677c0.008,0.005,0.016,0.009,0.024,0.014c4.078,2.362,9.299,0.972,11.661-3.106
			c0.01-0.017,0.02-0.034,0.029-0.051l4.949-8.533C162.323,324.983,161.148,319.709,157.171,317.181z"/>
	</g>
</g>
<g>
	<g>
		<path d="M361.864,355.328c-0.76-3.229-3.323-5.725-6.571-6.4l-24.747-5.291l17.749-18.517c3.275-3.393,3.18-8.799-0.213-12.075
			c-3.393-3.275-8.799-3.18-12.075,0.213l-28.416,29.525c-3.264,3.4-3.154,8.801,0.245,12.065c1.14,1.095,2.562,1.851,4.107,2.185
			l21.675,4.779l-49.579,39.083l11.349-22.784c2.124-4.207,0.436-9.339-3.771-11.464c-0.67-0.338-1.382-0.587-2.117-0.739
			l-28.331-5.973l8.448-13.909c2.528-3.977,1.354-9.251-2.623-11.779c-3.977-2.528-9.251-1.354-11.779,2.623
			c-0.129,0.202-0.249,0.41-0.36,0.623l-10.667,18.432l-34.133-7.168l19.712-34.133c2.185-4.176,0.57-9.332-3.606-11.517
			c-3.929-2.055-8.778-0.759-11.157,2.983l-25.6,44.373c-2.362,4.078-0.972,9.299,3.106,11.661c0.785,0.455,1.638,0.782,2.526,0.968
			l43.605,9.216l-72.96,67.755l21.589-43.264c2.256-4.138,0.731-9.321-3.407-11.577c-0.648-0.353-1.338-0.621-2.055-0.796
			l-48.213-10.24l8.533-15.189c2.185-4.176,0.57-9.332-3.606-11.517c-3.929-2.055-8.778-0.759-11.157,2.983l-14.592,25.6
			c-2.362,4.078-0.972,9.299,3.106,11.661c0.785,0.455,1.638,0.782,2.526,0.968l10.411,2.133l-16.555,28.331
			c-2.184,4.176-0.57,9.332,3.606,11.517c3.929,2.055,8.778,0.759,11.157-2.983l17.749-30.464c0.535-0.865,0.91-1.819,1.109-2.816
			l21.76,4.608l-37.717,75.435c-2.151,4.193-0.495,9.336,3.698,11.487c3.231,1.657,7.157,1.088,9.785-1.418l115.712-107.605
			l16.469,3.499l-23.552,46.677c-2.993,3.676-2.439,9.082,1.237,12.075c3.676,2.993,9.082,2.439,12.075-1.237l93.867-73.984
			C361.67,361.812,362.695,358.47,361.864,355.328z"/>
	</g>
</g>
<g>
</g>
<g>
</g>
<g>
</g>
<g>
</g>
<g>
</g>
<g>
</g>
<g>
</g>
<g>
</g>
<g>
</g>
<g>
</g>
<g>
</g>
<g>
</g>
<g>
</g>
<g>
</g>
<g>
</g>
</svg>
