<?xml version="1.0" encoding="iso-8859-1"?>
<!-- Generator: Adobe Illustrator 19.0.0, SVG Export Plug-In . SVG Version: 6.00 Build 0)  -->
<svg version="1.1" id="Layer_1" xmlns="http://www.w3.org/2000/svg" xmlns:xlink="http://www.w3.org/1999/xlink" x="0px" y="0px"
	 viewBox="0 0 513.145 513.145" style="enable-background:new 0 0 513.145 513.145;" xml:space="preserve">
<g>
	<g>
		<path d="M509.844,245.972c-10.933-45.737-47.681-80.806-93.879-89.589c-50.644-73.846-151.564-92.655-225.41-42.01
			c-10.073,6.908-19.333,14.932-27.604,23.92v-1.109c0.029-30.091,13.293-58.646,36.267-78.08
			c7.189-6.096,8.074-16.866,1.978-24.055c-2.428-2.863-5.733-4.846-9.402-5.641C118.091,13.477,45.429,60.313,29.5,134.016
			c-2.043,9.453-3.076,19.096-3.081,28.767c0.057,28.369,9.011,56.006,25.6,79.019c-36.617,8.982-59.019,45.948-50.037,82.565
			c8.982,36.617,45.948,59.019,82.565,50.037c4.065-0.997,8.03-2.366,11.845-4.09c8.823-3.315,13.289-13.156,9.973-21.979
			c-3.315-8.823-13.156-13.289-21.979-9.973c-0.561,0.211-1.111,0.451-1.648,0.72c-4.303,1.897-8.951,2.885-13.653,2.901
			c-18.851,0.259-34.343-14.813-34.603-33.664s14.813-34.343,33.664-34.603c5.497-0.587,11.051-0.328,16.469,0.768
			c50.711,35.767,119.2,32.677,166.485-7.509c7.189-6.096,8.074-16.866,1.978-24.055c-2.428-2.863-5.733-4.846-9.402-5.641
			c-30.891-6.737-56.937-27.367-70.571-55.893c36.95-60.267,115.76-79.169,176.027-42.218c13.855,8.495,25.966,19.55,35.685,32.576
			c-13.284,1-26.243,4.594-38.144,10.581c-4.131,2.268-5.641,7.456-3.372,11.587c2.174,3.959,7.057,5.538,11.138,3.602
			c15.965-8.234,34.121-11.221,51.883-8.533c6.13,0.933,12.139,2.536,17.92,4.779l3.243,1.536
			c43.284,18.644,63.259,68.846,44.615,112.13c-10.65,24.725-32.342,42.974-58.524,49.236c-9.19,2.093-14.944,11.24-12.851,20.43
			c1.78,7.816,8.76,13.34,16.776,13.276c1.321,0.01,2.638-0.133,3.925-0.427C485.598,374.6,525.184,310.144,509.844,245.972z
			 M189.336,250.462c3.879,2.608,7.89,5.015,12.015,7.211c-52.376,21.332-112.129-3.834-133.461-56.21
			c-21.332-52.376,3.834-112.129,56.21-133.461c8.986-3.66,18.447-6.024,28.099-7.022
			C110.131,123.559,126.757,208.393,189.336,250.462z"/>
	</g>
</g>
<g>
	<g>
		<path d="M330.93,203.017c-3.44-3.228-8.846-3.056-12.075,0.384c-3.365,3.558-6.473,7.351-9.301,11.349
			c-2.697,3.844-1.782,9.144,2.048,11.861c1.451,1.013,3.18,1.549,4.949,1.536c2.777,0.015,5.387-1.322,6.997-3.584
			c2.362-3.336,4.957-6.501,7.765-9.472C334.543,211.652,334.371,206.246,330.93,203.017z"/>
	</g>
</g>
<g>
	<g>
		<path d="M208.371,317.403c-3.977-2.528-9.251-1.354-11.779,2.623c-0.129,0.202-0.249,0.41-0.36,0.623l-4.949,8.533
			c-2.357,4.081-0.958,9.3,3.123,11.657c1.282,0.74,2.735,1.134,4.215,1.143c3.061,0.012,5.894-1.616,7.424-4.267l4.949-8.533
			C213.523,325.205,212.348,319.932,208.371,317.403z"/>
	</g>
</g>
<g>
	<g>
		<path d="M387.993,394.452c-1.131-1.289-2.624-2.207-4.284-2.635l-24.491-5.291l17.749-18.517c3.275-3.393,3.18-8.799-0.213-12.075
			s-8.799-3.18-12.075,0.213l-28.416,29.525c-3.264,3.4-3.154,8.801,0.245,12.065c1.14,1.095,2.562,1.851,4.107,2.185l22.016,4.693
			L313.053,443.7l11.349-22.784c2.124-4.207,0.436-9.339-3.771-11.464c-0.67-0.338-1.382-0.587-2.117-0.739l-34.133-7.253
			l29.867-27.733c3.454-3.206,3.655-8.605,0.449-12.06c-1.292-1.392-3.012-2.313-4.886-2.618l-48.213-10.24l19.712-34.133
			c2.528-3.977,1.354-9.251-2.623-11.779c-3.977-2.528-9.251-1.354-11.779,2.623c-0.129,0.202-0.249,0.41-0.36,0.623l-25.6,44.373
			c-2.362,4.078-0.972,9.299,3.106,11.661c0.785,0.455,1.638,0.782,2.526,0.968l43.605,9.216l-72.96,67.755l21.589-43.264
			c2.133-4.202,0.456-9.338-3.746-11.472c-0.651-0.331-1.342-0.576-2.056-0.731l-48.213-10.24l11.179-19.371
			c2.184-4.176,0.57-9.332-3.606-11.517c-3.929-2.055-8.778-0.759-11.157,2.983l-17.067,29.525
			c-2.362,4.078-0.972,9.299,3.106,11.661c0.785,0.455,1.638,0.782,2.526,0.968l48.896,10.325l-37.717,75.435
			c-2.151,4.193-0.495,9.336,3.698,11.487c3.231,1.657,7.157,1.088,9.785-1.418l75.947-70.571c1.178,1.444,2.796,2.463,4.608,2.901
			l29.013,6.144l-23.552,47.019c-2.067,4.235-0.31,9.344,3.926,11.412c2.918,1.424,6.39,1.069,8.96-0.916l93.867-73.984
			C390.75,403.386,391.102,397.995,387.993,394.452z"/>
	</g>
</g>
<g>
	<g>
		<path d="M183.602,418.783c-2.628-3.912-7.929-4.954-11.842-2.327c-0.093,0.063-0.185,0.127-0.276,0.193l-23.979,17.067
			l8.533-21.504c1.815-4.349-0.239-9.346-4.588-11.162c-0.448-0.187-0.911-0.335-1.385-0.444l-25.6-5.888l28.331-49.067
			c2.184-4.176,0.57-9.332-3.606-11.517c-3.929-2.055-8.778-0.759-11.157,2.983l-34.133,59.136
			c-2.339,4.091-0.919,9.304,3.172,11.644c0.716,0.409,1.487,0.712,2.289,0.9l27.989,5.973l-16.384,38.997
			c-1.803,4.354,0.265,9.346,4.619,11.149c2.703,1.119,5.79,0.776,8.181-0.909l47.787-33.365
			C185.384,427.927,186.299,422.626,183.602,418.783z"/>
	</g>
</g>
<g>
</g>
<g>
</g>
<g>
</g>
<g>
</g>
<g>
</g>
<g>
</g>
<g>
</g>
<g>
</g>
<g>
</g>
<g>
</g>
<g>
</g>
<g>
</g>
<g>
</g>
<g>
</g>
<g>
</g>
</svg>
