<?xml version="1.0" encoding="iso-8859-1"?>
<!-- Generator: Adobe Illustrator 19.0.0, SVG Export Plug-In . SVG Version: 6.00 Build 0)  -->
<svg version="1.1" id="Layer_1" xmlns="http://www.w3.org/2000/svg" xmlns:xlink="http://www.w3.org/1999/xlink" x="0px" y="0px"
	 viewBox="0 0 512.171 512.171" style="enable-background:new 0 0 512.171 512.171;" xml:space="preserve">
<g>
	<g>
		<path d="M508.729,270.496c-11.097-45.415-47.666-80.183-93.582-88.977c-26.132-38.439-67.606-63.703-113.749-69.291
			c-42.059-62.586-126.89-79.227-189.476-37.168c-57.355,38.544-76.87,113.863-45.446,175.408
			c-4.046,4.75-7.645,9.864-10.752,15.275c-37.046,7.006-61.398,42.717-54.392,79.763s42.717,61.398,79.763,54.392
			c4.977-0.941,9.833-2.433,14.48-4.449c8.648-3.77,12.602-13.837,8.832-22.485s-13.837-12.602-22.485-8.832
			c-4.296,1.927-8.945,2.943-13.653,2.987c-18.851,0.259-34.343-14.813-34.603-33.664s14.813-34.343,33.664-34.603h0.939
			c7.385,0,14.572,2.395,20.48,6.827c3.767,2.832,9.117,2.074,11.949-1.693c2.832-3.767,2.074-9.117-1.693-11.949
			c-0.005-0.004-0.01-0.008-0.016-0.012c-4.324-3.239-9.134-5.774-14.251-7.509c3.476-6.676,8.031-12.731,13.483-17.92
			c0.762-0.565,1.476-1.193,2.133-1.877c10.775-9.337,24.203-15.067,38.4-16.384c-1.027,5.218-1.768,10.488-2.219,15.787
			c-0.33,4.701,3.214,8.78,7.915,9.11c0.206,0.014,0.412,0.021,0.618,0.021c4.713,0,8.533-3.82,8.533-8.533
			c0.607-9.986,2.383-19.867,5.291-29.44c1.024-3.328,2.133-6.485,3.413-9.643l0.768-1.877c0.939-2.304,1.963-4.608,3.072-6.912
			c1.109-2.304,1.877-3.669,2.901-5.461l1.621-2.475c3.216-5.524,6.838-10.801,10.837-15.787
			c44.268-55.116,124.834-63.911,179.95-19.643c8.479,6.81,16.055,14.672,22.546,23.397c-13.282,1.013-26.239,4.607-38.144,10.581
			c-4.131,2.268-5.641,7.456-3.372,11.587c2.174,3.959,7.057,5.538,11.138,3.602c15.99-8.252,34.179-11.239,51.968-8.533l5.12,0.853
			c4.306,0.977,8.528,2.289,12.629,3.925l3.328,1.536c43.276,18.663,63.228,68.874,44.565,112.15
			c-10.614,24.611-32.173,42.805-58.218,49.13c-9.166,2.215-14.802,11.442-12.587,20.608c2.215,9.166,11.442,14.802,20.608,12.587
			C485.129,399.244,524.391,334.59,508.729,270.496z M130.389,214.543c-12.901,2.012-25.298,6.472-36.523,13.141
			C72.437,175.348,97.493,115.549,149.83,94.12c36.41-14.908,78.142-7.637,107.365,18.707
			C199.658,121.342,151.185,160.224,130.389,214.543z"/>
	</g>
</g>
<g>
	<g>
		<path d="M330.112,228.154c-3.44-3.228-8.846-3.056-12.075,0.384c-3.365,3.558-6.473,7.351-9.301,11.349
			c-2.697,3.844-1.782,9.144,2.048,11.861c1.451,1.013,3.18,1.549,4.949,1.536c2.777,0.015,5.387-1.322,6.997-3.584
			c2.362-3.336,4.957-6.501,7.765-9.472C333.724,236.788,333.552,231.382,330.112,228.154z"/>
	</g>
</g>
<g>
	<g>
		<path d="M34.133,170.853h-25.6c-4.713,0-8.533,3.82-8.533,8.533s3.82,8.533,8.533,8.533h25.6c4.713,0,8.533-3.82,8.533-8.533
			S38.846,170.853,34.133,170.853z"/>
	</g>
</g>
<g>
	<g>
		<path d="M187.733,0.186c-4.713,0-8.533,3.82-8.533,8.533v25.6c0,4.713,3.82,8.533,8.533,8.533s8.533-3.82,8.533-8.533v-25.6
			C196.267,4.007,192.446,0.186,187.733,0.186z"/>
	</g>
</g>
<g>
	<g>
		<path d="M313.352,49.082c-3.195-2.736-7.906-2.736-11.101,0l-18.005,18.091c-3.3,3.364-3.248,8.767,0.116,12.067
			c1.545,1.516,3.608,2.388,5.772,2.439c2.268,0.013,4.448-0.877,6.059-2.475l18.091-18.091
			C317.348,57.534,316.931,52.148,313.352,49.082z"/>
	</g>
</g>
<g>
	<g>
		<path d="M85.333,73.146L67.072,55.055c-3.346-3.346-8.771-3.346-12.117,0c-3.346,3.346-3.346,8.771,0,12.117l18.091,18.347
			c3.417,3.393,8.937,3.374,12.331-0.043C88.769,82.06,88.75,76.539,85.333,73.146z"/>
	</g>
</g>
<g>
	<g>
		<path d="M207.553,342.54c-3.977-2.528-9.251-1.354-11.779,2.623c-0.129,0.202-0.249,0.41-0.36,0.623l-4.949,8.533
			c-2.357,4.081-0.958,9.3,3.123,11.657c1.282,0.74,2.735,1.134,4.215,1.143c3.061,0.012,5.894-1.616,7.424-4.267l4.949-8.533
			C212.704,350.342,211.53,345.068,207.553,342.54z"/>
	</g>
</g>
<g>
	<g>
		<path d="M387.175,419.589c-1.131-1.289-2.624-2.207-4.284-2.635l-24.491-5.291l17.749-18.517c3.275-3.393,3.18-8.799-0.213-12.075
			s-8.799-3.18-12.075,0.213l-28.416,29.525c-3.264,3.4-3.154,8.801,0.245,12.065c1.14,1.095,2.562,1.851,4.107,2.185l22.016,4.693
			l-49.579,39.083l11.349-22.784c2.124-4.207,0.436-9.339-3.771-11.464c-0.67-0.338-1.382-0.587-2.117-0.739l-34.133-7.253
			l29.867-27.733c3.454-3.206,3.655-8.605,0.449-12.06c-1.292-1.392-3.012-2.313-4.886-2.618l-48.213-10.24l19.712-34.133
			c2.528-3.977,1.354-9.251-2.623-11.779c-3.977-2.528-9.251-1.354-11.779,2.623c-0.129,0.202-0.249,0.41-0.36,0.623l-25.6,44.373
			c-2.362,4.078-0.972,9.299,3.106,11.661c0.785,0.455,1.638,0.782,2.526,0.968l43.605,9.216l-72.96,67.755l21.589-43.264
			c2.133-4.202,0.456-9.338-3.746-11.472c-0.651-0.331-1.342-0.576-2.056-0.731l-48.213-10.24l11.179-19.371
			c2.184-4.176,0.57-9.332-3.606-11.517c-3.929-2.055-8.778-0.759-11.157,2.983l-17.067,29.525
			c-2.362,4.078-0.972,9.299,3.106,11.661c0.785,0.455,1.638,0.782,2.526,0.968l48.896,10.325l-37.717,75.435
			c-2.151,4.193-0.495,9.336,3.698,11.487c3.231,1.657,7.157,1.088,9.785-1.418l75.947-70.571c1.178,1.444,2.796,2.463,4.608,2.901
			l29.013,6.144l-23.552,47.019c-2.067,4.235-0.31,9.344,3.926,11.412c2.918,1.424,6.39,1.069,8.96-0.916l93.867-73.984
			C389.932,428.523,390.283,423.131,387.175,419.589z"/>
	</g>
</g>
<g>
	<g>
		<path d="M182.784,443.919c-2.628-3.912-7.929-4.954-11.842-2.327c-0.093,0.063-0.185,0.127-0.276,0.193l-23.893,17.067
			l8.533-21.504c1.815-4.349-0.239-9.346-4.588-11.162c-0.448-0.187-0.911-0.335-1.385-0.444l-25.6-5.888l28.331-49.067
			c2.184-4.176,0.57-9.332-3.606-11.517c-3.929-2.055-8.778-0.759-11.157,2.983l-34.133,59.136
			c-2.339,4.091-0.919,9.304,3.172,11.644c0.716,0.409,1.487,0.712,2.289,0.9l27.904,5.973l-16.384,38.997
			c-1.803,4.354,0.265,9.346,4.619,11.149c2.703,1.119,5.79,0.776,8.181-0.909l47.787-33.365
			C184.566,453.064,185.481,447.763,182.784,443.919z"/>
	</g>
</g>
<g>
</g>
<g>
</g>
<g>
</g>
<g>
</g>
<g>
</g>
<g>
</g>
<g>
</g>
<g>
</g>
<g>
</g>
<g>
</g>
<g>
</g>
<g>
</g>
<g>
</g>
<g>
</g>
<g>
</g>
</svg>
