<?xml version="1.0" encoding="iso-8859-1"?>
<!-- Generator: Adobe Illustrator 19.0.0, SVG Export Plug-In . SVG Version: 6.00 Build 0)  -->
<svg version="1.1" id="Layer_1" xmlns="http://www.w3.org/2000/svg" xmlns:xlink="http://www.w3.org/1999/xlink" x="0px" y="0px"
	 viewBox="0 0 511.68 511.68" style="enable-background:new 0 0 511.68 511.68;" xml:space="preserve">
<g>
	<g>
		<path d="M361.54,315.568c10.095,2.758,20.511,4.164,30.976,4.181c65.979-0.167,119.331-53.789,119.165-119.768
			c-0.144-57.031-40.579-106.007-96.551-116.947C364.435,9.223,263.503-9.518,189.691,41.176
			c-26.845,18.437-47.516,44.531-59.319,74.883c-31.462,4.614-59.025,23.514-74.667,51.2c-37.058,6.944-61.469,42.615-54.525,79.673
			s42.615,61.469,79.673,54.525c1.498-0.281,2.987-0.612,4.463-0.992c9.083,6.518,19.172,11.505,29.867,14.763l-28.843,49.92
			c-2.346,4.088-0.933,9.303,3.154,11.648c0.822,0.472,1.717,0.803,2.648,0.981l34.133,6.4l-22.955,46.507
			c-2.104,4.217-0.391,9.341,3.827,11.445c2.873,1.433,6.308,1.132,8.888-0.779l54.613-40.192l47.275,9.984l-37.717,75.435
			c-2.151,4.193-0.495,9.336,3.698,11.487c3.231,1.657,7.157,1.088,9.785-1.418l116.309-108.117l18.773,4.011l-23.552,46.677
			c-2.067,4.235-0.31,9.344,3.926,11.412c2.917,1.424,6.39,1.069,8.96-0.916l93.867-73.984c3.689-2.933,4.302-8.301,1.37-11.99
			c-1.225-1.541-2.945-2.611-4.868-3.029l-27.477-5.803l12.885-19.115c3.097-3.553,2.727-8.943-0.826-12.04
			c-3.553-3.097-8.943-2.727-12.04,0.826c-0.525,0.602-0.962,1.274-1.3,1.998l-19.883,29.525c-2.647,3.899-1.633,9.206,2.266,11.853
			c0.915,0.621,1.942,1.059,3.024,1.288l22.016,4.693l-49.579,39.083l11.349-22.784c2.124-4.207,0.436-9.339-3.771-11.464
			c-0.67-0.338-1.382-0.587-2.117-0.739l-28.331-5.973l27.136-47.019C348.604,322.33,355.19,319.166,361.54,315.568z
			 M216.388,452.102l21.589-43.264c2.176-4.181,0.551-9.333-3.63-11.509c-0.686-0.357-1.417-0.619-2.173-0.779l-48.213-10.24
			l11.179-19.371c2.184-4.176,0.57-9.332-3.606-11.517c-3.929-2.055-8.778-0.759-11.157,2.983l-14.251,24.747
			c-1.43,0.721-2.751,1.641-3.925,2.731l-27.563,20.48l12.459-24.832c2.107-4.215,0.398-9.341-3.817-11.448
			c-0.709-0.354-1.463-0.608-2.242-0.754l-33.621-6.229l25.6-44.373c19.878,2.553,40.064-0.926,57.941-9.984
			c19.597,13.26,41.893,22.004,65.28,25.6l-16.213,28.075c-2.362,4.078-0.972,9.299,3.106,11.661
			c0.785,0.455,1.638,0.782,2.526,0.968l43.605,9.216L216.388,452.102z M297.028,368.56l-36.352-7.68l14.08-24.064h6.827
			c12.208-0.014,24.375-1.417,36.267-4.181L297.028,368.56z M203.246,275.206c-5.776-4.56-13.824-4.904-19.968-0.853
			c-13.842,9.253-30.643,12.996-47.104,10.496h-1.707c-2.885-0.499-5.736-1.183-8.533-2.048l-2.304-0.768
			c-2.651-0.892-5.244-1.947-7.765-3.157l-2.987-1.792c-1.877-1.024-3.669-2.048-5.376-3.243l-2.645-1.792
			c-11.157-8.087-19.606-19.362-24.235-32.341c-1.579-4.454-6.469-6.784-10.923-5.205s-6.784,6.469-5.205,10.923
			c2.768,7.772,6.648,15.102,11.52,21.76c-2.527,0.754-5.133,1.212-7.765,1.365c-18.851,0-34.133-15.282-34.133-34.133
			c-0.007-18.491,14.711-33.625,33.195-34.133h0.939c7.385,0,14.572,2.395,20.48,6.827c3.77,2.828,9.119,2.064,11.947-1.707
			s2.064-9.119-1.707-11.947c-4.324-3.239-9.134-5.774-14.251-7.509c10.733-20.467,31.091-34.115,54.101-36.267
			c-1.062,5.273-1.831,10.6-2.304,15.957c-0.283,4.704,3.302,8.747,8.006,9.03c0.176,0.011,0.351,0.016,0.527,0.015
			c4.52,0.008,8.262-3.51,8.533-8.021c0.607-9.986,2.383-19.867,5.291-29.44c1.024-3.328,2.133-6.571,3.413-9.728l0.683-1.707
			c1.024-2.389,2.048-4.779,3.157-7.083c1.109-2.304,1.877-3.669,2.816-5.461l1.707-2.816c3.216-5.524,6.838-10.801,10.837-15.787
			c44.268-55.116,124.834-63.911,179.95-19.643c8.479,6.81,16.055,14.672,22.546,23.397c-13.29,1.024-26.25,4.648-38.144,10.667
			c-4.258,2.02-6.072,7.11-4.052,11.367c2.02,4.258,7.11,6.072,11.367,4.052c0.152-0.072,0.302-0.149,0.45-0.23
			c15.94-8.216,34.064-11.202,51.797-8.533c6.159,0.927,12.197,2.53,18.005,4.779l3.243,1.536
			c43.217,18.799,63.011,69.072,44.212,112.289c-13.563,31.18-44.343,51.333-78.346,51.295c-5.271-0.015-10.528-0.529-15.701-1.536
			c9.367-8.157,17.655-17.477,24.661-27.733c2.71-3.856,1.782-9.178-2.074-11.888c-3.856-2.71-9.178-1.782-11.888,2.074
			c-0.04,0.057-0.079,0.114-0.118,0.172c-9.94,14.405-22.717,26.63-37.547,35.925v0.427c-2.901,1.792-5.803,3.499-8.533,5.035
			C296.794,311.479,242.671,306.428,203.246,275.206z"/>
	</g>
</g>
<g>
	<g>
		<path d="M157.849,206.683c-1.364-5.248-2.39-10.578-3.072-15.957c-0.589-4.713-4.887-8.056-9.6-7.467
			c-4.713,0.589-8.056,4.887-7.467,9.6c0.75,6.125,1.89,12.196,3.413,18.176c0.998,3.709,4.351,6.293,8.192,6.315
			c4.71,0.15,8.651-3.547,8.801-8.257C158.143,208.281,158.052,207.469,157.849,206.683z"/>
	</g>
</g>
<g>
	<g>
		<path d="M330.094,129.67c-3.44-3.228-8.846-3.056-12.075,0.384c-3.368,3.556-6.476,7.349-9.301,11.349
			c-2.686,3.872-1.725,9.189,2.147,11.875c1.425,0.988,3.116,1.519,4.85,1.522c2.777,0.015,5.387-1.322,6.997-3.584
			c2.361-3.337,4.956-6.503,7.765-9.472C333.707,138.304,333.535,132.898,330.094,129.67z"/>
	</g>
</g>
<g>
	<g>
		<path d="M207.025,329.406c-0.008-0.005-0.016-0.009-0.024-0.014c-4.078-2.362-9.299-0.972-11.661,3.106
			c-0.01,0.017-0.02,0.034-0.029,0.051l-4.949,8.533c-2.185,4.176-0.57,9.332,3.606,11.517c3.929,2.055,8.778,0.759,11.157-2.983
			l4.949-8.533C212.456,337.017,211.091,331.789,207.025,329.406z"/>
	</g>
</g>
<g>
</g>
<g>
</g>
<g>
</g>
<g>
</g>
<g>
</g>
<g>
</g>
<g>
</g>
<g>
</g>
<g>
</g>
<g>
</g>
<g>
</g>
<g>
</g>
<g>
</g>
<g>
</g>
<g>
</g>
</svg>
