<?xml version="1.0" encoding="iso-8859-1"?>
<!-- Generator: Adobe Illustrator 19.0.0, SVG Export Plug-In . SVG Version: 6.00 Build 0)  -->
<svg version="1.1" id="Layer_1" xmlns="http://www.w3.org/2000/svg" xmlns:xlink="http://www.w3.org/1999/xlink" x="0px" y="0px"
	 viewBox="0 0 511.68 511.68" style="enable-background:new 0 0 511.68 511.68;" xml:space="preserve">
<g>
	<g>
		<path d="M63.921,389.14c-0.008-0.005-0.016-0.009-0.024-0.014c-4.078-2.362-9.299-0.972-11.661,3.106
			c-0.01,0.017-0.02,0.034-0.029,0.051l-8.533,14.677c-2.185,4.176-0.57,9.332,3.606,11.517c3.929,2.055,8.778,0.759,11.157-2.983
			l8.533-14.677C69.352,396.75,67.987,391.522,63.921,389.14z"/>
	</g>
</g>
<g>
	<g>
		<path d="M110.916,448.944c-4.066-2.383-9.294-1.018-11.677,3.048c-0.005,0.008-0.009,0.016-0.014,0.024l-4.949,8.533
			c-2.185,4.176-0.57,9.332,3.606,11.517c3.929,2.055,8.778,0.759,11.157-2.983l4.949-8.533
			C116.318,456.493,114.948,451.317,110.916,448.944z"/>
	</g>
</g>
<g>
	<g>
		<path d="M405.395,329.437c-0.026-0.015-0.053-0.03-0.079-0.045c-4.078-2.362-9.299-0.972-11.661,3.106
			c-0.01,0.017-0.02,0.034-0.029,0.051l-9.643,17.067c-2.185,4.176-0.57,9.332,3.606,11.517c3.929,2.055,8.778,0.759,11.157-2.983
			l9.813-17.067C410.901,336.994,409.484,331.779,405.395,329.437z"/>
	</g>
</g>
<g>
	<g>
		<path d="M459.185,320.873c-0.008-0.005-0.016-0.009-0.024-0.014c-4.078-2.362-9.299-0.972-11.661,3.106
			c-0.01,0.017-0.02,0.034-0.029,0.051l-8.533,14.763c-2.185,4.176-0.57,9.332,3.606,11.517c3.929,2.055,8.778,0.759,11.157-2.983
			l8.533-14.763C464.616,328.484,463.251,323.256,459.185,320.873z"/>
	</g>
</g>
<g>
	<g>
		<path d="M55.983,320.77c-3.977-2.528-9.251-1.354-11.779,2.623c-0.129,0.202-0.249,0.41-0.36,0.622l-8.533,14.763
			c-2.185,4.176-0.57,9.332,3.606,11.517c3.929,2.055,8.778,0.759,11.157-2.983l8.533-14.763
			C61.135,328.572,59.96,323.299,55.983,320.77z"/>
	</g>
</g>
<g>
	<g>
		<path d="M433.585,372.073c-0.008-0.005-0.016-0.009-0.024-0.014c-4.078-2.362-9.299-0.972-11.661,3.106
			c-0.01,0.017-0.02,0.034-0.029,0.051l-11.179,19.371c-2.185,4.176-0.57,9.332,3.606,11.517c3.929,2.055,8.778,0.759,11.157-2.983
			l11.179-19.371C439.016,379.684,437.651,374.456,433.585,372.073z"/>
	</g>
</g>
<g>
	<g>
		<path d="M375.473,380.606c-0.008-0.005-0.016-0.009-0.024-0.014c-4.078-2.362-9.299-0.972-11.661,3.106
			c-0.01,0.017-0.02,0.034-0.029,0.051l-19.712,34.133c-2.185,4.176-0.57,9.332,3.606,11.517c3.929,2.055,8.778,0.759,11.157-2.983
			l19.712-34.133C380.904,388.217,379.539,382.989,375.473,380.606z"/>
	</g>
</g>
<g>
	<g>
		<path d="M341.34,440.34c-0.008-0.005-0.016-0.009-0.024-0.014c-4.078-2.362-9.299-0.972-11.661,3.106
			c-0.01,0.017-0.02,0.034-0.029,0.051l-8.533,14.677c-2.185,4.176-0.57,9.332,3.606,11.517c3.929,2.055,8.778,0.759,11.157-2.983
			l8.533-14.677C346.77,447.95,345.406,442.722,341.34,440.34z"/>
	</g>
</g>
<g>
	<g>
		<path d="M415.129,83.035C364.435,9.223,263.503-9.518,189.691,41.176c-26.845,18.437-47.516,44.531-59.319,74.883
			c-31.462,4.614-59.025,23.514-74.667,51.2c-37.058,6.944-61.469,42.615-54.525,79.673s42.615,61.469,79.673,54.525
			c1.498-0.281,2.987-0.612,4.463-0.992c4.675,3.25,9.613,6.104,14.763,8.533l-30.72,53.419c-2.185,4.176-0.57,9.332,3.606,11.517
			c3.929,2.055,8.778,0.759,11.157-2.983l32.085-55.637c24.763,7.375,51.406,5.025,74.496-6.571
			c6.921,4.708,14.196,8.874,21.76,12.459l-23.637,41.216c-2.362,4.078-0.972,9.299,3.106,11.661
			c0.785,0.455,1.638,0.782,2.526,0.968l43.605,9.216l-72.96,67.755l21.589-43.264c2.143-4.198,0.477-9.337-3.721-11.48
			c-0.633-0.323-1.304-0.566-1.997-0.723l-48.213-10.24l11.179-19.371c2.185-4.176,0.57-9.332-3.606-11.517
			c-3.929-2.055-8.778-0.759-11.157,2.983l-17.067,29.525c-2.362,4.078-0.972,9.299,3.106,11.661
			c0.785,0.455,1.638,0.782,2.526,0.968l10.24,2.389l-16.555,28.331c-2.184,4.176-0.57,9.332,3.606,11.517
			c3.929,2.055,8.778,0.759,11.157-2.983l17.749-30.464c0.535-0.865,0.91-1.819,1.109-2.816l21.76,4.608l-37.717,75.435
			c-2.151,4.193-0.495,9.336,3.698,11.487c3.231,1.657,7.157,1.088,9.785-1.418L258.286,389.04l16.469,3.499l-23.552,46.677
			c-2.993,3.676-2.439,9.082,1.237,12.075c3.676,2.993,9.082,2.439,12.075-1.237l93.867-73.984c3.689-2.933,4.302-8.301,1.37-11.99
			c-1.225-1.541-2.945-2.611-4.868-3.029l-24.747-5.291l17.749-18.517c3.309-3.328,3.309-8.704,0-12.032
			c-0.685-0.604-1.463-1.094-2.304-1.451c5.706-2.522,11.262-5.371,16.64-8.533c9.859,2.814,20.042,4.334,30.293,4.523
			c65.979-0.167,119.331-53.789,119.165-119.768C511.536,142.951,471.101,93.974,415.129,83.035z M306.756,354.992
			c-3.264,3.4-3.154,8.801,0.245,12.065c1.14,1.095,2.562,1.851,4.107,2.185l21.675,4.693l-49.579,39.083l11.349-22.699
			c2.124-4.207,0.436-9.339-3.771-11.464c-0.67-0.338-1.382-0.587-2.117-0.739l-28.331-5.973l8.448-13.995
			c2.528-3.977,1.354-9.251-2.623-11.779s-9.251-1.354-11.779,2.623c-0.129,0.202-0.249,0.41-0.36,0.623l-10.667,18.432
			l-34.133-7.168l19.115-33.109c33.44,11.669,69.797,11.969,103.424,0.853L306.756,354.992z M470.861,234.321
			c-13.563,31.18-44.343,51.333-78.346,51.295c-5.271-0.015-10.528-0.529-15.701-1.536c9.367-8.157,17.655-17.477,24.661-27.733
			c2.71-3.856,1.782-9.178-2.074-11.888c-3.856-2.71-9.178-1.782-11.888,2.074c-0.04,0.057-0.079,0.114-0.118,0.172
			c-9.94,14.405-22.717,26.63-37.547,35.925v0.427c-2.901,1.792-5.803,3.499-8.533,5.035
			c-44.521,23.388-98.645,18.337-138.069-12.885c-5.776-4.56-13.824-4.904-19.968-0.853c-13.842,9.253-30.643,12.996-47.104,10.496
			h-1.707c-2.885-0.499-5.736-1.183-8.533-2.048l-2.304-0.768c-2.651-0.892-5.244-1.947-7.765-3.157l-2.987-1.792
			c-1.877-1.024-3.669-2.048-5.376-3.243l-2.645-1.792c-11.157-8.087-19.606-19.362-24.235-32.341
			c-1.579-4.454-6.469-6.784-10.923-5.205s-6.784,6.469-5.205,10.923c2.768,7.772,6.648,15.102,11.52,21.76
			c-2.527,0.754-5.133,1.212-7.765,1.365c-18.851,0.259-34.343-14.813-34.603-33.664s14.813-34.344,33.664-34.603h0.939
			c7.385,0,14.572,2.395,20.48,6.827c3.77,2.828,9.119,2.064,11.947-1.707s2.064-9.119-1.707-11.947
			c-4.324-3.239-9.134-5.774-14.251-7.509c10.733-20.467,31.091-34.115,54.101-36.267c-1.062,5.273-1.831,10.6-2.304,15.957
			c-0.283,4.704,3.302,8.747,8.006,9.03c0.176,0.011,0.351,0.016,0.527,0.015c4.52,0.008,8.262-3.51,8.533-8.021
			c0.607-9.986,2.383-19.867,5.291-29.44c1.024-3.328,2.133-6.571,3.413-9.728l0.683-1.707c1.024-2.389,2.048-4.779,3.157-7.083
			c1.109-2.304,1.877-3.669,2.816-5.461l1.707-2.816c3.216-5.524,6.838-10.801,10.837-15.787
			c44.268-55.116,124.834-63.911,179.95-19.643c8.479,6.81,16.055,14.672,22.546,23.397c-13.29,1.024-26.25,4.648-38.144,10.667
			c-4.258,2.02-6.072,7.11-4.052,11.367c2.02,4.258,7.11,6.072,11.367,4.052c0.152-0.072,0.302-0.149,0.45-0.23
			c21.73-10.891,47.049-12.099,69.717-3.328l3.328,1.109C469.866,140.831,489.66,191.105,470.861,234.321z"/>
	</g>
</g>
<g>
	<g>
		<path d="M157.508,206.768c-1.31-5.28-2.279-10.638-2.901-16.043c-0.589-4.713-4.887-8.056-9.6-7.467
			c-4.713,0.589-8.056,4.887-7.467,9.6c0.75,6.125,1.89,12.196,3.413,18.176c1.178,4.571,5.839,7.322,10.411,6.144
			S158.686,211.34,157.508,206.768z"/>
	</g>
</g>
<g>
	<g>
		<path d="M329.186,129.652c-3.284-2.684-8.04-2.549-11.166,0.317c-3.368,3.556-6.476,7.349-9.301,11.349
			c-2.986,3.646-2.451,9.022,1.195,12.009c3.646,2.986,9.022,2.451,12.009-1.195c0.259-0.316,0.495-0.651,0.706-1.001
			c2.361-3.337,4.956-6.503,7.765-9.472C333.375,138.01,332.835,132.634,329.186,129.652z"/>
	</g>
</g>
<g>
	<g>
		<path d="M155.352,329.566c-3.929-2.055-8.778-0.759-11.157,2.983l-4.949,8.533c-2.357,4.081-0.958,9.3,3.123,11.657
			c1.282,0.74,2.735,1.134,4.215,1.143c3.061,0.012,5.894-1.616,7.424-4.267l4.949-8.533
			C161.143,336.907,159.528,331.751,155.352,329.566z"/>
	</g>
</g>
<g>
</g>
<g>
</g>
<g>
</g>
<g>
</g>
<g>
</g>
<g>
</g>
<g>
</g>
<g>
</g>
<g>
</g>
<g>
</g>
<g>
</g>
<g>
</g>
<g>
</g>
<g>
</g>
<g>
</g>
</svg>
