<?xml version="1.0" encoding="iso-8859-1"?>
<!-- Generator: Adobe Illustrator 19.0.0, SVG Export Plug-In . SVG Version: 6.00 Build 0)  -->
<svg version="1.1" id="Layer_1" xmlns="http://www.w3.org/2000/svg" xmlns:xlink="http://www.w3.org/1999/xlink" x="0px" y="0px"
	 viewBox="0 0 512.138 512.138" style="enable-background:new 0 0 512.138 512.138;" xml:space="preserve">
<g>
	<g>
		<path d="M415.147,181.375c-26.132-38.439-67.606-63.703-113.749-69.291c-42.059-62.586-126.89-79.227-189.476-37.168
			c-57.355,38.544-76.87,113.863-45.446,175.408c-4.046,4.75-7.645,9.863-10.752,15.275c-37.046,7.006-61.398,42.717-54.392,79.763
			s42.717,61.398,79.763,54.392c4.977-0.941,9.833-2.433,14.48-4.449c8.648-3.77,12.602-13.837,8.832-22.485
			s-13.837-12.602-22.485-8.832c-4.296,1.927-8.945,2.943-13.653,2.987c-18.851,0.259-34.343-14.813-34.603-33.664
			s14.813-34.343,33.664-34.603h0.939c7.385,0,14.572,2.395,20.48,6.827c3.767,2.832,9.117,2.074,11.949-1.693
			c2.832-3.767,2.074-9.117-1.693-11.949c-0.005-0.004-0.01-0.008-0.016-0.012c-4.324-3.239-9.134-5.774-14.251-7.509
			c10.733-20.467,31.091-34.115,54.101-36.267c-1.059,5.244-1.828,10.543-2.304,15.872c-0.33,4.701,3.214,8.78,7.915,9.11
			c0.206,0.014,0.412,0.021,0.618,0.021c4.713,0,8.533-3.82,8.533-8.533c0.607-9.986,2.383-19.867,5.291-29.44
			c1.024-3.328,2.133-6.485,3.413-9.643l0.768-1.877c0.939-2.304,1.963-4.608,3.072-6.912c1.109-2.304,1.877-3.669,2.901-5.461
			l1.621-2.475c3.216-5.524,6.838-10.801,10.837-15.787c44.268-55.116,124.834-63.911,179.95-19.643
			c8.479,6.81,16.055,14.672,22.546,23.397c-13.282,1.013-26.239,4.607-38.144,10.581c-4.131,2.268-5.641,7.456-3.372,11.587
			c2.174,3.959,7.057,5.538,11.138,3.602c16.014-8.27,34.236-11.258,52.053-8.533l5.035,0.853h0.512
			c4.188,0.966,8.296,2.249,12.288,3.84l3.157,1.621c43.312,18.579,63.362,68.751,44.783,112.063
			c-13.524,31.527-44.612,51.89-78.916,51.692c-9.426,0-17.067,7.641-17.067,17.067c0,9.426,7.641,17.067,17.067,17.067
			c65.98,0.076,119.528-53.349,119.604-119.329C512.204,241.481,471.487,192.167,415.147,181.375z M130.389,214.399
			c-12.901,2.012-25.298,6.472-36.523,13.141c-21.429-52.337,3.626-112.136,55.963-133.565
			c36.41-14.908,78.142-7.637,107.365,18.707C199.658,121.197,151.185,160.08,130.389,214.399z"/>
	</g>
</g>
<g>
	<g>
		<path d="M331.02,228.027c-3.185-3.474-8.582-3.709-12.057-0.524c-0.301,0.276-0.582,0.574-0.841,0.89
			c-3.368,3.556-6.476,7.349-9.301,11.349c-2.434,4.036-1.135,9.28,2.901,11.714c3.632,2.19,8.321,1.38,11.008-1.901
			c2.36-3.338,4.955-6.503,7.765-9.472C333.97,236.899,334.205,231.502,331.02,228.027z"/>
	</g>
</g>
<g>
	<g>
		<path d="M34.133,170.708h-25.6c-4.713,0-8.533,3.82-8.533,8.533s3.82,8.533,8.533,8.533h25.6c4.713,0,8.533-3.82,8.533-8.533
			S38.846,170.708,34.133,170.708z"/>
	</g>
</g>
<g>
	<g>
		<path d="M187.733,0.041c-4.713,0-8.533,3.82-8.533,8.533v25.6c0,4.713,3.82,8.533,8.533,8.533s8.533-3.82,8.533-8.533v-25.6
			C196.267,3.862,192.446,0.041,187.733,0.041z"/>
	</g>
</g>
<g>
	<g>
		<path d="M313.352,48.937c-3.195-2.736-7.906-2.736-11.101,0l-18.005,18.091c-3.3,3.364-3.248,8.767,0.116,12.067
			c1.545,1.516,3.608,2.388,5.772,2.439c2.268,0.013,4.448-0.877,6.059-2.475l18.091-18.091
			C317.348,57.39,316.931,52.003,313.352,48.937z"/>
	</g>
</g>
<g>
	<g>
		<path d="M85.333,73.001L67.072,54.911c-3.346-3.346-8.771-3.346-12.117,0c-3.346,3.346-3.346,8.771,0,12.117l18.091,18.347
			c3.417,3.393,8.937,3.374,12.331-0.043C88.769,81.915,88.75,76.395,85.333,73.001z"/>
	</g>
</g>
<g>
	<g>
		<path d="M110.933,462.036c-4.066-2.383-9.294-1.018-11.677,3.048c-0.005,0.008-0.009,0.016-0.014,0.024l-4.949,8.533
			c-2.185,4.176-0.57,9.332,3.606,11.517c3.929,2.055,8.778,0.759,11.157-2.983l4.949-8.533
			C116.336,469.585,114.965,464.408,110.933,462.036z"/>
	</g>
</g>
<g>
	<g>
		<path d="M72.557,419.298c-0.008-0.005-0.016-0.009-0.024-0.014c-4.078-2.362-9.299-0.972-11.661,3.106
			c-0.01,0.017-0.02,0.034-0.029,0.051l-8.533,14.763c-2.185,4.176-0.57,9.332,3.606,11.517c3.929,2.055,8.778,0.759,11.157-2.983
			l8.533-14.763C77.988,426.909,76.623,421.681,72.557,419.298z"/>
	</g>
</g>
<g>
	<g>
		<path d="M408.003,436.365c-0.008-0.005-0.016-0.009-0.024-0.014c-4.078-2.362-9.299-0.972-11.661,3.106
			c-0.01,0.017-0.02,0.034-0.029,0.051l-11.179,19.371c-2.185,4.176-0.57,9.332,3.606,11.517c3.929,2.055,8.778,0.759,11.157-2.983
			l11.179-19.371C413.433,443.975,412.069,438.747,408.003,436.365z"/>
	</g>
</g>
<g>
	<g>
		<path d="M365.933,410.765c-0.008-0.005-0.016-0.009-0.024-0.014c-4.078-2.362-9.299-0.972-11.661,3.106
			c-0.01,0.017-0.02,0.034-0.029,0.051l-9.813,17.067c-2.185,4.176-0.57,9.332,3.606,11.517c3.929,2.055,8.778,0.759,11.157-2.983
			l9.813-17.067C371.364,418.375,369.999,413.147,365.933,410.765z"/>
	</g>
</g>
<g>
	<g>
		<path d="M341.357,453.431c-0.008-0.005-0.016-0.009-0.024-0.014c-4.078-2.362-9.299-0.972-11.661,3.106
			c-0.01,0.017-0.02,0.034-0.029,0.051l-8.533,14.677c-2.185,4.176-0.57,9.332,3.606,11.517c3.929,2.055,8.778,0.759,11.157-2.983
			l8.533-14.677C346.788,461.042,345.423,455.814,341.357,453.431z"/>
	</g>
</g>
<g>
	<g>
		<path d="M156.353,342.395c-3.977-2.528-9.251-1.354-11.779,2.623c-0.129,0.202-0.249,0.41-0.36,0.623l-4.949,8.533
			c-2.357,4.081-0.958,9.3,3.123,11.657c1.282,0.74,2.735,1.134,4.215,1.143c3.061,0.012,5.894-1.616,7.424-4.267l4.949-8.533
			C161.504,350.198,160.33,344.924,156.353,342.395z"/>
	</g>
</g>
<g>
	<g>
		<path d="M361.045,380.543c-0.76-3.229-3.323-5.725-6.571-6.4l-24.747-5.291l17.749-18.517c3.275-3.393,3.18-8.799-0.213-12.075
			c-3.393-3.275-8.799-3.18-12.075,0.213l-28.416,29.525c-3.264,3.4-3.154,8.801,0.245,12.065c1.14,1.095,2.562,1.851,4.107,2.185
			l21.675,4.779l-49.579,39.083l11.349-22.784c2.124-4.207,0.436-9.339-3.771-11.464c-0.67-0.338-1.382-0.587-2.117-0.739
			l-28.331-5.973l8.448-13.909c2.528-3.977,1.354-9.251-2.623-11.779c-3.977-2.528-9.251-1.354-11.779,2.623
			c-0.129,0.202-0.249,0.41-0.36,0.623l-10.667,18.432l-34.133-7.168l19.712-34.133c2.528-3.977,1.354-9.251-2.623-11.779
			s-9.251-1.354-11.779,2.623c-0.129,0.202-0.249,0.41-0.36,0.623l-25.6,44.373c-2.362,4.078-0.972,9.299,3.106,11.661
			c0.785,0.455,1.638,0.782,2.526,0.968l43.605,9.216l-72.96,67.755l21.589-43.264c2.256-4.138,0.731-9.321-3.407-11.577
			c-0.648-0.353-1.338-0.621-2.055-0.796l-48.213-10.24l11.179-19.371c2.185-4.176,0.57-9.332-3.606-11.517
			c-3.929-2.055-8.778-0.759-11.157,2.983l-17.067,29.525c-2.362,4.078-0.972,9.299,3.106,11.661
			c0.785,0.455,1.638,0.782,2.526,0.968l10.24,2.389l-16.555,28.331c-2.184,4.176-0.57,9.332,3.606,11.517
			c3.929,2.055,8.778,0.759,11.157-2.983l17.749-30.464c0.535-0.865,0.91-1.819,1.109-2.816l21.76,4.608l-37.717,75.435
			c-2.151,4.193-0.495,9.336,3.698,11.487c3.231,1.657,7.157,1.088,9.785-1.418l115.712-107.605l16.469,3.499l-23.552,46.677
			c-2.993,3.676-2.439,9.082,1.237,12.075c3.676,2.993,9.082,2.439,12.075-1.237l93.867-73.984
			C360.851,387.027,361.877,383.685,361.045,380.543z"/>
	</g>
</g>
<g>
</g>
<g>
</g>
<g>
</g>
<g>
</g>
<g>
</g>
<g>
</g>
<g>
</g>
<g>
</g>
<g>
</g>
<g>
</g>
<g>
</g>
<g>
</g>
<g>
</g>
<g>
</g>
<g>
</g>
</svg>
