<?xml version="1.0" encoding="iso-8859-1"?>
<!-- Generator: Adobe Illustrator 19.0.0, SVG Export Plug-In . SVG Version: 6.00 Build 0)  -->
<svg version="1.1" id="Layer_1" xmlns="http://www.w3.org/2000/svg" xmlns:xlink="http://www.w3.org/1999/xlink" x="0px" y="0px"
	 viewBox="0 0 443.733 443.733" style="enable-background:new 0 0 443.733 443.733;" xml:space="preserve">
<g>
	<g>
		<path d="M413.867,250.624c7.917-6.715,12.577-16.501,12.8-26.88c0-9.899-4.437-22.272-21.163-33.536
			c22.784-13.824,28.587-29.013,28.587-40.875c-0.42-12.947-6.698-25.002-17.067-32.768c11.082-8.503,17.756-21.537,18.176-35.499
			C435.2,27.819,327.851,0,221.867,0S8.533,27.819,8.533,81.067c0,16.213,9.899,38.4,53.504,55.467
			c-1.544,4.09-2.325,8.428-2.304,12.8c0,23.979,22.784,43.52,65.024,56.576c-3.427,5.319-5.263,11.507-5.291,17.835
			c0,20.565,18.603,37.205,53.163,48.128c-1.308,3.433-1.973,7.078-1.963,10.752c0,10.496,5.205,23.552,25.6,34.133
			c-4.328,5.07-6.716,11.51-6.741,18.176c-0.09,5.267,1.332,10.449,4.096,14.933c-13.824,6.656-21.248,16.043-21.248,27.392
			c-0.02,3.434,0.678,6.835,2.048,9.984c-7.517,4.984-12.11,13.34-12.288,22.357c0,20.139,23.125,34.133,56.32,34.133
			c30.208,0,52.139-11.605,55.808-28.928c31.744-2.901,62.037-13.568,63.061-36.267c35.243-5.461,65.451-18.773,65.451-43.264
			c0.015-4.721-1.19-9.365-3.499-13.483c23.381-9.557,35.925-23.125,35.925-39.168C435.2,273.067,430.763,261.12,413.867,250.624z
			 M305.92,347.221c-9.42,0.315-16.802,8.207-16.487,17.627c0.148,4.44,2.022,8.647,5.223,11.728
			c-12.978,3.558-26.396,5.253-39.851,5.035h-6.144c-9.422-0.27-17.278,7.15-17.548,16.572c-0.098,3.435,0.843,6.82,2.7,9.711
			c-5.033,1.183-10.19,1.756-15.36,1.707h-4.096c9.156-2.239,14.763-11.477,12.523-20.633c-1.238-5.06-4.718-9.277-9.451-11.452
			c6.604-1.725,13.34-2.895,20.139-3.499c9.382-0.907,16.252-9.248,15.345-18.63c-0.671-6.94-5.496-12.775-12.188-14.736
			c-4.631-1.276-9.12-3.02-13.397-5.205c4.545-2.339,9.321-4.198,14.251-5.547c5.833-1.707,10.319-6.387,11.776-12.288
			c16.352,2.765,32.909,4.136,49.493,4.096c13.757,0.03,27.499-0.882,41.131-2.731c1.304,5.768,5.502,10.449,11.093,12.373
			c3.352,1.09,6.606,2.46,9.728,4.096C346.181,343.342,326.144,347.349,305.92,347.221z M377.173,101.461
			c-8.554,3.959-12.278,14.103-8.319,22.657c1.699,3.671,4.648,6.62,8.319,8.319c7.388,2.872,14.142,7.163,19.883,12.629
			c-0.032,0.426-0.032,0.854,0,1.28c0,5.717-5.461,12.373-16.128,18.688c-7.557,3.454-15.375,6.308-23.381,8.533l-15.275,4.864
			c-4.437,1.195-9.728,2.816-20.395,5.12c-4.639,0.783-7.769,5.173-6.997,9.813c0.676,4.173,4.306,7.222,8.533,7.168h0.853
			c7.765-1.28,15.019-2.816,21.845-4.437c1.896,5.057,6.074,8.918,11.264,10.411c24.149,6.827,32.939,14.336,34.731,17.067
			c-6.242,6.445-14.117,11.076-22.784,13.397c-5.505,2.098-9.601,6.803-10.923,12.544c-2.047,9.002,3.435,18,12.373,20.309
			c9.181,2.085,17.988,5.568,26.112,10.325c-0.427,3.499-6.229,8.533-17.067,12.544c-7.261,2.372-14.673,4.253-22.187,5.632
			c-18.045,3.295-36.29,5.376-54.613,6.229c-20.879-0.953-41.651-3.549-62.123-7.765c-5.376-1.195-9.984-2.475-13.995-3.84
			c-11.093-4.437-17.067-9.131-17.579-12.715c1.432-0.933,2.913-1.788,4.437-2.56c4.08-2.076,7.154-5.704,8.533-10.069
			c10.325,1.536,21.077,2.56,31.829,3.157h0.427c4.713,0,8.533-3.82,8.533-8.533c0.006-4.551-3.561-8.306-8.107-8.533
			c-10.752-0.939-16.043-1.365-25.088-2.987l-2.389-0.512c-6.912-1.707-15.36-4.096-18.176-4.608
			c-12.53-2.155-24.799-5.616-36.608-10.325c-8.533-4.693-12.885-9.557-12.885-13.483c-0.038-0.966-0.24-1.918-0.597-2.816
			c3.226-2.223,6.655-4.137,10.24-5.717c5.52-2.358,9.492-7.324,10.581-13.227c1.4-9.107-4.681-17.681-13.739-19.371
			c-54.699-9.984-72.448-27.051-72.448-31.317c1.141-3.22,3.376-5.938,6.315-7.68c2.423-1.915,4.281-4.451,5.376-7.339
			c22.377,5.834,45.218,9.717,68.267,11.605h0.768c4.713,0.212,8.705-3.437,8.917-8.149c0.212-4.713-3.436-8.705-8.149-8.917
			c-20.713-1.37-41.237-4.8-61.269-10.24c-4.437-1.024-16.469-5.717-19.371-6.741C57.173,99.413,42.667,87.04,42.667,81.067
			c0-16.555,68.267-46.933,179.2-46.933s179.2,30.379,179.2,46.933C401.067,84.395,396.032,92.416,377.173,101.461z"/>
	</g>
</g>
<g>
	<g>
		<path d="M312.875,193.749c-0.495-4.713-4.716-8.132-9.429-7.637l-7.851,0.768c-4.713,0.118-8.438,4.034-8.32,8.747
			s4.034,8.438,8.747,8.32h0.683l8.533-0.768C309.95,202.684,313.37,198.462,312.875,193.749z"/>
	</g>
</g>
<g>
	<g>
		<path d="M304.487,252.672c-0.406,0-0.811,0.028-1.213,0.085c-4.437,0-8.96,0.768-13.653,0.939c-4.713,0-8.533,3.82-8.533,8.533
			s3.82,8.533,8.533,8.533h0.512c4.864,0,9.643-0.597,14.336-1.024c4.713,0.005,8.537-3.812,8.542-8.524
			C313.017,256.501,309.2,252.677,304.487,252.672z"/>
	</g>
</g>
<g>
	<g>
		<path d="M348.225,253.708c-1.129-4.362-5.454-7.095-9.878-6.241l-5.547,1.024c-4.619,0.938-7.602,5.442-6.665,10.061
			c0.808,3.98,4.31,6.839,8.371,6.835h1.707l5.888-1.28C346.664,262.926,349.405,258.27,348.225,253.708z"/>
	</g>
</g>
<g>
	<g>
		<path d="M213.845,130.645h-11.179h-0.341c-4.713,0-8.533,3.82-8.533,8.533s3.821,8.533,8.533,8.533h11.52
			c4.713,0,8.533-3.82,8.533-8.533S218.558,130.645,213.845,130.645z"/>
	</g>
</g>
<g>
	<g>
		<path d="M287.659,135.424c-0.518-4.713-4.759-8.113-9.472-7.595c-7.396,0.796-14.962,1.451-22.699,1.963
			c-4.736,0.141-8.461,4.096-8.32,8.832c0.141,4.736,4.096,8.461,8.832,8.32h0.512c8.021-0.512,15.872-1.195,23.552-2.048
			C284.777,144.378,288.177,140.137,287.659,135.424z"/>
	</g>
</g>
<g>
	<g>
		<path d="M331.264,127.829c-0.919-4.689-5.465-7.746-10.155-6.827l-8.533,1.707c-4.713,0.448-8.17,4.631-7.723,9.344
			c0.448,4.713,4.631,8.17,9.344,7.723h1.707l8.533-1.792C329.127,137.065,332.183,132.519,331.264,127.829z"/>
	</g>
</g>
<g>
	<g>
		<path d="M304.512,98.688c-0.778-4.713-5.229-7.903-9.941-7.125l-7.083,1.109c-4.713,0.33-8.266,4.418-7.936,9.131
			c0.33,4.713,4.418,8.266,9.131,7.936h1.451l7.253-1.109C302.099,107.852,305.29,103.401,304.512,98.688z"/>
	</g>
</g>
<g>
	<g>
		<path d="M268.629,50.517c-4.651,0.764-7.801,5.154-7.037,9.804c0.505,3.075,2.647,5.63,5.586,6.665
			c40.96,3.584,58.283,10.496,63.317,14.08c-5.589,3.362-11.705,5.757-18.091,7.083c-4.713,0.589-8.056,4.887-7.467,9.6
			c0.589,4.713,4.887,8.056,9.6,7.467c0.708,0.089,1.425,0.089,2.133,0c13.739-3.584,32.085-9.899,32.085-23.552
			C348.757,65.707,321.792,55.211,268.629,50.517z"/>
	</g>
</g>
<g>
	<g>
		<path d="M237.141,48.043h-9.728c-4.713,0.071-8.476,3.948-8.405,8.661s3.948,8.476,8.661,8.405h9.472
			c4.713,0,8.533-3.82,8.533-8.533S241.854,48.043,237.141,48.043z"/>
	</g>
</g>
<g>
	<g>
		<path d="M199.083,48.384l-13.397,0.683c-4.713,0.141-8.419,4.076-8.277,8.789s4.077,8.419,8.789,8.277h0.512h0.085l12.971-0.683
			c4.713-0.188,8.38-4.162,8.192-8.875C207.769,51.863,203.796,48.196,199.083,48.384z"/>
	</g>
</g>
<g>
</g>
<g>
</g>
<g>
</g>
<g>
</g>
<g>
</g>
<g>
</g>
<g>
</g>
<g>
</g>
<g>
</g>
<g>
</g>
<g>
</g>
<g>
</g>
<g>
</g>
<g>
</g>
<g>
</g>
</svg>
