<?xml version="1.0" encoding="iso-8859-1"?>
<!-- Generator: Adobe Illustrator 19.0.0, SVG Export Plug-In . SVG Version: 6.00 Build 0)  -->
<svg version="1.1" id="Layer_1" xmlns="http://www.w3.org/2000/svg" xmlns:xlink="http://www.w3.org/1999/xlink" x="0px" y="0px"
	 viewBox="0 0 477.867 477.867" style="enable-background:new 0 0 477.867 477.867;" xml:space="preserve">
<g>
	<g>
		<path d="M85.333,303.66h-25.6c-4.713,0-8.533,3.82-8.533,8.533s3.82,8.533,8.533,8.533h25.6c4.713,0,8.533-3.82,8.533-8.533
			S90.046,303.66,85.333,303.66z"/>
	</g>
</g>
<g>
	<g>
		<path d="M386.219,228.737c-2.168-4.185-7.318-5.819-11.502-3.651c-4.021,2.083-5.714,6.945-3.858,11.075
			c11.217,23.368,1.367,51.404-22,62.622c-6.447,3.095-13.516,4.675-20.666,4.621H136.533c-4.713,0-8.533,3.82-8.533,8.533
			s3.82,8.533,8.533,8.533h192c35.346,0.004,64.003-28.647,64.006-63.994C392.541,246.873,390.38,237.392,386.219,228.737z"/>
	</g>
</g>
<g>
	<g>
		<path d="M354.145,198.19c-0.199-0.094-0.403-0.18-0.609-0.258c-4.75-2.078-9.736-3.568-14.848-4.437
			c-4.713-0.73-9.126,2.498-9.856,7.211c-0.73,4.713,2.498,9.125,7.211,9.856c3.722,0.589,7.36,1.621,10.837,3.072
			c4.265,2.006,9.348,0.175,11.354-4.089C360.24,205.279,358.409,200.196,354.145,198.19z"/>
	</g>
</g>
<g>
	<g>
		<path d="M302.514,204.241c-2.457-2.835-6.476-3.733-9.906-2.213c-17.398,10.874-27.998,29.915-28.075,50.432
			c0,4.713,3.82,8.533,8.533,8.533s8.533-3.82,8.533-8.533c0-14.711,7.578-28.384,20.053-36.181
			C305.215,213.192,305.6,207.803,302.514,204.241z"/>
	</g>
</g>
<g>
	<g>
		<path d="M341.333,337.793h-25.6c-4.713,0-8.533,3.82-8.533,8.533s3.82,8.533,8.533,8.533h25.6c4.713,0,8.533-3.82,8.533-8.533
			S346.046,337.793,341.333,337.793z"/>
	</g>
</g>
<g>
	<g>
		<path d="M145.067,337.793H128c-4.713,0-8.533,3.82-8.533,8.533s3.82,8.533,8.533,8.533h17.067c4.713,0,8.533-3.82,8.533-8.533
			S149.779,337.793,145.067,337.793z"/>
	</g>
</g>
<g>
	<g>
		<path d="M273.067,337.793H179.2c-4.713,0-8.533,3.82-8.533,8.533s3.821,8.533,8.533,8.533h93.867c4.713,0,8.533-3.82,8.533-8.533
			S277.779,337.793,273.067,337.793z"/>
	</g>
</g>
<g>
	<g>
		<path d="M68.267,337.793H8.533c-4.713,0-8.533,3.82-8.533,8.533s3.82,8.533,8.533,8.533h59.733c4.713,0,8.533-3.82,8.533-8.533
			S72.979,337.793,68.267,337.793z"/>
	</g>
</g>
<g>
	<g>
		<path d="M323.755,371.926h-50.688c-4.713,0-8.533,3.82-8.533,8.533s3.82,8.533,8.533,8.533h50.688c4.713,0,8.533-3.82,8.533-8.533
			S328.467,371.926,323.755,371.926z"/>
	</g>
</g>
<g>
	<g>
		<path d="M409.6,371.926h-9.045c-4.713,0-8.533,3.82-8.533,8.533s3.82,8.533,8.533,8.533h9.045c4.713,0,8.533-3.82,8.533-8.533
			S414.313,371.926,409.6,371.926z"/>
	</g>
</g>
<g>
	<g>
		<path d="M51.2,269.526H34.133c-4.713,0-8.533,3.821-8.533,8.533c0,4.713,3.82,8.533,8.533,8.533H51.2
			c4.713,0,8.533-3.821,8.533-8.533C59.733,273.347,55.913,269.526,51.2,269.526z"/>
	</g>
</g>
<g>
	<g>
		<path d="M162.133,269.526h-76.8c-4.713,0-8.533,3.821-8.533,8.533c0,4.713,3.82,8.533,8.533,8.533h76.8
			c4.713,0,8.533-3.821,8.533-8.533C170.667,273.347,166.846,269.526,162.133,269.526z"/>
	</g>
</g>
<g>
	<g>
		<path d="M435.2,269.526c-18.851,0-34.133,15.282-34.133,34.133c0,4.713,3.82,8.533,8.533,8.533s8.533-3.82,8.533-8.533
			c0-9.426,7.641-17.067,17.067-17.067c14.138,0,25.6,11.461,25.6,25.6s-11.461,25.6-25.6,25.6h-59.733
			c-4.713,0-8.533,3.82-8.533,8.533s3.82,8.533,8.533,8.533H435.2c23.564,0,42.667-19.103,42.667-42.667
			S458.764,269.526,435.2,269.526z"/>
	</g>
</g>
<g>
	<g>
		<path d="M119.467,371.926h-8.533c-4.713,0-8.533,3.82-8.533,8.533s3.82,8.533,8.533,8.533h8.533c4.713,0,8.533-3.82,8.533-8.533
			S124.179,371.926,119.467,371.926z"/>
	</g>
</g>
<g>
	<g>
		<path d="M220.388,371.926c-1.071-0.057-2.144-0.057-3.214,0H153.6c-4.713,0-8.533,3.82-8.533,8.533s3.82,8.533,8.533,8.533h63.573
			c7.281-0.586,13.659,4.841,14.245,12.122c0.586,7.281-4.841,13.659-12.122,14.246c-0.707,0.057-1.417,0.057-2.123,0
			c-4.289,0-7.765-3.477-7.765-7.765c0-4.713-3.821-8.533-8.533-8.533s-8.533,3.821-8.533,8.533
			c0,13.714,11.118,24.832,24.832,24.832c16.707,0.888,30.97-11.936,31.858-28.643C249.919,387.077,237.095,372.814,220.388,371.926
			z"/>
	</g>
</g>
<g>
	<g>
		<path d="M310.639,69.012c-0.202-0.129-0.41-0.249-0.623-0.36c-11.996-7.406-24.943-13.148-38.485-17.067
			c-0.853,0-6.997-2.133-9.045-2.56C175.823,30.365,90.443,85.492,71.783,172.154c-5.496,25.526-4.682,52.008,2.372,77.148
			c2.53,9.066,11.921,14.372,20.992,11.861c9.066-2.53,14.372-11.921,11.861-20.992c-18.651-67.308,20.792-136.991,88.1-155.643
			c9.011-2.497,18.272-3.987,27.612-4.443c-43.697,58.901-41.834,139.948,4.523,196.779c5.962,7.305,16.716,8.394,24.021,2.432
			s8.394-16.716,2.432-24.021c-43.545-53.319-36.291-131.706,16.299-176.128c2.389-2.048,6.741-6.656,7.168-6.571
			c8.446,2.797,16.593,6.427,24.32,10.837c3.977,2.528,9.251,1.354,11.779-2.623C315.79,76.814,314.616,71.54,310.639,69.012z"/>
	</g>
</g>
<g>
	<g>
		<path d="M375.467,138.966l-1.877-3.84c-2.168-4.194-7.326-5.837-11.52-3.669c-4.194,2.168-5.837,7.326-3.669,11.52l1.451,3.328
			c2.027,4.312,7.165,6.165,11.477,4.139C375.64,148.417,377.493,143.279,375.467,138.966z"/>
	</g>
</g>
<g>
	<g>
		<path d="M353.195,104.833l-2.389-2.816c-3.134-3.535-8.54-3.859-12.075-0.725c-3.535,3.134-3.859,8.54-0.725,12.075l2.133,2.475
			c3.04,3.605,8.427,4.064,12.032,1.024S356.234,108.438,353.195,104.833z"/>
	</g>
</g>
<g>
	<g>
		<path d="M336.089,87.319c-0.179-0.172-0.365-0.336-0.559-0.492l-2.731-2.304c-3.629-3.016-9.016-2.52-12.032,1.109
			c-3.016,3.629-2.52,9.016,1.109,12.032l2.389,1.963c3.399,3.265,8.801,3.156,12.065-0.243S339.488,90.584,336.089,87.319z"/>
	</g>
</g>
<g>
</g>
<g>
</g>
<g>
</g>
<g>
</g>
<g>
</g>
<g>
</g>
<g>
</g>
<g>
</g>
<g>
</g>
<g>
</g>
<g>
</g>
<g>
</g>
<g>
</g>
<g>
</g>
<g>
</g>
</svg>
