<?xml version="1.0" encoding="iso-8859-1"?>
<!-- Generator: Adobe Illustrator 19.0.0, SVG Export Plug-In . SVG Version: 6.00 Build 0)  -->
<svg version="1.1" id="Layer_1" xmlns="http://www.w3.org/2000/svg" xmlns:xlink="http://www.w3.org/1999/xlink" x="0px" y="0px"
	 viewBox="0 0 503.467 503.467" style="enable-background:new 0 0 503.467 503.467;" xml:space="preserve">
<g>
	<g>
		<path d="M85.333,251.712h-76.8c-4.713,0-8.533,3.82-8.533,8.533c0,4.713,3.82,8.533,8.533,8.533h76.8
			c4.713,0,8.533-3.82,8.533-8.533C93.867,255.532,90.046,251.712,85.333,251.712z"/>
	</g>
</g>
<g>
	<g>
		<path d="M486.4,251.712h-76.8c-4.713,0-8.533,3.82-8.533,8.533c0,4.713,3.82,8.533,8.533,8.533h76.8
			c4.713,0,8.533-3.82,8.533-8.533C494.933,255.532,491.113,251.712,486.4,251.712z"/>
	</g>
</g>
<g>
	<g>
		<path d="M247.467,12.778c-4.713,0-8.533,3.82-8.533,8.533v76.8c0,4.713,3.82,8.533,8.533,8.533s8.533-3.82,8.533-8.533v-76.8
			C256,16.599,252.18,12.778,247.467,12.778z"/>
	</g>
</g>
<g>
	<g>
		<path d="M103.361,193.242c-0.912-0.611-1.934-1.04-3.009-1.264l-28.843-12.032c-4.468-1.5-9.306,0.906-10.805,5.374
			c-1.371,4.085,0.518,8.552,4.405,10.413l28.757,11.691c3.916,2.622,9.216,1.573,11.838-2.343
			C108.327,201.164,107.278,195.864,103.361,193.242z"/>
	</g>
</g>
<g>
	<g>
		<path d="M45.909,169.621l-6.485-2.645c-4.383-1.767-9.369,0.353-11.136,4.736c-1.767,4.383,0.353,9.369,4.736,11.136l6.485,2.645
			c4.383,1.767,9.369-0.353,11.136-4.736C52.413,176.374,50.292,171.388,45.909,169.621z"/>
	</g>
</g>
<g>
	<g>
		<path d="M328.19,61.984c-4.251-2.035-9.347-0.238-11.381,4.013c-0.151,0.315-0.282,0.638-0.393,0.969l-16.128,39.68
			c-1.803,4.354,0.266,9.346,4.62,11.149c0.024,0.01,0.049,0.02,0.073,0.03c4.359,1.758,9.319-0.341,11.093-4.693l16.128-39.765
			C334.238,69.114,332.441,64.018,328.19,61.984z"/>
	</g>
</g>
<g>
	<g>
		<path d="M340.905,30.581c-4.251-2.035-9.346-0.238-11.381,4.013c-0.151,0.315-0.282,0.638-0.393,0.969l-4.267,10.24
			c-1.787,4.361,0.3,9.345,4.661,11.132c0.039,0.016,0.078,0.032,0.118,0.047c4.359,1.758,9.319-0.341,11.093-4.693l4.181-10.325
			C346.952,37.711,345.156,32.616,340.905,30.581z"/>
	</g>
</g>
<g>
	<g>
		<path d="M416.855,191.264c-1.861-3.887-6.327-5.777-10.413-4.405l-11.861,5.12c-4.614,0.96-7.576,5.478-6.617,10.092
			c0.96,4.614,5.478,7.576,10.092,6.617c1.075-0.224,2.097-0.653,3.009-1.264l11.776-4.779
			C417.094,200.61,418.89,195.515,416.855,191.264z"/>
	</g>
</g>
<g>
	<g>
		<path d="M476.589,166.944c-1.861-3.887-6.327-5.777-10.413-4.405l-34.133,13.653c-4.555,1.211-7.265,5.886-6.053,10.44
			c1.088,4.089,5.007,6.763,9.211,6.285c1.133-0.094,2.235-0.413,3.243-0.939l34.133-13.653
			C476.827,176.29,478.624,171.195,476.589,166.944z"/>
	</g>
</g>
<g>
	<g>
		<path d="M195.909,109.654c-0.224-1.075-0.653-2.097-1.264-3.009l-4.779-11.861c-1.791-4.359-6.777-6.442-11.136-4.651
			s-6.442,6.777-4.651,11.136l5.12,11.861c0.96,4.614,5.478,7.576,10.092,6.617C193.906,118.787,196.869,114.268,195.909,109.654z"
			/>
	</g>
</g>
<g>
	<g>
		<path d="M178.517,66.965l-12.629-31.488c-1.5-4.468-6.338-6.874-10.805-5.374c-4.468,1.5-6.874,6.338-5.374,10.805
			c0.111,0.331,0.242,0.654,0.393,0.969l12.629,31.488c2.035,4.251,7.13,6.048,11.381,4.013
			C177.999,75.517,179.889,71.05,178.517,66.965z"/>
	</g>
</g>
<g>
	<g>
		<path d="M401.671,103.402c-2.789-1.768-6.348-1.768-9.138,0l-36.181,36.181c-3.349,3.316-3.375,8.719-0.059,12.068
			c1.533,1.548,3.599,2.451,5.776,2.524c2.268,0.013,4.448-0.877,6.059-2.475l36.181-36.523
			C406.833,111.198,405.651,105.926,401.671,103.402z"/>
	</g>
</g>
<g>
	<g>
		<path d="M138.837,139.584L102.4,103.402c-3.98-2.523-9.253-1.342-11.776,2.638c-1.768,2.789-1.768,6.348,0,9.138l36.181,36.437
			c3.58,3.065,8.966,2.649,12.032-0.931C141.573,147.49,141.573,142.778,138.837,139.584z"/>
	</g>
</g>
<g>
	<g>
		<path d="M378.368,221.248c-21.434-72.295-97.416-113.526-169.711-92.092c-58.031,17.205-97.807,70.562-97.724,131.09
			c-0.033,19.113,3.981,38.016,11.776,55.467c4.938,8.029,15.449,10.535,23.478,5.598c6.583-4.049,9.625-12.016,7.413-19.422
			c-22.999-51.666,0.241-112.194,51.907-135.193c13.205-5.878,27.505-8.894,41.96-8.849c45.218,0.193,85.022,29.855,98.133,73.131
			c2.686,9.049,12.199,14.206,21.248,11.52C375.897,239.809,381.054,230.296,378.368,221.248z"/>
	</g>
</g>
<g>
	<g>
		<path d="M110.933,361.877h-25.6c-4.713,0-8.533,3.82-8.533,8.533s3.82,8.533,8.533,8.533h25.6c4.713,0,8.533-3.82,8.533-8.533
			S115.646,361.877,110.933,361.877z"/>
	</g>
</g>
<g>
	<g>
		<path d="M394.752,287.21c-2.168-4.184-7.318-5.819-11.503-3.65c-4.021,2.083-5.714,6.944-3.857,11.074
			c11.217,23.368,1.367,51.404-22,62.622c-6.447,3.095-13.516,4.675-20.666,4.621H145.067c-4.713,0-8.533,3.82-8.533,8.533
			s3.821,8.533,8.533,8.533h192c35.346,0.004,64.003-28.647,64.006-63.994C401.074,305.346,398.914,295.865,394.752,287.21z"/>
	</g>
</g>
<g>
	<g>
		<path d="M361.984,255.978c-4.731-2.013-9.688-3.446-14.763-4.267c-4.713-0.73-9.126,2.498-9.856,7.211
			c-0.73,4.713,2.498,9.125,7.211,9.856c3.722,0.589,7.36,1.621,10.837,3.072c4.383,1.814,9.407-0.268,11.221-4.651
			C368.449,262.817,366.367,257.793,361.984,255.978z"/>
	</g>
</g>
<g>
	<g>
		<path d="M311.047,262.458c-2.457-2.835-6.476-3.733-9.906-2.213c-17.398,10.874-27.998,29.915-28.075,50.432
			c0,4.713,3.82,8.533,8.533,8.533s8.533-3.82,8.533-8.533c0-14.711,7.578-28.384,20.053-36.181
			C313.748,271.409,314.134,266.02,311.047,262.458z"/>
	</g>
</g>
<g>
	<g>
		<path d="M366.933,396.01h-25.6c-4.713,0-8.533,3.82-8.533,8.533s3.82,8.533,8.533,8.533h25.6c4.713,0,8.533-3.82,8.533-8.533
			S371.646,396.01,366.933,396.01z"/>
	</g>
</g>
<g>
	<g>
		<path d="M170.667,396.01H153.6c-4.713,0-8.533,3.82-8.533,8.533s3.82,8.533,8.533,8.533h17.067c4.713,0,8.533-3.82,8.533-8.533
			S175.38,396.01,170.667,396.01z"/>
	</g>
</g>
<g>
	<g>
		<path d="M298.667,396.01H204.8c-4.713,0-8.533,3.82-8.533,8.533s3.821,8.533,8.533,8.533h93.867c4.713,0,8.533-3.82,8.533-8.533
			S303.38,396.01,298.667,396.01z"/>
	</g>
</g>
<g>
	<g>
		<path d="M93.867,396.01H34.133c-4.713,0-8.533,3.82-8.533,8.533s3.82,8.533,8.533,8.533h59.733c4.713,0,8.533-3.82,8.533-8.533
			S98.58,396.01,93.867,396.01z"/>
	</g>
</g>
<g>
	<g>
		<path d="M349.355,430.144h-50.688c-4.713,0-8.533,3.82-8.533,8.533s3.82,8.533,8.533,8.533h50.688c4.713,0,8.533-3.82,8.533-8.533
			S354.068,430.144,349.355,430.144z"/>
	</g>
</g>
<g>
	<g>
		<path d="M435.2,430.144h-9.045c-4.713,0-8.533,3.82-8.533,8.533s3.82,8.533,8.533,8.533h9.045c4.713,0,8.533-3.82,8.533-8.533
			S439.913,430.144,435.2,430.144z"/>
	</g>
</g>
<g>
	<g>
		<path d="M85.333,327.744H68.267c-4.713,0-8.533,3.821-8.533,8.533c0,4.713,3.82,8.533,8.533,8.533h17.067
			c4.713,0,8.533-3.821,8.533-8.533C93.867,331.564,90.046,327.744,85.333,327.744z"/>
	</g>
</g>
<g>
	<g>
		<path d="M170.667,327.744h-51.2c-4.713,0-8.533,3.821-8.533,8.533c0,4.713,3.82,8.533,8.533,8.533h51.2
			c4.713,0,8.533-3.821,8.533-8.533C179.2,331.564,175.38,327.744,170.667,327.744z"/>
	</g>
</g>
<g>
	<g>
		<path d="M460.8,327.744c-18.851,0-34.133,15.282-34.133,34.133c0,4.713,3.82,8.533,8.533,8.533s8.533-3.82,8.533-8.533
			c0-9.426,7.641-17.067,17.067-17.067c14.138,0,25.6,11.461,25.6,25.6s-11.461,25.6-25.6,25.6h-59.733
			c-4.713,0-8.533,3.82-8.533,8.533s3.82,8.533,8.533,8.533H460.8c23.564,0,42.667-19.103,42.667-42.667
			S484.364,327.744,460.8,327.744z"/>
	</g>
</g>
<g>
	<g>
		<path d="M145.067,430.144h-8.533c-4.713,0-8.533,3.82-8.533,8.533s3.82,8.533,8.533,8.533h8.533c4.713,0,8.533-3.82,8.533-8.533
			S149.779,430.144,145.067,430.144z"/>
	</g>
</g>
<g>
	<g>
		<path d="M245.988,430.144c-1.071-0.057-2.144-0.057-3.214,0H179.2c-4.713,0-8.533,3.82-8.533,8.533s3.82,8.533,8.533,8.533h63.573
			c7.281-0.586,13.659,4.841,14.245,12.122c0.586,7.281-4.841,13.659-12.122,14.246c-0.707,0.057-1.417,0.057-2.123,0
			c-4.289,0-7.765-3.477-7.765-7.765c0-4.713-3.821-8.533-8.533-8.533s-8.533,3.821-8.533,8.533
			c0,13.714,11.118,24.832,24.832,24.832c16.707,0.888,30.97-11.936,31.858-28.643C275.519,445.295,262.695,431.031,245.988,430.144
			z"/>
	</g>
</g>
<g>
</g>
<g>
</g>
<g>
</g>
<g>
</g>
<g>
</g>
<g>
</g>
<g>
</g>
<g>
</g>
<g>
</g>
<g>
</g>
<g>
</g>
<g>
</g>
<g>
</g>
<g>
</g>
<g>
</g>
</svg>
